<svg xmlns="http://www.w3.org/2000/svg" viewBox="0 0 576 73.506"><defs><style>.a{isolation:isolate;}.b{fill:#fff;}.c{fill:red;}</style></defs><rect y="5.85" width="302.059" height="0.8"/><rect y="18.35" width="302.059" height="0.8"/><rect y="30.85" width="302.059" height="0.8"/><rect y="43.35" width="302.059" height="0.801"/><path d="M0,24.9V12.645A4.174,4.174,0,0,1,1.123,9.593a3.918,3.918,0,0,1,2.93-1.148,2.181,2.181,0,0,1,1.611.586,2.112,2.112,0,0,1,.586,1.563v6.738l-.391-.342a5.233,5.233,0,0,0-1.147-.708,3.71,3.71,0,0,0-1.636-.366,2.542,2.542,0,0,0-1.88.83,2.772,2.772,0,0,0-.8,2A2.852,2.852,0,0,0,1.2,20.774a2.507,2.507,0,0,0,1.88.855,3.928,3.928,0,0,0,1.636-.342A4.749,4.749,0,0,0,5.859,20.6l.391-.391V27a2.129,2.129,0,0,1-.586,1.538,2.128,2.128,0,0,1-1.611.61,3.875,3.875,0,0,1-2.93-1.171A4.262,4.262,0,0,1,0,24.9Z"/><g class="a"><path d="M12.584,56.519a3.512,3.512,0,0,1-1.134,2.736,4.272,4.272,0,0,1-2.991,1.032,1.82,1.82,0,0,1-.806-.149.487.487,0,0,1-.262-.414c0-.074.031-.1.093-.094a3.121,3.121,0,0,0,.713.133,2.54,2.54,0,0,0,1.912-.779,2.963,2.963,0,0,0,.75-2.147,3.154,3.154,0,0,0-.787-2.269,3.045,3.045,0,0,0-2.306-.824q-.863,0-.938.187a5.657,5.657,0,0,0-.094,1.406v7.989a6.107,6.107,0,0,0,.094,1.386c.025.088.2.161.526.215a4.725,4.725,0,0,0,.768.086.518.518,0,0,1,.066.272.358.358,0,0,1-.066.271q-1.912-.093-2.194-.094t-2.212.094a.358.358,0,0,1-.066-.271.509.509,0,0,1,.066-.272,4.736,4.736,0,0,0,.768-.086c.326-.054.5-.127.526-.215A6.107,6.107,0,0,0,5.1,63.326V55.318a6.112,6.112,0,0,0-.094-1.387c-.026-.088-.2-.16-.526-.215a4.853,4.853,0,0,0-.768-.086.5.5,0,0,1-.066-.271.36.36,0,0,1,.066-.272q1.93.094,2.212.094.32,0,1.191-.019t1.472-.018a4.507,4.507,0,0,1,2.794.908A2.935,2.935,0,0,1,12.584,56.519Z"/><path d="M17.693,57.326a1.817,1.817,0,0,1,1.426.75,2.764,2.764,0,0,1,.618,1.818v3.861q0,.882.581.883a1.24,1.24,0,0,0,.62-.244c.049,0,.074.049.074.151a.653.653,0,0,1-.094.355,3.485,3.485,0,0,1-.684.459,1.642,1.642,0,0,1-.722.254.951.951,0,0,1-.721-.375,1.792,1.792,0,0,1-.422-.844,6.669,6.669,0,0,1-1.069.76,2.712,2.712,0,0,1-1.238.5,2.143,2.143,0,0,1-1.565-.619,2.068,2.068,0,0,1-.628-1.537,1.615,1.615,0,0,1,.29-.957,1.417,1.417,0,0,1,.647-.543q3.188-1.143,3.281-1.182a.307.307,0,0,0,.188-.141.943.943,0,0,0,.037-.328v-.506a1.884,1.884,0,0,0-.478-1.228,1.438,1.438,0,0,0-1.134-.572.822.822,0,0,0-.694.291,2.1,2.1,0,0,0-.338.873q-.15.9-.881.9a.545.545,0,0,1-.459-.242.9.9,0,0,1-.178-.545.705.705,0,0,1,.131-.449,6.916,6.916,0,0,1,1.537-1.041A4.066,4.066,0,0,1,17.693,57.326Zm-1.012,7.312a2.365,2.365,0,0,0,1.041-.3q.589-.3.59-.468V61.318c-.962.289-1.543.469-1.744.545a1.531,1.531,0,0,0-1.143,1.463,1.306,1.306,0,0,0,.366.918A1.173,1.173,0,0,0,16.681,64.638Z"/></g><path d="M17.188,14.943q3.125,0,3.125,1.807v5.908a4.256,4.256,0,0,0-3.125-1.025,4.253,4.253,0,0,0-3.125,1.025V16.75Q14.063,14.944,17.188,14.943Z"/><path class="b" d="M17.193,16.09a2.8,2.8,0,0,1,1.747.426,1.2,1.2,0,0,1,.286,1.031v3.2a5.428,5.428,0,0,0-2.028-.375,7.383,7.383,0,0,0-2.038.292c0-1.2-.006-2.4,0-3.6a1.069,1.069,0,0,1,.913-.86A4.5,4.5,0,0,1,17.193,16.09Z"/><g class="a"><path d="M24.229,57.4h2.418c.062,0,.094.068.094.207a.8.8,0,0,1-.262.563h-2.25v4.912q0,1.538,1.237,1.537a2.064,2.064,0,0,0,1.219-.432.146.146,0,0,1,.056.131.394.394,0,0,1-.075.281,2.571,2.571,0,0,1-1.931,1.031q-1.95,0-1.95-2.023V58.17H21.7c-.062,0-.093-.057-.093-.17,0-.075.162-.274.487-.6h.694V56.218c.1-.111.243-.271.431-.478l.488-.533c.137-.151.212-.233.225-.245a.25.25,0,0,1,.112-.056.34.34,0,0,1,.131-.01c.038.008.057.024.057.047Z"/><path d="M29.141,60.849v.133a3.527,3.527,0,0,0,.881,2.559,2.9,2.9,0,0,0,2.175.91,2.322,2.322,0,0,0,1.219-.328,3.687,3.687,0,0,0,.844-.666.08.08,0,0,1,.047.027.54.54,0,0,1,.065.094.286.286,0,0,1,.038.14.669.669,0,0,1-.113.338,3.857,3.857,0,0,1-1.059,1.088,2.794,2.794,0,0,1-1.678.506,3.543,3.543,0,0,1-2.7-1.115A3.905,3.905,0,0,1,27.81,61.75,4.544,4.544,0,0,1,29,58.619a3.393,3.393,0,0,1,2.5-1.332,3.163,3.163,0,0,1,1.378.281,2.109,2.109,0,0,1,.882.723,3.686,3.686,0,0,1,.422.824,2.266,2.266,0,0,1,.131.722c0,.575-.15.87-.45.881Q31.822,60.85,29.141,60.849Zm.093-.693h3.057a.381.381,0,0,0,.431-.432,2.118,2.118,0,0,0-.394-1.162,1.282,1.282,0,0,0-1.143-.6A1.534,1.534,0,0,0,30,58.505a2.965,2.965,0,0,0-.656,1.1C29.234,59.972,29.2,60.156,29.234,60.156Z"/><path d="M40.8,57.306a1.54,1.54,0,0,1,.685.16,1.044,1.044,0,0,1,.459.383,1.614,1.614,0,0,1,.075.508,1.081,1.081,0,0,1-.215.721.578.578,0,0,1-.4.254.586.586,0,0,1-.225-.047,1.567,1.567,0,0,1-.281-.17c-.112-.08-.175-.127-.188-.141a1.249,1.249,0,0,0-.693-.224,1.313,1.313,0,0,0-1.022.638,1.931,1.931,0,0,0-.478,1.049v2.889a6.13,6.13,0,0,0,.093,1.386c.025.088.247.161.666.215a7.694,7.694,0,0,0,.947.086.518.518,0,0,1,.066.272.358.358,0,0,1-.066.271q-1.913-.093-2.325-.094-.187,0-2.1.094a.358.358,0,0,1-.066-.271.528.528,0,0,1,.066-.272,3.9,3.9,0,0,0,.7-.086c.294-.054.453-.127.479-.215a6.13,6.13,0,0,0,.093-1.386V59.837a3.148,3.148,0,0,0-.093-.974q-.132-.338-1.219-.338a.653.653,0,0,1,0-.488,8.366,8.366,0,0,0,2.681-.787c.05,0,.1.037.141.113a.4.4,0,0,1,.065.187,12.305,12.305,0,0,0-.131,1.725c0,.074.025.088.075.037a4.725,4.725,0,0,1,.975-1.35A1.84,1.84,0,0,1,40.8,57.306Z"/></g><g class="a"><path d="M52.445,57.287a3.635,3.635,0,0,1,1.294.187c.062,0,.094-.131.094-.392V55.037a3.155,3.155,0,0,0-.094-.975q-.15-.337-1.144-.338c-.012,0-.022-.039-.028-.121a1.656,1.656,0,0,1,0-.244c.006-.08.022-.121.047-.121a8.584,8.584,0,0,0,2.662-.75c.05,0,.1.035.141.1a.364.364,0,0,1,.066.2,5.172,5.172,0,0,0-.207,1.633v8.023a6.884,6.884,0,0,0,.132,1.838.418.418,0,0,0,.234.187,1.539,1.539,0,0,0,.357.1,2.176,2.176,0,0,0,.346.027l.169.02c.037.011.056.088.056.224a.516.516,0,0,1-.047.17c-.031.074-.065.112-.1.112-.187.013-.4.037-.628.076s-.447.08-.647.131-.391.1-.572.15-.322.094-.422.131l-.168.037c-.1,0-.15-.119-.15-.355v-.657c-.013-.088-.032-.125-.057-.113a4.276,4.276,0,0,1-1.087.713,3.185,3.185,0,0,1-1.406.412,2.963,2.963,0,0,1-2.306-1.162,4.235,4.235,0,0,1-.994-2.85,3.647,3.647,0,0,1,.768-2.2,5.414,5.414,0,0,1,1.8-1.594A4.061,4.061,0,0,1,52.445,57.287Zm-.6.789A1.917,1.917,0,0,0,50.186,59a4.187,4.187,0,0,0,.075,4.528,2.271,2.271,0,0,0,1.941.957,2.479,2.479,0,0,0,1.115-.254c.344-.168.516-.334.516-.5V58.994q0-.338-.61-.629A3.159,3.159,0,0,0,51.845,58.076Z"/><path d="M58.989,60.849v.133a3.527,3.527,0,0,0,.881,2.559,2.908,2.908,0,0,0,2.175.91,2.322,2.322,0,0,0,1.219-.328,3.687,3.687,0,0,0,.844-.666.08.08,0,0,1,.047.027.54.54,0,0,1,.065.094.286.286,0,0,1,.038.14.669.669,0,0,1-.113.338,3.857,3.857,0,0,1-1.059,1.088,2.792,2.792,0,0,1-1.678.506,3.541,3.541,0,0,1-2.7-1.115,3.9,3.9,0,0,1-1.05-2.785,4.544,4.544,0,0,1,1.19-3.131,3.4,3.4,0,0,1,2.5-1.332,3.161,3.161,0,0,1,1.377.281,2.1,2.1,0,0,1,.882.723,3.686,3.686,0,0,1,.422.824,2.266,2.266,0,0,1,.131.722c0,.575-.15.87-.45.881Q61.671,60.85,58.989,60.849Zm.094-.693h3.056a.381.381,0,0,0,.431-.432,2.118,2.118,0,0,0-.394-1.162,1.282,1.282,0,0,0-1.143-.6,1.531,1.531,0,0,0-1.181.543,2.968,2.968,0,0,0-.657,1.1C59.083,59.972,59.045,60.156,59.083,60.156Z"/></g><g class="a"><path d="M77.081,58.263a.932.932,0,0,1-.216.684.679.679,0,0,1-.5.215.672.672,0,0,1-.375-.121,3.227,3.227,0,0,1-.4-.319,2.462,2.462,0,0,0-.309-.254,1.894,1.894,0,0,0-1.069-.355,1.824,1.824,0,0,0-1.453.871,3.7,3.7,0,0,0-.647,2.26,3.11,3.11,0,0,0,.844,2.371,3.059,3.059,0,0,0,2.194.8,2.54,2.54,0,0,0,1.987-.955.077.077,0,0,1,.047.027.486.486,0,0,1,.066.094.3.3,0,0,1,.037.14.667.667,0,0,1-.112.338,3.875,3.875,0,0,1-1.06,1.088,2.792,2.792,0,0,1-1.678.506,3.568,3.568,0,0,1-2.719-1.135,3.745,3.745,0,0,1-1.068-2.652,4.2,4.2,0,0,1,1.481-3.254,4.592,4.592,0,0,1,3.075-1.322,2.974,2.974,0,0,1,1.688.451A.712.712,0,0,1,77.081,58.263Z"/><path d="M86.475,57.287a3.166,3.166,0,0,1,1.378.281,2.106,2.106,0,0,1,.881.723,3.686,3.686,0,0,1,.422.824,2.266,2.266,0,0,1,.131.722c0,.575-.15.87-.45.881q-2.025.132-4.725.131a3.6,3.6,0,0,0,.853,2.654,2.905,2.905,0,0,0,2.2.948,2.322,2.322,0,0,0,1.219-.328,3.665,3.665,0,0,0,.844-.666.08.08,0,0,1,.047.027.54.54,0,0,1,.065.094.286.286,0,0,1,.038.14.677.677,0,0,1-.112.338,3.875,3.875,0,0,1-1.06,1.088,2.792,2.792,0,0,1-1.678.506,4.077,4.077,0,0,1-1.781-.412,2.944,2.944,0,0,1-1.313-1.182,7.355,7.355,0,0,1-1.331,1.012,3.026,3.026,0,0,1-1.369.582,2.145,2.145,0,0,1-1.566-.619,2.068,2.068,0,0,1-.628-1.537,1.543,1.543,0,0,1,.863-1.481q.525-.264,1.772-.769t1.341-.543a.394.394,0,0,0,.262-.264,3.207,3.207,0,0,0,.037-.6,2.1,2.1,0,0,0-.393-1.246,1.229,1.229,0,0,0-1.05-.554.822.822,0,0,0-.694.291,2.106,2.106,0,0,0-.338.89q-.15.882-.881.881A.544.544,0,0,1,79,59.857a.9.9,0,0,1-.178-.545.705.705,0,0,1,.131-.449,7.507,7.507,0,0,1,1.49-1,3.959,3.959,0,0,1,1.885-.533,1.91,1.91,0,0,1,1.744,1.162A3.239,3.239,0,0,1,86.475,57.287Zm-5.232,4.576A1.49,1.49,0,0,0,80.1,63.326a1.309,1.309,0,0,0,.365.918,1.176,1.176,0,0,0,.891.394,2.235,2.235,0,0,0,1.134-.347c.394-.231.591-.479.591-.741a5.66,5.66,0,0,1-.338-1.67c-.025-.273-.037-.443-.037-.505q-.245.093-.778.263C81.571,61.75,81.343,61.826,81.243,61.863Zm4.913-3.9a1.531,1.531,0,0,0-1.181.543,2.968,2.968,0,0,0-.657,1.1c-.112.369-.15.553-.112.553h3.056a.391.391,0,0,0,.431-.432,2.03,2.03,0,0,0-.384-1.125A1.288,1.288,0,0,0,86.156,57.962Z"/></g><g class="a"><path d="M91.763,55.037a3.187,3.187,0,0,0-.094-.975c-.1-.225-.481-.338-1.145-.338-.012,0-.021-.039-.027-.121a1.42,1.42,0,0,1,0-.244c.006-.08.022-.121.047-.121a8.6,8.6,0,0,0,2.662-.75c.05,0,.1.035.141.1a.362.362,0,0,1,.065.2,5.176,5.176,0,0,0-.206,1.633v8.906a6.046,6.046,0,0,0,.094,1.386c.024.088.184.161.478.215a3.9,3.9,0,0,0,.7.086.518.518,0,0,1,.066.272.358.358,0,0,1-.066.271q-1.912-.093-2.006-.094c-.037,0-.7.032-1.988.094a.358.358,0,0,1-.065-.271.52.52,0,0,1,.065-.272,3.907,3.907,0,0,0,.7-.086c.294-.054.454-.127.479-.215a6.17,6.17,0,0,0,.094-1.386Z"/><path d="M98.269,59.406v3.92a6.13,6.13,0,0,0,.093,1.386c.025.088.185.161.479.215a3.887,3.887,0,0,0,.7.086.52.52,0,0,1,.065.272.358.358,0,0,1-.065.271q-1.932-.093-2.007-.094t-1.987.094a.358.358,0,0,1-.066-.271.518.518,0,0,1,.066-.272,3.907,3.907,0,0,0,.7-.086c.294-.054.453-.127.478-.215a6.107,6.107,0,0,0,.094-1.386V59.837a3.138,3.138,0,0,0-.094-.974c-.087-.225-.494-.338-1.218-.338a.653.653,0,0,1,0-.488,8.359,8.359,0,0,0,2.68-.787c.05,0,.1.037.141.113a.387.387,0,0,1,.065.187,10.87,10.87,0,0,0-.13,1.237Zm-1.529-4.36a.951.951,0,0,1,0-1.33.948.948,0,0,1,1.331,0,.941.941,0,0,1-1.331,1.33Z"/><path d="M103.594,57.306a6.646,6.646,0,0,1,1.04.1q.628.1.872.14a11.287,11.287,0,0,1,.225,2.063c0,.062-.063.094-.187.094a.487.487,0,0,1-.319-.094,3.231,3.231,0,0,0-.6-1.182,1.236,1.236,0,0,0-.976-.543,1.373,1.373,0,0,0-.993.328,1.135,1.135,0,0,0-.338.852,1.225,1.225,0,0,0,.076.441,2.145,2.145,0,0,0,.15.328,1.065,1.065,0,0,0,.281.291c.137.106.243.184.319.235s.209.129.4.234.328.184.4.235c.025.011.168.095.431.252s.434.259.515.31a5.188,5.188,0,0,1,.432.318,2.06,2.06,0,0,1,.422.413,3.151,3.151,0,0,1,.234.441,1.344,1.344,0,0,1,.122.553,2.336,2.336,0,0,1-.863,1.847,3,3,0,0,1-2.024.741,5.15,5.15,0,0,1-.722-.047,7.746,7.746,0,0,1-.778-.16c-.3-.075-.531-.125-.695-.151a5.333,5.333,0,0,1-.214-.937,6.547,6.547,0,0,1-.1-1.012.555.555,0,0,1,.338-.113.3.3,0,0,1,.168.039,2.784,2.784,0,0,0,.76,1.219,1.766,1.766,0,0,0,1.265.562,1.356,1.356,0,0,0,.975-.357,1.306,1.306,0,0,0,.375-.995,1.513,1.513,0,0,0-.112-.6,1.277,1.277,0,0,0-.394-.486,4.78,4.78,0,0,0-.5-.358c-.144-.086-.359-.209-.646-.365s-.5-.272-.638-.348a2.361,2.361,0,0,1-1.425-2.006,2,2,0,0,1,.815-1.65A3.008,3.008,0,0,1,103.594,57.306Z"/><path d="M108.844,63.193a.943.943,0,0,1,.487.133,2.549,2.549,0,0,1,.338,1.312,3.784,3.784,0,0,1-.741,1.93,4.423,4.423,0,0,1-1.472,1.539c-.062,0-.125-.051-.187-.15a.5.5,0,0,1-.094-.245,2.554,2.554,0,0,0,1.181-2.082,1.305,1.305,0,0,0-.309-.72,1.374,1.374,0,0,1-.31-.8.858.858,0,0,1,.32-.619A1.107,1.107,0,0,1,108.844,63.193Z"/></g><g class="a"><path d="M121.835,53.125a7.988,7.988,0,0,1,5.241,1.613,5.462,5.462,0,0,1,1.959,4.463,5.66,5.66,0,0,1-2.053,4.742,8.285,8.285,0,0,1-5.278,1.613h-5.419a.8.8,0,0,1-.065-.347.54.54,0,0,1,.065-.346c.737-.063,1.137-.17,1.2-.318a6.164,6.164,0,0,0,.15-1.764v-6.9a6.152,6.152,0,0,0-.15-1.761q-.075-.206-1.2-.3a.542.542,0,0,1-.065-.346.8.8,0,0,1,.065-.347q.845.055,2.681.056c.3,0,.791-.01,1.472-.027S121.585,53.125,121.835,53.125Zm-1.575,2.119v7.613a4.716,4.716,0,0,0,.15,1.48.653.653,0,0,0,.431.309,2.286,2.286,0,0,0,.75.123,4.133,4.133,0,0,0,3.375-1.312,6.272,6.272,0,0,0,1.088-4.051,5.876,5.876,0,0,0-1.3-4.106,4.466,4.466,0,0,0-3.459-1.425c-.563,0-.875.076-.938.224A4.054,4.054,0,0,0,120.26,55.244Z"/><path d="M132.879,60.962a4.056,4.056,0,0,0,.281,1.584,2.187,2.187,0,0,0,.722.975,3.18,3.18,0,0,0,.844.441,2.485,2.485,0,0,0,.778.131,2.746,2.746,0,0,0,2.1-.937.3.3,0,0,1,.225.338.685.685,0,0,1-.057.355,4.468,4.468,0,0,1-1.3,1.2,3.685,3.685,0,0,1-2.09.62,3.94,3.94,0,0,1-2.794-1.071,3.71,3.71,0,0,1-1.144-2.849,4.679,4.679,0,0,1,1.275-3.2,3.8,3.8,0,0,1,2.888-1.426,3.137,3.137,0,0,1,2.465.91,2.842,2.842,0,0,1,.816,1.922.956.956,0,0,1-.15.543.483.483,0,0,1-.356.244Q135.692,60.887,132.879,60.962Zm.018-.75A10.407,10.407,0,0,0,134,60.166c.65-.043,1.087-.079,1.312-.1.163-.012.244-.111.244-.3a2.9,2.9,0,0,0-.281-1.312.914.914,0,0,0-.862-.563,1.083,1.083,0,0,0-.873.469,2.852,2.852,0,0,0-.506.965A3.311,3.311,0,0,0,132.9,60.212Z"/></g><g class="a"><path d="M139.4,60.607q2.731-.207,3.165-.226c.061,0,.092.057.092.169a3.262,3.262,0,0,1-.171,1.013q-.263.019-3.165.206c-.061,0-.091-.068-.091-.206A3.112,3.112,0,0,1,139.4,60.607Z"/></g><path d="M134.154,8.693q3.125,0,3.125,1.807v5.908a5.276,5.276,0,0,0-6.25,0V10.5Q131.029,8.694,134.154,8.693Z"/><g class="a"><path d="M149.977,59.5a2.366,2.366,0,0,0-.15-1.012q-.207-.375-1.05-.375a.42.42,0,0,1-.047-.225.425.425,0,0,1,.047-.263,10.135,10.135,0,0,0,2.569-.375c.037,0,.081.06.131.177a.786.786,0,0,1,.075.274,3.4,3.4,0,0,0-.131,1.219v3.937a6.873,6.873,0,0,0,.131,1.424.338.338,0,0,0,.206.207,1.169,1.169,0,0,0,.357.094c.124.011.249.017.375.017l.168.02c.038.011.056.082.056.207a.555.555,0,0,1-.047.177c-.031.083-.065.122-.1.122-.187.013-.4.037-.627.076s-.448.08-.647.131-.391.1-.572.15-.328.094-.441.131l-.15.037c-.1,0-.15-.1-.15-.3v-.861l-.038-.094a4.057,4.057,0,0,1-1.209.854,3.314,3.314,0,0,1-1.453.382q-2.344,0-2.344-3.73V59.5a2.366,2.366,0,0,0-.15-1.012q-.206-.375-1.05-.375a.414.414,0,0,1-.046-.225.419.419,0,0,1,.046-.263,10.135,10.135,0,0,0,2.569-.375c.037,0,.081.05.131.15a.581.581,0,0,1,.075.225,3.776,3.776,0,0,0-.131,1.3v2.755a4.188,4.188,0,0,0,.45,2.2,1.568,1.568,0,0,0,1.425.7,2.183,2.183,0,0,0,1.163-.348q.563-.346.562-.684Z"/><path d="M156.727,57.306a6.646,6.646,0,0,1,1.041.1c.419.068.709.115.872.14a11.466,11.466,0,0,1,.225,2.063c0,.062-.063.094-.188.094a.489.489,0,0,1-.319-.094,3.2,3.2,0,0,0-.6-1.182,1.233,1.233,0,0,0-.975-.543,1.373,1.373,0,0,0-.993.328,1.131,1.131,0,0,0-.338.852,1.225,1.225,0,0,0,.075.441,2.357,2.357,0,0,0,.15.328,1.065,1.065,0,0,0,.281.291c.138.106.244.184.319.235s.209.129.4.234.328.184.4.235q.037.017.432.252c.262.158.434.259.515.31s.225.156.431.318a2.06,2.06,0,0,1,.422.413,3.144,3.144,0,0,1,.235.441,1.344,1.344,0,0,1,.122.553,2.336,2.336,0,0,1-.863,1.847,3,3,0,0,1-2.025.741,5.16,5.16,0,0,1-.722-.047,7.8,7.8,0,0,1-.778-.16q-.45-.113-.694-.151a5.225,5.225,0,0,1-.215-.937,6.675,6.675,0,0,1-.1-1.012.557.557,0,0,1,.338-.113.3.3,0,0,1,.169.039,2.79,2.79,0,0,0,.759,1.219,1.769,1.769,0,0,0,1.266.562,1.356,1.356,0,0,0,.975-.357,1.306,1.306,0,0,0,.375-.995,1.513,1.513,0,0,0-.113-.6,1.268,1.268,0,0,0-.394-.486,4.889,4.889,0,0,0-.5-.358c-.144-.086-.36-.209-.647-.365s-.5-.272-.638-.348a2.361,2.361,0,0,1-1.425-2.006,2,2,0,0,1,.816-1.65A3.007,3.007,0,0,1,156.727,57.306Z"/><path d="M161.977,63.193a.949.949,0,0,1,.488.133,2.558,2.558,0,0,1,.337,1.312,3.79,3.79,0,0,1-.74,1.93,4.431,4.431,0,0,1-1.472,1.539c-.063,0-.125-.051-.188-.15a.5.5,0,0,1-.093-.245,2.557,2.557,0,0,0,1.181-2.082,1.3,1.3,0,0,0-.31-.72,1.372,1.372,0,0,1-.309-.8.856.856,0,0,1,.319-.619A1.109,1.109,0,0,1,161.977,63.193Z"/></g><path d="M148.242,21.193q3.126,0,3.126,1.807v5.908a5.278,5.278,0,0,0-6.251,0V23Q145.117,21.194,148.242,21.193Z"/><path d="M154.46,23.5a1.5,1.5,0,0,1,1.093.43,1.421,1.421,0,0,1,.44,1.053A1.514,1.514,0,0,1,154.46,26.5a1.4,1.4,0,0,1-1.028-.447,1.472,1.472,0,0,1-.439-1.07A1.484,1.484,0,0,1,154.46,23.5Z"/><g class="a"><path class="c" d="M174.369,54.005a1.068,1.068,0,0,1,.534-.355.53.53,0,0,1,.516.131.592.592,0,0,1,.187.515.876.876,0,0,1-.3.536,5.023,5.023,0,0,1-.947.627,4.406,4.406,0,0,0-.872.572l-.094.264c.012.085.075.148.188.187a3.593,3.593,0,0,0,.937.262,4.754,4.754,0,0,1,1.069.3,1.146,1.146,0,0,1,.506.4.48.48,0,0,1,.037.515.566.566,0,0,1-.431.338.87.87,0,0,1-.6-.113,4.44,4.44,0,0,1-.909-.7,4.554,4.554,0,0,0-.8-.647l-.263-.056c-.049.025-.087.107-.112.244a4.359,4.359,0,0,0,.047.975,4.525,4.525,0,0,1,.028,1.107,1.048,1.048,0,0,1-.234.6.512.512,0,0,1-.479.187.58.58,0,0,1-.449-.291.829.829,0,0,1-.076-.609,4.622,4.622,0,0,1,.4-1.1,3.849,3.849,0,0,0,.365-.965.287.287,0,0,0-.056-.244.231.231,0,0,0-.244-.057,4.87,4.87,0,0,0-.9.358,4.418,4.418,0,0,1-1.069.375,1.139,1.139,0,0,1-.647-.037.475.475,0,0,1-.328-.4.581.581,0,0,1,.151-.525.849.849,0,0,1,.562-.262,4.678,4.678,0,0,1,1.153.037,4.533,4.533,0,0,0,1.022.057.307.307,0,0,0,.206-.151.258.258,0,0,0-.037-.261,5.209,5.209,0,0,0-.609-.76,5.311,5.311,0,0,1-.685-.891q-.413-.75.112-1.05.6-.3.957.431a5.125,5.125,0,0,1,.309,1.106,4.313,4.313,0,0,0,.272.994c.062.125.125.2.187.207a.294.294,0,0,0,.244-.113,4.027,4.027,0,0,0,.525-.815A4.582,4.582,0,0,1,174.369,54.005Z"/></g><rect x="175.686" width="0.8" height="12.5"/><g class="a"><path d="M187.942,57.287a1.975,1.975,0,0,1,2.138,1.556,4.777,4.777,0,0,1,2.756-1.556,1.993,1.993,0,0,1,1.931.9,6.951,6.951,0,0,1,.488,3.076v2.063a6.046,6.046,0,0,0,.094,1.386c.025.088.184.161.478.215a3.887,3.887,0,0,0,.7.086.52.52,0,0,1,.065.272.354.354,0,0,1-.065.271q-1.932-.093-2.007-.094t-1.987.094a.358.358,0,0,1-.066-.271.528.528,0,0,1,.066-.272,3.907,3.907,0,0,0,.7-.086c.294-.054.453-.127.478-.215a6.046,6.046,0,0,0,.094-1.386V61.318a5.372,5.372,0,0,0-.347-2.24,1.421,1.421,0,0,0-1.416-.7,1.868,1.868,0,0,0-.871.244,2.992,2.992,0,0,0-.713.5c-.169.17-.253.279-.253.328v.113c.012.074.018.119.018.131a8.979,8.979,0,0,1,.076,1.332v2.307a6.13,6.13,0,0,0,.093,1.386c.025.088.185.161.478.215a3.907,3.907,0,0,0,.7.086.528.528,0,0,1,.066.272.366.366,0,0,1-.066.271q-1.932-.093-2.007-.094t-1.987.094a.354.354,0,0,1-.065-.271.5.5,0,0,1,.065-.272,3.907,3.907,0,0,0,.7-.086c.294-.054.453-.127.478-.215a6.046,6.046,0,0,0,.094-1.386V61.412a5.255,5.255,0,0,0-.375-2.381,1.457,1.457,0,0,0-1.387-.656,2.043,2.043,0,0,0-1.154.4c-.393.267-.591.476-.591.627v3.92a6.107,6.107,0,0,0,.094,1.386c.025.088.185.161.479.215a3.9,3.9,0,0,0,.7.086.52.52,0,0,1,.065.272.354.354,0,0,1-.065.271q-1.932-.093-2.006-.094t-1.988.094a.358.358,0,0,1-.066-.271.528.528,0,0,1,.066-.272,3.907,3.907,0,0,0,.7-.086c.294-.054.453-.127.478-.215a6.107,6.107,0,0,0,.094-1.386V59.912a3.523,3.523,0,0,0-.094-1.049q-.132-.338-1.218-.338a.653.653,0,0,1,0-.488,8.366,8.366,0,0,0,2.681-.787c.05,0,.1.037.14.113a.39.39,0,0,1,.066.187c-.075.526-.112.85-.112.975,0,.051.012.074.037.074s.031-.012.056-.037A4.375,4.375,0,0,1,187.942,57.287Z"/><path d="M200.167,59.406v3.92a6.046,6.046,0,0,0,.094,1.386c.025.088.184.161.478.215a3.907,3.907,0,0,0,.7.086.528.528,0,0,1,.066.272.358.358,0,0,1-.066.271q-1.93-.093-2.006-.094t-1.988.094a.354.354,0,0,1-.065-.271.52.52,0,0,1,.065-.272,3.887,3.887,0,0,0,.7-.086c.294-.054.453-.127.479-.215a6.107,6.107,0,0,0,.094-1.386V59.837a3.138,3.138,0,0,0-.094-.974q-.132-.338-1.219-.338a.653.653,0,0,1,0-.488,8.366,8.366,0,0,0,2.681-.787c.05,0,.1.037.141.113a.4.4,0,0,1,.065.187,10.951,10.951,0,0,0-.131,1.237Zm-1.528-4.36a.95.95,0,1,1,.666.272A.9.9,0,0,1,198.639,55.046Z"/></g><path d="M199.3,21.193q3.126,0,3.125,1.807v5.908a5.276,5.276,0,0,0-6.25,0V23Q196.179,21.194,199.3,21.193Z"/><path class="b" d="M199.309,22.34a2.8,2.8,0,0,1,1.747.426,1.194,1.194,0,0,1,.286,1.031V27a5.42,5.42,0,0,0-2.027-.375,7.385,7.385,0,0,0-2.039.292c0-1.2-.005-2.4,0-3.6a1.071,1.071,0,0,1,.914-.86A4.5,4.5,0,0,1,199.309,22.34Z"/><g class="a"><path d="M205.492,57.306a6.646,6.646,0,0,1,1.041.1c.419.068.709.115.872.14a11.466,11.466,0,0,1,.225,2.063c0,.062-.063.094-.188.094a.484.484,0,0,1-.318-.094,3.218,3.218,0,0,0-.6-1.182,1.233,1.233,0,0,0-.975-.543,1.373,1.373,0,0,0-.993.328,1.135,1.135,0,0,0-.338.852,1.225,1.225,0,0,0,.075.441,2.357,2.357,0,0,0,.15.328,1.056,1.056,0,0,0,.282.291c.137.106.243.184.318.235s.209.129.4.234.328.184.4.235c.025.011.168.095.431.252s.434.259.515.31.226.156.432.318a2.05,2.05,0,0,1,.421.413,3.042,3.042,0,0,1,.235.441,1.344,1.344,0,0,1,.122.553,2.336,2.336,0,0,1-.863,1.847,3,3,0,0,1-2.025.741,5.135,5.135,0,0,1-.721-.047,7.759,7.759,0,0,1-.779-.16q-.45-.113-.694-.151a5.315,5.315,0,0,1-.215-.937,6.675,6.675,0,0,1-.1-1.012.559.559,0,0,1,.338-.113.3.3,0,0,1,.169.039,2.79,2.79,0,0,0,.759,1.219,1.769,1.769,0,0,0,1.266.562,1.356,1.356,0,0,0,.975-.357,1.306,1.306,0,0,0,.375-.995,1.53,1.53,0,0,0-.112-.6,1.28,1.28,0,0,0-.395-.486,4.889,4.889,0,0,0-.5-.358c-.144-.086-.359-.209-.647-.365s-.5-.272-.638-.348a2.363,2.363,0,0,1-1.425-2.006,2,2,0,0,1,.816-1.65A3.007,3.007,0,0,1,205.492,57.306Z"/><path d="M210.836,60.849v.133a3.527,3.527,0,0,0,.881,2.559,2.909,2.909,0,0,0,2.176.91,2.318,2.318,0,0,0,1.218-.328,3.665,3.665,0,0,0,.844-.666.08.08,0,0,1,.047.027.49.49,0,0,1,.065.094.286.286,0,0,1,.038.14.669.669,0,0,1-.113.338,3.857,3.857,0,0,1-1.059,1.088,2.792,2.792,0,0,1-1.678.506,3.541,3.541,0,0,1-2.7-1.115,3.9,3.9,0,0,1-1.05-2.785,4.544,4.544,0,0,1,1.19-3.131,3.4,3.4,0,0,1,2.5-1.332,3.166,3.166,0,0,1,1.378.281,2.106,2.106,0,0,1,.881.723,3.686,3.686,0,0,1,.422.824,2.266,2.266,0,0,1,.131.722c0,.575-.15.87-.45.881Q213.518,60.85,210.836,60.849Zm.094-.693h3.056a.381.381,0,0,0,.431-.432,2.118,2.118,0,0,0-.394-1.162,1.282,1.282,0,0,0-1.143-.6,1.531,1.531,0,0,0-1.181.543,2.982,2.982,0,0,0-.657,1.1Q210.874,60.157,210.93,60.156Z"/></g><g class="a"><path d="M222.574,57.343a1.176,1.176,0,0,1,.918.395.8.8,0,0,1,.169.525.94.94,0,0,1-.178.6.6.6,0,0,1-.5.224.724.724,0,0,1-.562-.281.441.441,0,0,0-.375-.15q-.525,0-1.435,1.566a9.407,9.407,0,0,0-1.172,2.99L219.03,65.5a3.5,3.5,0,0,1-.637.056,4.267,4.267,0,0,1-.694-.056l1.125-6.057a4.482,4.482,0,0,0,.074-.6q0-.468-.187-.468a.512.512,0,0,0-.234.076,1.39,1.39,0,0,0-.272.187c-.088.074-.182.162-.281.262s-.185.187-.254.262-.128.144-.178.207l-.094.093c-.024,0-.062-.046-.112-.14a.52.52,0,0,1-.075-.215,5.2,5.2,0,0,1,1.013-1.088,2.2,2.2,0,0,1,1.35-.676.635.635,0,0,1,.515.282,1.106,1.106,0,0,1,.216.693,7.454,7.454,0,0,1-.15.994q-.094.507-.319,1.576a12.4,12.4,0,0,1,1.312-2.363Q221.975,57.345,222.574,57.343Z"/><path d="M228.63,57.343a1.193,1.193,0,0,1,.947.338,1.223,1.223,0,0,1,.29.824,2.322,2.322,0,0,1-.881,1.651,6.733,6.733,0,0,1-1.913,1.275,4.4,4.4,0,0,1-1.65.449,2.739,2.739,0,0,0-.037.6q0,2.025,1.294,2.023a1.021,1.021,0,0,0,.319-.054,2.551,2.551,0,0,0,.328-.141,3.363,3.363,0,0,0,.319-.2c.105-.076.2-.151.29-.225s.175-.154.262-.234.156-.151.207-.207.1-.11.15-.16l.056-.075c.025,0,.069.051.131.151a.5.5,0,0,1,.094.224,5.741,5.741,0,0,1-1.19,1.266,2.655,2.655,0,0,1-1.66.76,1.805,1.805,0,0,1-1.528-.7,3.283,3.283,0,0,1-.535-2.016,5.67,5.67,0,0,1,1.529-3.8A4.289,4.289,0,0,1,228.63,57.343Zm-3.169,4.069a3.615,3.615,0,0,0,1.866-.8,2.212,2.212,0,0,0,1.152-1.744.67.67,0,0,0-.243-.553.836.836,0,0,0-.544-.2q-.863,0-1.5,1.172A5.7,5.7,0,0,0,225.461,61.412Zm2.25-5.325c-.025,0-.056-.025-.094-.074a.236.236,0,0,1-.056-.113,5.067,5.067,0,0,1,.8-1.031,9.881,9.881,0,0,1,.984-1.051,1.183,1.183,0,0,1,.694-.188.965.965,0,0,1,.487.141.456.456,0,0,1,.244.422c0,.164-.469.519-1.406,1.07A6.739,6.739,0,0,1,227.711,56.087Z"/></g><path d="M226.9,27.443q3.124,0,3.125,1.807v5.908a5.276,5.276,0,0,0-6.25,0V29.25Q223.77,27.444,226.9,27.443Z"/><g class="a"><path d="M236.055,57.343a1.176,1.176,0,0,1,.918.395.8.8,0,0,1,.169.525.94.94,0,0,1-.178.6.6.6,0,0,1-.5.224.724.724,0,0,1-.562-.281.441.441,0,0,0-.375-.15q-.525,0-1.435,1.566a9.407,9.407,0,0,0-1.172,2.99l-.412,2.288a3.5,3.5,0,0,1-.637.056,4.267,4.267,0,0,1-.694-.056l1.125-6.057a4.664,4.664,0,0,0,.074-.6q0-.468-.187-.468a.512.512,0,0,0-.234.076,1.39,1.39,0,0,0-.272.187c-.088.074-.182.162-.281.262s-.185.187-.254.262-.128.144-.178.207l-.094.093c-.025,0-.062-.046-.112-.14a.52.52,0,0,1-.075-.215,5.171,5.171,0,0,1,1.013-1.088,2.2,2.2,0,0,1,1.35-.676.635.635,0,0,1,.515.282,1.106,1.106,0,0,1,.216.693,7.454,7.454,0,0,1-.15.994q-.094.507-.319,1.576a12.4,12.4,0,0,1,1.312-2.363Q235.456,57.345,236.055,57.343Z"/><path d="M242.111,57.343a1.193,1.193,0,0,1,.947.338,1.223,1.223,0,0,1,.29.824,2.322,2.322,0,0,1-.881,1.651,6.733,6.733,0,0,1-1.913,1.275,4.4,4.4,0,0,1-1.65.449,2.739,2.739,0,0,0-.037.6q0,2.025,1.294,2.023a1.011,1.011,0,0,0,.318-.054,2.505,2.505,0,0,0,.329-.141,3.229,3.229,0,0,0,.318-.2q.159-.114.291-.225c.087-.076.175-.154.262-.234s.156-.151.207-.207.1-.11.15-.16l.056-.075c.025,0,.069.051.131.151a.5.5,0,0,1,.094.224,5.726,5.726,0,0,1-1.191,1.266,2.652,2.652,0,0,1-1.659.76,1.805,1.805,0,0,1-1.528-.7,3.283,3.283,0,0,1-.535-2.016,5.67,5.67,0,0,1,1.529-3.8A4.289,4.289,0,0,1,242.111,57.343Zm-3.169,4.069a3.615,3.615,0,0,0,1.866-.8,2.212,2.212,0,0,0,1.152-1.744.67.67,0,0,0-.243-.553.836.836,0,0,0-.544-.2q-.862,0-1.5,1.172A5.7,5.7,0,0,0,238.942,61.412Z"/></g><path d="M240.376,21.193q3.126,0,3.125,1.807v5.908a5.276,5.276,0,0,0-6.25,0V23Q237.251,21.194,240.376,21.193Z"/><g class="a"><path d="M255.853,57.138a2.055,2.055,0,0,1,2.034,1.022,8.129,8.129,0,0,1,.515,3.4v1.219a6.112,6.112,0,0,0,.151,1.764q.093.243,1.2.335a.559.559,0,0,1,.065.348.814.814,0,0,1-.065.348,24.94,24.94,0,0,0-2.569-.133,22.922,22.922,0,0,0-2.344.133.826.826,0,0,1-.066-.348.565.565,0,0,1,.066-.348c.575-.048.9-.162.975-.335a6.164,6.164,0,0,0,.15-1.764V61.3q0-2.644-1.256-2.644a1.948,1.948,0,0,0-1.1.375q-.554.375-.553.676v3.074a6.125,6.125,0,0,0,.15,1.764c.062.173.419.287,1.068.335a.557.557,0,0,1,.067.348.807.807,0,0,1-.067.348,23.685,23.685,0,0,0-2.437-.133,24.94,24.94,0,0,0-2.569.133.814.814,0,0,1-.065-.348.559.559,0,0,1,.065-.348q1.107-.093,1.2-.335a6.217,6.217,0,0,0,.149-1.764V60.625a4.2,4.2,0,0,0-.168-1.538c-.063-.125-.238-.218-.525-.281a3.413,3.413,0,0,0-.657-.094c-.037-.025-.056-.128-.056-.308s.025-.274.075-.274a9.485,9.485,0,0,0,2-.375,10.086,10.086,0,0,0,1.659-.617.331.331,0,0,1,.2.121.336.336,0,0,1,.122.2,5.122,5.122,0,0,0-.188,1.068.2.2,0,0,0,.019.113c.024,0,.068-.031.131-.093a4.53,4.53,0,0,1,1.228-.958A2.931,2.931,0,0,1,255.853,57.138Z"/><path d="M264.871,57.119A4.405,4.405,0,0,1,268.04,58.3a3.946,3.946,0,0,1,1.237,2.981,4.35,4.35,0,0,1-4.368,4.349,4.358,4.358,0,0,1-3.169-1.2,4.006,4.006,0,0,1-1.237-3,4.154,4.154,0,0,1,1.266-3.047A4.218,4.218,0,0,1,264.871,57.119Zm-.206.769a1.175,1.175,0,0,0-.807.282,1.591,1.591,0,0,0-.459.8,6.371,6.371,0,0,0-.187.994q-.047.469-.047,1.088a6.636,6.636,0,0,0,.5,2.615q.5,1.173,1.435,1.172,1.517,0,1.518-3.131a6.661,6.661,0,0,0-.507-2.634Q265.6,57.888,264.665,57.888Z"/></g><path d="M264.89,14.943q3.125,0,3.125,1.807v5.908a5.276,5.276,0,0,0-6.25,0V16.75Q261.765,14.944,264.89,14.943Z"/><g class="a"><path d="M273.834,65.63a6.06,6.06,0,0,1-1.387-.281,2.222,2.222,0,0,0-1.219-.111c-.038,0-.088-.057-.15-.17a.593.593,0,0,1-.094-.242,3.5,3.5,0,0,0,.225-1.389v-8.4a3.122,3.122,0,0,0-.094-.975q-.15-.337-1.143-.338c-.013,0-.022-.039-.029-.121a1.656,1.656,0,0,1,0-.244c.007-.08.022-.121.047-.121a8.6,8.6,0,0,0,2.663-.75c.05,0,.1.035.14.1a.364.364,0,0,1,.066.2,5.206,5.206,0,0,0-.206,1.633v3.693c0,.137.019.2.056.2a.153.153,0,0,0,.057-.018,7.694,7.694,0,0,1,1.087-.646,2.744,2.744,0,0,1,1.181-.367,2.99,2.99,0,0,1,2.5,1.211,4.225,4.225,0,0,1,.928,2.632,4.324,4.324,0,0,1-1.331,3.18A4.5,4.5,0,0,1,273.834,65.63Zm.3-7.236a2.177,2.177,0,0,0-.787.178,1.9,1.9,0,0,0-.6.328.284.284,0,0,0-.094.207v4.555a1.123,1.123,0,0,0,.544.957,2.065,2.065,0,0,0,1.2.375,2.167,2.167,0,0,0,1.745-.985,3.47,3.47,0,0,0,.75-2.146,3.937,3.937,0,0,0-.75-2.541A2.449,2.449,0,0,0,274.134,58.394Z"/><path d="M282.609,59.406v3.92a6.046,6.046,0,0,0,.094,1.386c.025.088.184.161.478.215a3.907,3.907,0,0,0,.7.086.528.528,0,0,1,.066.272.358.358,0,0,1-.066.271q-1.931-.093-2.006-.094t-1.988.094a.354.354,0,0,1-.065-.271.52.52,0,0,1,.065-.272,3.9,3.9,0,0,0,.7-.086c.294-.054.453-.127.479-.215a6.107,6.107,0,0,0,.094-1.386V59.837a3.138,3.138,0,0,0-.094-.974q-.132-.338-1.219-.338a.417.417,0,0,1-.047-.225.411.411,0,0,1,.047-.263,8.366,8.366,0,0,0,2.681-.787c.05,0,.1.037.141.113a.4.4,0,0,1,.065.187,10.951,10.951,0,0,0-.131,1.237Zm-1.528-4.36a.949.949,0,0,1,0-1.33.937.937,0,1,1,0,1.33Z"/><path d="M287.934,57.306a6.646,6.646,0,0,1,1.041.1c.419.068.709.115.872.14a11.385,11.385,0,0,1,.224,2.063c0,.062-.062.094-.187.094a.487.487,0,0,1-.319-.094,3.215,3.215,0,0,0-.6-1.182,1.233,1.233,0,0,0-.975-.543,1.373,1.373,0,0,0-.993.328,1.131,1.131,0,0,0-.338.852,1.225,1.225,0,0,0,.075.441,2.357,2.357,0,0,0,.15.328,1.056,1.056,0,0,0,.282.291c.137.106.243.184.318.235s.209.129.4.234.328.184.4.235q.036.017.431.252c.262.158.433.259.515.31s.225.156.431.318a2.06,2.06,0,0,1,.422.413,3.049,3.049,0,0,1,.234.441,1.344,1.344,0,0,1,.122.553,2.338,2.338,0,0,1-.862,1.847,3,3,0,0,1-2.025.741,5.16,5.16,0,0,1-.722-.047,7.8,7.8,0,0,1-.778-.16q-.45-.113-.694-.151a5.315,5.315,0,0,1-.215-.937,6.675,6.675,0,0,1-.1-1.012.557.557,0,0,1,.338-.113.3.3,0,0,1,.169.039,2.79,2.79,0,0,0,.759,1.219,1.769,1.769,0,0,0,1.266.562,1.356,1.356,0,0,0,.975-.357,1.306,1.306,0,0,0,.375-.995,1.513,1.513,0,0,0-.113-.6,1.268,1.268,0,0,0-.394-.486,4.889,4.889,0,0,0-.5-.358c-.144-.086-.36-.209-.647-.365s-.5-.272-.638-.348a2.361,2.361,0,0,1-1.425-2.006,2,2,0,0,1,.816-1.65A3.007,3.007,0,0,1,287.934,57.306Z"/><path d="M292.1,64.656a.96.96,0,0,1,.309-.713,1.027,1.027,0,0,1,.74-.3.986.986,0,0,1,.713.291.962.962,0,0,1,.3.721,1.021,1.021,0,0,1-.3.74.959.959,0,0,1-.713.311,1.019,1.019,0,0,1-.731-.311A.988.988,0,0,1,292.1,64.656Z"/></g><path d="M281.746,14.943q3.126,0,3.125,1.807v5.908a5.276,5.276,0,0,0-6.25,0V16.75Q278.621,14.944,281.746,14.943Z"/><path d="M287.964,12.563a1.5,1.5,0,0,1,1.093.43,1.417,1.417,0,0,1,.439,1.053,1.513,1.513,0,0,1-1.532,1.517,1.4,1.4,0,0,1-1.028-.447,1.469,1.469,0,0,1-.44-1.07,1.485,1.485,0,0,1,1.468-1.483Z"/><rect x="295.809" y="6.25" width="0.8" height="37.5"/><rect x="301.259" y="6.25" width="0.8" height="37.5"/></svg>