<svg xmlns="http://www.w3.org/2000/svg" viewBox="0 0 576 125.155"><defs><style>.a{fill:#fff;}.b{isolation:isolate;}.c{fill:red;}</style></defs><path d="M0,24.9V12.645A4.174,4.174,0,0,1,1.123,9.593a3.918,3.918,0,0,1,2.93-1.148,2.181,2.181,0,0,1,1.611.586,2.112,2.112,0,0,1,.586,1.563v6.738l-.391-.342a5.233,5.233,0,0,0-1.147-.708,3.71,3.71,0,0,0-1.636-.366,2.542,2.542,0,0,0-1.88.83,2.772,2.772,0,0,0-.8,2A2.852,2.852,0,0,0,1.2,20.774a2.507,2.507,0,0,0,1.88.855,3.928,3.928,0,0,0,1.636-.342A4.749,4.749,0,0,0,5.859,20.6l.391-.391V27a2.129,2.129,0,0,1-.586,1.538,2.128,2.128,0,0,1-1.611.61,3.875,3.875,0,0,1-2.93-1.171A4.262,4.262,0,0,1,0,24.9Z"/><path d="M63.139,21.193q3.124,0,3.125,1.807v5.908a4.256,4.256,0,0,0-3.125-1.025,4.253,4.253,0,0,0-3.125,1.025V23Q60.014,21.194,63.139,21.193Z"/><path d="M92.182,27.443q3.126,0,3.125,1.807v5.908a5.276,5.276,0,0,0-6.25,0V29.25Q89.057,27.444,92.182,27.443Z"/><path d="M120.568,14.943q3.124,0,3.125,1.807v5.908a5.276,5.276,0,0,0-6.25,0V16.75Q117.443,14.944,120.568,14.943Z"/><path d="M134.631,8.693q3.124,0,3.125,1.807v5.908a5.276,5.276,0,0,0-6.25,0V10.5Q131.506,8.694,134.631,8.693Z"/><path class="a" d="M134.636,9.84a2.8,2.8,0,0,1,1.747.426,1.2,1.2,0,0,1,.286,1.031v3.2a5.428,5.428,0,0,0-2.028-.375,7.383,7.383,0,0,0-2.038.292c0-1.2-.006-2.4,0-3.6a1.069,1.069,0,0,1,.913-.86A4.5,4.5,0,0,1,134.636,9.84Z"/><path d="M148.693,8.693q3.124,0,3.125,1.807v5.908a5.276,5.276,0,0,0-6.25,0V10.5Q145.568,8.694,148.693,8.693Z"/><path d="M154.91,11a1.5,1.5,0,0,1,1.094.43,1.42,1.42,0,0,1,.439,1.053A1.513,1.513,0,0,1,154.91,14a1.4,1.4,0,0,1-1.027-.447,1.469,1.469,0,0,1-.44-1.07A1.485,1.485,0,0,1,154.91,11Z"/><rect x="171.796" width="0.8" height="12.5"/><rect y="5.85" width="362.757" height="0.8"/><rect y="18.35" width="362.757" height="0.8"/><rect y="30.85" width="362.757" height="0.8"/><rect y="43.35" width="362.757" height="0.8"/><path d="M191.074,21.193q3.125,0,3.125,1.807v5.908a5.276,5.276,0,0,0-6.25,0V23Q187.949,21.194,191.074,21.193Z"/><path d="M217.383,14.943q3.124,0,3.125,1.807v5.908a5.276,5.276,0,0,0-6.25,0V16.75Q214.258,14.944,217.383,14.943Z"/><path d="M241.564,27.443q3.126,0,3.125,1.807v5.908a5.276,5.276,0,0,0-6.25,0V29.25Q238.439,27.444,241.564,27.443Z"/><path d="M265.3,33.693q3.124,0,3.125,1.807v5.908a5.276,5.276,0,0,0-6.25,0V35.5Q262.175,33.694,265.3,33.693Z"/><path d="M303.791,27.443q3.126,0,3.125,1.807v5.908a5.276,5.276,0,0,0-6.25,0V29.25Q300.666,27.444,303.791,27.443Z"/><path d="M325.907,33.693q3.125,0,3.125,1.807v5.908a5.276,5.276,0,0,0-6.25,0V35.5Q322.782,33.694,325.907,33.693Z"/><g class="b"><path d="M9.642,57.842a3.518,3.518,0,0,1-1.134,2.737,4.274,4.274,0,0,1-2.991,1.032,1.819,1.819,0,0,1-.806-.15.487.487,0,0,1-.263-.413c0-.074.031-.105.094-.094a3.086,3.086,0,0,0,.713.132,2.543,2.543,0,0,0,1.912-.778,2.966,2.966,0,0,0,.75-2.147,3.152,3.152,0,0,0-.787-2.269,3.043,3.043,0,0,0-2.307-.824c-.574,0-.887.062-.937.187a5.592,5.592,0,0,0-.094,1.406v7.987a6.063,6.063,0,0,0,.094,1.387c.025.087.2.16.525.215a4.713,4.713,0,0,0,.769.085.523.523,0,0,1,.065.272.364.364,0,0,1-.065.272q-1.912-.093-2.194-.094t-2.213.094a.355.355,0,0,1-.065-.272.523.523,0,0,1,.065-.272,4.713,4.713,0,0,0,.769-.085c.325-.055.5-.128.525-.215a6.124,6.124,0,0,0,.094-1.387V56.642a6.112,6.112,0,0,0-.094-1.387q-.038-.132-.525-.216a4.828,4.828,0,0,0-.769-.085.515.515,0,0,1-.065-.271.355.355,0,0,1,.065-.272q1.932.094,2.213.094.318,0,1.191-.019t1.471-.019a4.5,4.5,0,0,1,2.794.909A2.932,2.932,0,0,1,9.642,57.842Z"/><path d="M15.885,58.63a1.553,1.553,0,0,1,.685.159,1.046,1.046,0,0,1,.459.384,1.6,1.6,0,0,1,.075.507,1.088,1.088,0,0,1-.215.722.579.579,0,0,1-.4.253.586.586,0,0,1-.225-.047,1.551,1.551,0,0,1-.281-.169c-.112-.081-.175-.128-.187-.141a1.248,1.248,0,0,0-.694-.225,1.317,1.317,0,0,0-1.022.638,1.933,1.933,0,0,0-.478,1.05v2.887a6.147,6.147,0,0,0,.093,1.387c.025.087.247.16.666.215a7.648,7.648,0,0,0,.947.085.521.521,0,0,1,.066.272.359.359,0,0,1-.066.272q-1.912-.093-2.325-.094-.187,0-2.1.094a.359.359,0,0,1-.066-.272.531.531,0,0,1,.066-.272,3.88,3.88,0,0,0,.7-.085c.294-.055.453-.128.479-.215a6.147,6.147,0,0,0,.093-1.387V61.161a3.156,3.156,0,0,0-.093-.975q-.132-.337-1.219-.337a.415.415,0,0,1-.047-.226.408.408,0,0,1,.047-.262,8.39,8.39,0,0,0,2.681-.788c.05,0,.1.038.141.113a.4.4,0,0,1,.065.187A12.319,12.319,0,0,0,13.6,60.6c0,.074.025.087.075.037a4.711,4.711,0,0,1,.975-1.35A1.84,1.84,0,0,1,15.885,58.63Z"/><path d="M22.073,58.592a3.842,3.842,0,0,1,2.916,1.153,4.087,4.087,0,0,1,1.1,2.935,4.318,4.318,0,0,1-1.134,3.046,3.707,3.707,0,0,1-2.841,1.227,3.844,3.844,0,0,1-2.924-1.162,4.121,4.121,0,0,1-1.107-2.962A4.23,4.23,0,0,1,19.223,59.8,3.76,3.76,0,0,1,22.073,58.592Zm-.206.619a1.765,1.765,0,0,0-1.641.938,4.593,4.593,0,0,0-.534,2.3,5.139,5.139,0,0,0,.712,2.691,2.142,2.142,0,0,0,1.894,1.19,1.76,1.76,0,0,0,1.64-.937,4.546,4.546,0,0,0,.535-2.287,5.213,5.213,0,0,0-.712-2.691A2.143,2.143,0,0,0,21.867,59.211Z"/></g><g class="b"><path d="M32.367,58.611a2.921,2.921,0,0,1,2.494,1.228,4.372,4.372,0,0,1,.9,2.635,4.286,4.286,0,0,1-1.378,3.14,4.219,4.219,0,0,1-3.009,1.359,4.345,4.345,0,0,1-1.313-.207.376.376,0,0,0-.075.244v1.818a6.062,6.062,0,0,0,.094,1.388c.024.088.184.159.478.216a3.873,3.873,0,0,0,.7.084.528.528,0,0,1,.066.272.359.359,0,0,1-.066.272q-1.932-.095-2.006-.094t-1.988.094a.355.355,0,0,1-.065-.272.51.51,0,0,1,.065-.272,3.873,3.873,0,0,0,.7-.084c.294-.057.453-.128.478-.216a6.062,6.062,0,0,0,.094-1.388V61.161a3.114,3.114,0,0,0-.094-.975q-.13-.337-1.219-.337a.439.439,0,0,1-.046-.226.416.416,0,0,1,.046-.262,8.389,8.389,0,0,0,2.682-.788c.05,0,.1.038.141.113a.4.4,0,0,1,.065.187c0,.013-.022.129-.065.347a2.894,2.894,0,0,0-.066.422c0,.051.012.075.037.075s.032-.012.057-.037a6.292,6.292,0,0,1,1.115-.722A2.615,2.615,0,0,1,32.367,58.611Zm-.806,1.106a2.312,2.312,0,0,0-1.06.263q-.515.263-.515.468v4.5a1.126,1.126,0,0,0,.572,1.012,2.186,2.186,0,0,0,1.171.357,2.081,2.081,0,0,0,1.782-.966,3.722,3.722,0,0,0,.675-2.184,3.89,3.89,0,0,0-.75-2.531A2.327,2.327,0,0,0,31.561,59.717Z"/><path d="M39.885,60.73v3.918a6.124,6.124,0,0,0,.094,1.387c.025.087.185.16.479.215a3.87,3.87,0,0,0,.7.085.523.523,0,0,1,.065.272.364.364,0,0,1-.065.272q-1.932-.093-2.007-.094t-1.987.094a.359.359,0,0,1-.066-.272.511.511,0,0,1,.066-.272,3.89,3.89,0,0,0,.7-.085c.294-.055.453-.128.478-.215a6.124,6.124,0,0,0,.094-1.387V61.161a3.146,3.146,0,0,0-.094-.975q-.132-.337-1.219-.337a.667.667,0,0,1,0-.488,8.4,8.4,0,0,0,2.682-.788c.049,0,.1.038.14.113a.393.393,0,0,1,.066.187,10.8,10.8,0,0,0-.132,1.238Zm.507-6.169q.675,0,.675.544,0,.393-1.313,1.425a6.107,6.107,0,0,1-1.519,1.031q-.168,0-.168-.243a7.649,7.649,0,0,1,.684-1.06q.684-.984,1.134-1.547A.7.7,0,0,1,40.392,54.561Z"/></g><g class="b"><path d="M42.886,61.93q3.9-.207,4.519-.226c.087,0,.131.057.131.169a2.4,2.4,0,0,1-.244,1.013q-.375.02-4.519.206c-.087,0-.131-.068-.131-.206A2.293,2.293,0,0,1,42.886,61.93Z"/></g><g class="b"><path d="M57.593,59.079l.206-1.105q.225-.282.676-.76c.3-.318.481-.478.543-.478a.522.522,0,0,1,.319.113l-.413,2.23h1.407c.062,0,.093.076.093.226a.9.9,0,0,1-.168.469H58.793L57.8,64.835a3.3,3.3,0,0,0-.074.6c0,.312.062.469.187.469a.516.516,0,0,0,.234-.076,1.435,1.435,0,0,0,.272-.187c.087-.074.181-.162.281-.262s.185-.187.254-.263.134-.143.2-.206l.076-.093c.025,0,.062.047.112.14a.516.516,0,0,1,.075.215,4.786,4.786,0,0,1-1.05,1.078,2.4,2.4,0,0,1-1.406.685.526.526,0,0,1-.469-.272,1.321,1.321,0,0,1-.169-.7,6.2,6.2,0,0,1,.131-.994l1.013-5.192H56.206c-.025,0-.038-.019-.038-.057q0-.168.281-.4a.9.9,0,0,1,.582-.235Z"/><path d="M62.693,60.767a4.582,4.582,0,0,0,.075-.6c0-.312-.062-.469-.187-.469a.532.532,0,0,0-.235.076,1.467,1.467,0,0,0-.272.187c-.087.075-.181.162-.281.263s-.185.187-.253.262-.128.144-.178.207l-.094.093c-.025,0-.062-.046-.112-.14a.5.5,0,0,1-.075-.216,5.212,5.212,0,0,1,1.012-1.088,2.206,2.206,0,0,1,1.35-.675.634.634,0,0,1,.515.281,1.107,1.107,0,0,1,.216.694,6.187,6.187,0,0,1-.131.994l-.956,4.2a3.227,3.227,0,0,0-.075.6c0,.312.062.469.187.469a.519.519,0,0,0,.235-.076,1.5,1.5,0,0,0,.272-.187c.087-.074.181-.162.281-.262s.184-.187.253-.263.134-.143.2-.206l.075-.093c.025,0,.062.047.112.14a.516.516,0,0,1,.075.215,4.786,4.786,0,0,1-1.05,1.078,2.4,2.4,0,0,1-1.406.685.527.527,0,0,1-.469-.272,1.321,1.321,0,0,1-.169-.7,6.117,6.117,0,0,1,.132-.994Zm1.069-6.056a.613.613,0,0,1,.478.225.774.774,0,0,1,.2.525,1.166,1.166,0,0,1-.291.787.912.912,0,0,1-.722.338.544.544,0,0,1-.468-.234.949.949,0,0,1-.169-.572,1.093,1.093,0,0,1,.281-.75A.891.891,0,0,1,63.762,54.711Z"/></g><g class="b"><path d="M66.855,61.93q3.9-.207,4.52-.226c.087,0,.131.057.131.169a2.41,2.41,0,0,1-.244,1.013q-.375.02-4.519.206c-.087,0-.131-.068-.131-.206A2.306,2.306,0,0,1,66.855,61.93Z"/></g><g class="b"><path d="M92.984,64.966c.037-.187.072-.365.1-.534s.072-.357.122-.563.087-.384.112-.534a9.216,9.216,0,0,1-1.687,2.287,3.339,3.339,0,0,1-2.081,1.313q-.939,0-.938-1.35a10.463,10.463,0,0,1,.262-1.931l.619-2.887a4.582,4.582,0,0,0,.075-.6c0-.312-.062-.469-.187-.469a.532.532,0,0,0-.235.076,1.5,1.5,0,0,0-.272.187c-.087.075-.181.162-.281.263s-.184.187-.253.262-.135.144-.2.207l-.075.093c-.025,0-.062-.046-.112-.14a.519.519,0,0,1-.075-.216A5.212,5.212,0,0,1,88.9,59.342a2.208,2.208,0,0,1,1.35-.675.637.637,0,0,1,.516.281,1.113,1.113,0,0,1,.216.694,6.1,6.1,0,0,1-.132.994l-.656,3.093a4.7,4.7,0,0,0-.131,1.012c0,.538.118.806.356.806s.591-.222,1.06-.665a8.7,8.7,0,0,0,1.4-1.809,6.739,6.739,0,0,0,.9-2.231q.057-.338.2-.984t.216-1.078a1.983,1.983,0,0,1,.581-.076,3.056,3.056,0,0,1,.731.076l-1.162,6.055a3.227,3.227,0,0,0-.075.6c0,.312.062.469.187.469a.519.519,0,0,0,.235-.076,1.5,1.5,0,0,0,.272-.187c.087-.074.181-.162.281-.262s.184-.187.253-.263.134-.143.2-.206l.075-.093c.025,0,.062.047.112.14a.516.516,0,0,1,.075.215A4.786,4.786,0,0,1,94.9,66.25a2.4,2.4,0,0,1-1.406.685.527.527,0,0,1-.469-.272,1.321,1.321,0,0,1-.168-.7A6.084,6.084,0,0,1,92.984,64.966Z"/><path d="M100.446,58.611a2.377,2.377,0,0,1,1.612.506,1.007,1.007,0,0,1,.188.6.848.848,0,0,1-.179.544.559.559,0,0,1-.459.225c-.275,0-.569-.218-.881-.657a.509.509,0,0,1-.066-.093l-.065-.1c-.013-.018-.035-.047-.066-.085s-.056-.065-.075-.084-.047-.044-.084-.075a.458.458,0,0,0-.1-.066c-.032-.012-.069-.025-.113-.037a.977.977,0,0,0-.141-.028,1.224,1.224,0,0,0-.168-.01.776.776,0,0,0-.685.347,1.246,1.246,0,0,0-.234.7,1.586,1.586,0,0,0,.056.413,1.429,1.429,0,0,0,.225.441q.169.234.253.346c.057.075.178.213.366.413s.3.326.338.375a3.856,3.856,0,0,1,1.143,2.343,2.072,2.072,0,0,1-.759,1.668,2.942,2.942,0,0,1-1.96.638,2.448,2.448,0,0,1-1.65-.563,1.14,1.14,0,0,1-.187-.562.939.939,0,0,1,.2-.628.622.622,0,0,1,.5-.234.427.427,0,0,1,.281.093,1.843,1.843,0,0,1,.3.394c.125.2.2.319.225.356a1.182,1.182,0,0,0,.994.544.761.761,0,0,0,.712-.346,1.345,1.345,0,0,0,.028-1.388,2.992,2.992,0,0,0-.3-.5q-.121-.15-.5-.581-.45-.506-.665-.778a3.962,3.962,0,0,1-.45-.768,2.321,2.321,0,0,1-.235-1,2.258,2.258,0,0,1,.75-1.613A2.526,2.526,0,0,1,100.446,58.611Z"/></g><g class="b"><path d="M119.223,62.286a4.036,4.036,0,0,0,.281,1.583,2.185,2.185,0,0,0,.722.975,3.175,3.175,0,0,0,.843.441,2.525,2.525,0,0,0,.779.131,2.748,2.748,0,0,0,2.1-.937c.15.037.224.15.224.338a.691.691,0,0,1-.056.355,4.48,4.48,0,0,1-1.3,1.2,3.679,3.679,0,0,1-2.09.619,3.939,3.939,0,0,1-2.794-1.069,3.711,3.711,0,0,1-1.144-2.849,4.687,4.687,0,0,1,1.275-3.206,3.8,3.8,0,0,1,2.888-1.424,3.141,3.141,0,0,1,2.465.909,2.846,2.846,0,0,1,.816,1.922.96.96,0,0,1-.15.544.485.485,0,0,1-.356.243Q122.036,62.211,119.223,62.286Zm.018-.75a11.072,11.072,0,0,0,1.107-.046q.975-.066,1.312-.1c.162-.013.244-.112.244-.3a2.9,2.9,0,0,0-.281-1.312.916.916,0,0,0-.863-.563,1.078,1.078,0,0,0-.872.469,2.838,2.838,0,0,0-.506.966A3.3,3.3,0,0,0,119.241,61.536Z"/><path d="M129.01,58.423a5.745,5.745,0,0,1,.74.047,6.368,6.368,0,0,1,.8.169c.3.082.488.129.562.141a12.072,12.072,0,0,1,.394,2.306c0,.087-.112.131-.337.131a.721.721,0,0,1-.356-.149q-.413-1.894-1.988-1.895a1.117,1.117,0,0,0-.778.263.96.96,0,0,0-.291.75,1.152,1.152,0,0,0,.1.5,1.074,1.074,0,0,0,.347.393,4.741,4.741,0,0,0,.422.282,5.669,5.669,0,0,0,.544.262c.244.107.409.185.5.235a5.87,5.87,0,0,1,1.462.937,2.277,2.277,0,0,1,.563,1.593,2.13,2.13,0,0,1-1.041,1.95,5.006,5.006,0,0,1-2.653.638,11.738,11.738,0,0,1-2.194-.395,15.1,15.1,0,0,1-.15-2.437c0-.087.094-.131.282-.131a.416.416,0,0,1,.412.188,2.359,2.359,0,0,0,.75,1.565,2.007,2.007,0,0,0,1.275.46,1.041,1.041,0,0,0,.769-.3.971.971,0,0,0,.3-.712.942.942,0,0,0-.207-.6,1.82,1.82,0,0,0-.4-.394,5.978,5.978,0,0,0-.676-.356c-.318-.15-.534-.256-.646-.319a5.431,5.431,0,0,1-1.482-1.087,2.076,2.076,0,0,1-.506-1.443,2.122,2.122,0,0,1,1.087-1.932A4.562,4.562,0,0,1,129.01,58.423Z"/></g><g class="b"><path d="M133.438,61.935q3.108-.207,3.6-.226c.069,0,.1.057.1.169a2.926,2.926,0,0,1-.194,1.013q-.3.02-3.6.206c-.07,0-.105-.068-.105-.206A2.769,2.769,0,0,1,133.438,61.935Z"/></g><g class="b"><path d="M141.02,58.724h2.418c.062,0,.094.068.094.206a.789.789,0,0,1-.262.562h-2.25V64.4q0,1.538,1.237,1.538a2.071,2.071,0,0,0,1.219-.432.146.146,0,0,1,.056.131.4.4,0,0,1-.075.281,2.571,2.571,0,0,1-1.931,1.031q-1.95,0-1.95-2.024V59.492h-1.088c-.062,0-.093-.056-.093-.169,0-.075.162-.274.487-.6h.694V57.542c.1-.112.243-.271.431-.478s.35-.384.488-.534.212-.232.225-.244a.231.231,0,0,1,.112-.056.322.322,0,0,1,.131-.01c.038.007.057.022.057.047Z"/><path d="M148.613,58.592a3.838,3.838,0,0,1,2.915,1.153,4.088,4.088,0,0,1,1.1,2.935,4.322,4.322,0,0,1-1.134,3.046,3.708,3.708,0,0,1-2.841,1.227,3.844,3.844,0,0,1-2.924-1.162,4.121,4.121,0,0,1-1.107-2.962,4.23,4.23,0,0,1,1.144-3.027A3.758,3.758,0,0,1,148.613,58.592Zm-.207.619a1.763,1.763,0,0,0-1.64.938,4.593,4.593,0,0,0-.534,2.3,5.139,5.139,0,0,0,.712,2.691,2.14,2.14,0,0,0,1.893,1.19,1.763,1.763,0,0,0,1.641-.937,4.557,4.557,0,0,0,.535-2.287,5.2,5.2,0,0,0-.713-2.691A2.14,2.14,0,0,0,148.406,59.211Z"/><path d="M155.381,64.516a.946.946,0,0,1,.488.132,2.564,2.564,0,0,1,.338,1.312,3.793,3.793,0,0,1-.741,1.931,4.427,4.427,0,0,1-1.472,1.538c-.063,0-.125-.05-.187-.15a.5.5,0,0,1-.094-.244,2.558,2.558,0,0,0,1.181-2.082,1.3,1.3,0,0,0-.31-.721,1.372,1.372,0,0,1-.309-.8.856.856,0,0,1,.319-.618A1.1,1.1,0,0,1,155.381,64.516Z"/></g><g class="b"><path class="c" d="M169.808,55.329a1.061,1.061,0,0,1,.534-.355.526.526,0,0,1,.516.131.592.592,0,0,1,.187.515.879.879,0,0,1-.3.535,4.975,4.975,0,0,1-.947.627,4.446,4.446,0,0,0-.872.573l-.094.262c.012.087.075.15.188.188a3.668,3.668,0,0,0,.937.263,4.761,4.761,0,0,1,1.069.3,1.149,1.149,0,0,1,.506.4.48.48,0,0,1,.037.515.564.564,0,0,1-.431.337.869.869,0,0,1-.6-.112,4.44,4.44,0,0,1-.909-.7,4.507,4.507,0,0,0-.8-.647l-.263-.056c-.049.025-.087.106-.112.244a4.352,4.352,0,0,0,.047.974,4.525,4.525,0,0,1,.028,1.107,1.045,1.045,0,0,1-.234.6.515.515,0,0,1-.479.187.576.576,0,0,1-.449-.29.83.83,0,0,1-.076-.609,4.607,4.607,0,0,1,.4-1.1,3.849,3.849,0,0,0,.365-.965.286.286,0,0,0-.056-.244.227.227,0,0,0-.244-.057,4.851,4.851,0,0,0-.9.357,4.418,4.418,0,0,1-1.069.375,1.122,1.122,0,0,1-.647-.037.474.474,0,0,1-.328-.394.581.581,0,0,1,.151-.525.846.846,0,0,1,.562-.263,4.685,4.685,0,0,1,1.153.038,4.519,4.519,0,0,0,1.022.056.306.306,0,0,0,.206-.15.259.259,0,0,0-.037-.262,5.264,5.264,0,0,0-.609-.76,5.311,5.311,0,0,1-.685-.891q-.412-.75.112-1.05.6-.3.957.432a5.125,5.125,0,0,1,.309,1.106,4.277,4.277,0,0,0,.272.994c.062.125.125.194.187.206a.291.291,0,0,0,.244-.113,4,4,0,0,0,.525-.815A4.6,4.6,0,0,1,169.808,55.329Z"/></g><g class="b"><path d="M182.837,58.611a2.921,2.921,0,0,1,2.494,1.228,4.372,4.372,0,0,1,.9,2.635,4.286,4.286,0,0,1-1.378,3.14,4.219,4.219,0,0,1-3.009,1.359,4.345,4.345,0,0,1-1.313-.207.376.376,0,0,0-.075.244v1.818a6.062,6.062,0,0,0,.094,1.388c.025.088.184.159.478.216a3.873,3.873,0,0,0,.7.084.509.509,0,0,1,.066.272.359.359,0,0,1-.066.272q-1.932-.095-2.006-.094t-1.988.094a.364.364,0,0,1-.065-.272.52.52,0,0,1,.065-.272,3.873,3.873,0,0,0,.7-.084c.294-.057.454-.128.478-.216a6.062,6.062,0,0,0,.094-1.388V61.161a3.114,3.114,0,0,0-.094-.975q-.131-.337-1.218-.337a.425.425,0,0,1-.047-.226.415.415,0,0,1,.047-.262,8.39,8.39,0,0,0,2.681-.788c.05,0,.1.038.141.113a.4.4,0,0,1,.065.187c0,.013-.022.129-.065.347a2.894,2.894,0,0,0-.066.422c0,.051.012.075.038.075s.031-.012.056-.037a6.3,6.3,0,0,1,1.116-.722A2.607,2.607,0,0,1,182.837,58.611Zm-.806,1.106a2.3,2.3,0,0,0-1.059.263q-.516.263-.516.468v4.5a1.126,1.126,0,0,0,.572,1.012,2.187,2.187,0,0,0,1.172.357,2.079,2.079,0,0,0,1.781-.966,3.722,3.722,0,0,0,.675-2.184,3.89,3.89,0,0,0-.75-2.531A2.327,2.327,0,0,0,182.031,59.717Z"/><path d="M191.48,58.649a1.817,1.817,0,0,1,1.426.75,2.766,2.766,0,0,1,.618,1.818v3.861q0,.882.581.882a1.231,1.231,0,0,0,.62-.244c.049,0,.074.05.074.15a.666.666,0,0,1-.093.357,3.622,3.622,0,0,1-.685.459,1.651,1.651,0,0,1-.722.253.951.951,0,0,1-.721-.375,1.792,1.792,0,0,1-.422-.844,6.605,6.605,0,0,1-1.069.76,2.706,2.706,0,0,1-1.237.5,2.144,2.144,0,0,1-1.566-.619,2.069,2.069,0,0,1-.628-1.537,1.615,1.615,0,0,1,.29-.957,1.4,1.4,0,0,1,.647-.543q3.188-1.143,3.282-1.181a.307.307,0,0,0,.187-.141.936.936,0,0,0,.038-.328v-.506a1.883,1.883,0,0,0-.479-1.228,1.438,1.438,0,0,0-1.134-.572.822.822,0,0,0-.694.291,2.078,2.078,0,0,0-.337.872c-.1.6-.394.9-.882.9a.546.546,0,0,1-.459-.243.9.9,0,0,1-.178-.544.708.708,0,0,1,.131-.45,6.905,6.905,0,0,1,1.537-1.04A4.055,4.055,0,0,1,191.48,58.649Zm-1.012,7.311a2.363,2.363,0,0,0,1.041-.3c.393-.2.591-.356.591-.468v-2.55q-1.444.432-1.745.544a1.531,1.531,0,0,0-1.143,1.462,1.31,1.31,0,0,0,.366.919A1.172,1.172,0,0,0,190.468,65.96Z"/><path d="M200.724,58.63a1.556,1.556,0,0,1,.685.159,1.046,1.046,0,0,1,.459.384,1.6,1.6,0,0,1,.075.507,1.088,1.088,0,0,1-.215.722.478.478,0,0,1-.629.206,1.518,1.518,0,0,1-.281-.169c-.112-.081-.175-.128-.188-.141a1.243,1.243,0,0,0-.693-.225,1.316,1.316,0,0,0-1.022.638,1.933,1.933,0,0,0-.478,1.05v2.887a6.147,6.147,0,0,0,.093,1.387c.025.087.247.16.666.215a7.648,7.648,0,0,0,.947.085.513.513,0,0,1,.065.272.355.355,0,0,1-.065.272q-1.912-.093-2.325-.094-.187,0-2.1.094a.359.359,0,0,1-.066-.272.531.531,0,0,1,.066-.272,3.89,3.89,0,0,0,.7-.085c.294-.055.453-.128.478-.215a6.124,6.124,0,0,0,.094-1.387V61.161a3.146,3.146,0,0,0-.094-.975c-.087-.225-.494-.337-1.218-.337a.415.415,0,0,1-.047-.226.408.408,0,0,1,.047-.262,8.39,8.39,0,0,0,2.681-.788c.05,0,.1.038.14.113a.393.393,0,0,1,.066.187,12.169,12.169,0,0,0-.131,1.726c0,.074.024.087.075.037a4.711,4.711,0,0,1,.975-1.35A1.838,1.838,0,0,1,200.724,58.63Z"/></g><g class="b"><path d="M202.81,61.935q1.737-.207,2.012-.226c.039,0,.059.057.059.169a4.96,4.96,0,0,1-.109,1.013q-.166.02-2.012.206c-.039,0-.059-.068-.059-.206A4.709,4.709,0,0,1,202.81,61.935Z"/></g><g class="b"><path d="M212.513,59.586a.941.941,0,0,1-.216.685.665.665,0,0,1-.872.094,3.314,3.314,0,0,1-.4-.32,2.345,2.345,0,0,0-.31-.253,1.887,1.887,0,0,0-1.068-.356,1.821,1.821,0,0,0-1.453.872,3.69,3.69,0,0,0-.647,2.26,3.109,3.109,0,0,0,.844,2.37,3.06,3.06,0,0,0,2.194.8,2.539,2.539,0,0,0,1.987-.956.077.077,0,0,1,.047.028.471.471,0,0,1,.065.094.278.278,0,0,1,.038.14.672.672,0,0,1-.113.338,3.841,3.841,0,0,1-1.059,1.087,2.793,2.793,0,0,1-1.678.507,3.572,3.572,0,0,1-2.719-1.135,3.745,3.745,0,0,1-1.068-2.652,4.192,4.192,0,0,1,1.48-3.253,4.594,4.594,0,0,1,3.076-1.322,2.979,2.979,0,0,1,1.687.45A.71.71,0,0,1,212.513,59.586Z"/><path d="M215.362,62.173v.132a3.53,3.53,0,0,0,.881,2.559,2.911,2.911,0,0,0,2.175.909,2.322,2.322,0,0,0,1.219-.328,3.639,3.639,0,0,0,.844-.666.077.077,0,0,1,.047.028.471.471,0,0,1,.065.094.278.278,0,0,1,.038.14.672.672,0,0,1-.113.338,3.841,3.841,0,0,1-1.059,1.087,2.793,2.793,0,0,1-1.678.507,3.542,3.542,0,0,1-2.7-1.116,3.9,3.9,0,0,1-1.05-2.784,4.544,4.544,0,0,1,1.19-3.13,3.391,3.391,0,0,1,2.5-1.332,3.166,3.166,0,0,1,1.378.281,2.1,2.1,0,0,1,.881.723,3.665,3.665,0,0,1,.422.824,2.256,2.256,0,0,1,.131.722q0,.862-.45.881Q218.044,62.174,215.362,62.173Zm.094-.693h3.056a.382.382,0,0,0,.431-.432,2.118,2.118,0,0,0-.394-1.162,1.282,1.282,0,0,0-1.143-.6,1.528,1.528,0,0,0-1.181.543,2.968,2.968,0,0,0-.657,1.1C215.456,61.3,215.418,61.48,215.456,61.48Z"/></g><g class="b"><path d="M232.785,58.611a1.993,1.993,0,0,1,1.931.9,6.952,6.952,0,0,1,.487,3.075v2.062a6.063,6.063,0,0,0,.094,1.387c.025.087.184.16.478.215a3.88,3.88,0,0,0,.7.085.523.523,0,0,1,.065.272.355.355,0,0,1-.065.272q-1.93-.093-2.006-.094t-1.988.094a.364.364,0,0,1-.065-.272.523.523,0,0,1,.065-.272,3.889,3.889,0,0,0,.7-.085c.293-.055.453-.128.478-.215a6.124,6.124,0,0,0,.094-1.387V62.774a5.386,5.386,0,0,0-.375-2.419,1.538,1.538,0,0,0-1.463-.657,2.161,2.161,0,0,0-1.125.432q-.657.431-.656.6v3.918a6.147,6.147,0,0,0,.093,1.387c.025.087.185.16.479.215a3.88,3.88,0,0,0,.7.085.523.523,0,0,1,.065.272.355.355,0,0,1-.065.272q-1.932-.093-2.006-.094t-1.988.094a.359.359,0,0,1-.066-.272.531.531,0,0,1,.066-.272,3.88,3.88,0,0,0,.7-.085c.294-.055.453-.128.479-.215a6.147,6.147,0,0,0,.093-1.387V61.236a3.539,3.539,0,0,0-.093-1.05q-.132-.337-1.219-.337a.415.415,0,0,1-.047-.226.408.408,0,0,1,.047-.262,8.39,8.39,0,0,0,2.681-.788c.05,0,.1.038.141.113a.4.4,0,0,1,.065.187,9.236,9.236,0,0,0-.112,1.07c0,.049.012.074.037.074s.031-.012.056-.037a5.394,5.394,0,0,1,1.153-.891A2.729,2.729,0,0,1,232.785,58.611Z"/><path d="M241.484,58.592a3.842,3.842,0,0,1,2.916,1.153,4.088,4.088,0,0,1,1.1,2.935,4.319,4.319,0,0,1-1.135,3.046,3.707,3.707,0,0,1-2.841,1.227,3.844,3.844,0,0,1-2.924-1.162,4.121,4.121,0,0,1-1.107-2.962,4.234,4.234,0,0,1,1.144-3.027A3.76,3.76,0,0,1,241.484,58.592Zm-.206.619a1.765,1.765,0,0,0-1.641.938,4.593,4.593,0,0,0-.534,2.3,5.139,5.139,0,0,0,.712,2.691,2.143,2.143,0,0,0,1.894,1.19,1.763,1.763,0,0,0,1.641-.937,4.557,4.557,0,0,0,.534-2.287,5.213,5.213,0,0,0-.712-2.691A2.143,2.143,0,0,0,241.278,59.211Z"/></g><g class="b"><path d="M247.6,61.93q3.9-.207,4.519-.226c.087,0,.131.057.131.169A2.4,2.4,0,0,1,252,62.886q-.375.02-4.519.206c-.087,0-.131-.068-.131-.206A2.293,2.293,0,0,1,247.6,61.93Z"/></g><g class="b"><path d="M257.316,66.953a6.065,6.065,0,0,1-1.386-.281,2.235,2.235,0,0,0-1.219-.112c-.038,0-.088-.056-.15-.169a.6.6,0,0,1-.094-.243,3.493,3.493,0,0,0,.224-1.388v-8.4a3.161,3.161,0,0,0-.093-.975q-.15-.337-1.144-.338c-.013,0-.021-.04-.028-.121a1.656,1.656,0,0,1,0-.244c.007-.081.022-.122.047-.122a8.543,8.543,0,0,0,2.663-.75c.05,0,.1.035.14.1a.367.367,0,0,1,.066.2,5.167,5.167,0,0,0-.206,1.631v3.694c0,.137.018.206.055.206a.137.137,0,0,0,.057-.019,7.813,7.813,0,0,1,1.088-.646,2.737,2.737,0,0,1,1.181-.366,2.991,2.991,0,0,1,2.5,1.21,4.23,4.23,0,0,1,.928,2.633,4.32,4.32,0,0,1-1.331,3.178A4.5,4.5,0,0,1,257.316,66.953Zm.3-7.236a2.189,2.189,0,0,0-.788.179,1.862,1.862,0,0,0-.6.328.286.286,0,0,0-.093.206v4.555a1.122,1.122,0,0,0,.544.957,2.062,2.062,0,0,0,1.2.375,2.164,2.164,0,0,0,1.744-.985,3.466,3.466,0,0,0,.75-2.146,3.928,3.928,0,0,0-.75-2.54A2.448,2.448,0,0,0,257.617,59.717Z"/><path d="M266.091,60.73v3.918a6.063,6.063,0,0,0,.094,1.387c.025.087.184.16.478.215a3.89,3.89,0,0,0,.7.085.521.521,0,0,1,.066.272.359.359,0,0,1-.066.272q-1.93-.093-2.006-.094t-1.988.094a.359.359,0,0,1-.065-.272.523.523,0,0,1,.065-.272,3.87,3.87,0,0,0,.7-.085c.294-.055.453-.128.479-.215a6.147,6.147,0,0,0,.093-1.387V61.161a3.156,3.156,0,0,0-.093-.975q-.132-.337-1.219-.337a.425.425,0,0,1-.047-.226.415.415,0,0,1,.047-.262,8.4,8.4,0,0,0,2.682-.788c.049,0,.1.038.14.113a.4.4,0,0,1,.066.187,10.8,10.8,0,0,0-.132,1.238Zm-1.528-4.36a.951.951,0,1,1,.666.272A.9.9,0,0,1,264.563,56.37Z"/><path d="M271.416,58.63a6.628,6.628,0,0,1,1.041.1c.419.069.709.116.872.14a11.466,11.466,0,0,1,.225,2.063c0,.062-.063.094-.188.094a.484.484,0,0,1-.318-.094,3.206,3.206,0,0,0-.6-1.181,1.234,1.234,0,0,0-.974-.544,1.374,1.374,0,0,0-.994.328,1.137,1.137,0,0,0-.337.853,1.233,1.233,0,0,0,.074.441,2.412,2.412,0,0,0,.15.328,1.078,1.078,0,0,0,.281.29c.138.107.245.185.319.235s.21.129.4.234.328.185.4.235c.026.012.169.1.432.252l.516.31q.121.075.43.319a2.011,2.011,0,0,1,.422.412,3.025,3.025,0,0,1,.235.44,1.349,1.349,0,0,1,.122.554,2.336,2.336,0,0,1-.863,1.846,3.01,3.01,0,0,1-2.025.741,5.16,5.16,0,0,1-.722-.047c-.218-.032-.478-.084-.778-.159s-.531-.125-.693-.151a5.122,5.122,0,0,1-.216-.937,6.687,6.687,0,0,1-.1-1.012.552.552,0,0,1,.338-.113.3.3,0,0,1,.169.038,2.787,2.787,0,0,0,.759,1.218,1.773,1.773,0,0,0,1.266.563,1.359,1.359,0,0,0,.975-.356,1.307,1.307,0,0,0,.375-.995,1.527,1.527,0,0,0-.112-.6,1.283,1.283,0,0,0-.395-.488,4.879,4.879,0,0,0-.5-.356c-.144-.087-.359-.209-.647-.365s-.5-.272-.638-.347a2.364,2.364,0,0,1-1.425-2.006,2,2,0,0,1,.816-1.65A3,3,0,0,1,271.416,58.63Z"/><path d="M276.666,64.516a.946.946,0,0,1,.488.132,2.563,2.563,0,0,1,.337,1.312,3.79,3.79,0,0,1-.74,1.931,4.418,4.418,0,0,1-1.472,1.538c-.063,0-.125-.05-.187-.15a.487.487,0,0,1-.094-.244,2.558,2.558,0,0,0,1.181-2.082,1.3,1.3,0,0,0-.31-.721,1.371,1.371,0,0,1-.308-.8.854.854,0,0,1,.318-.618A1.1,1.1,0,0,1,276.666,64.516Z"/></g><g class="b"><path d="M291.411,54.486a6.648,6.648,0,0,1,4.8,1.707,5.782,5.782,0,0,1,1.781,4.368,7.719,7.719,0,0,1-.338,2.344,6.16,6.16,0,0,1-1.078,2,4.823,4.823,0,0,1-2.118,1.453,9.267,9.267,0,0,1-3.29.525H286.48a.355.355,0,0,1-.065-.272.513.513,0,0,1,.065-.272,4.713,4.713,0,0,0,.769-.085c.325-.055.5-.128.525-.215a6.124,6.124,0,0,0,.094-1.387V56.642a6.112,6.112,0,0,0-.094-1.387q-.037-.132-.525-.216a4.828,4.828,0,0,0-.769-.085.506.506,0,0,1-.065-.271.355.355,0,0,1,.065-.272q1.932.094,2.212.094.357,0,1.323-.01C290.658,54.49,291.124,54.486,291.411,54.486Zm-1.893,2.194v7.986a3.886,3.886,0,0,0,.112,1.35q.188.264,1.538.263a4.927,4.927,0,0,0,3.553-1.36,5.244,5.244,0,0,0,1.415-3.965,7.755,7.755,0,0,0-.431-2.7,4.558,4.558,0,0,0-1.181-1.838,5.012,5.012,0,0,0-1.66-1,5.745,5.745,0,0,0-1.959-.328q-1.237,0-1.294.206A6.152,6.152,0,0,0,289.518,56.68Z"/><path d="M303.711,58.592a3.84,3.84,0,0,1,2.916,1.153,4.092,4.092,0,0,1,1.1,2.935,4.319,4.319,0,0,1-1.135,3.046,3.707,3.707,0,0,1-2.841,1.227,3.848,3.848,0,0,1-2.925-1.162,4.124,4.124,0,0,1-1.106-2.962,4.234,4.234,0,0,1,1.144-3.027A3.758,3.758,0,0,1,303.711,58.592Zm-.206.619a1.765,1.765,0,0,0-1.641.938,4.593,4.593,0,0,0-.534,2.3,5.139,5.139,0,0,0,.712,2.691,2.142,2.142,0,0,0,1.894,1.19,1.76,1.76,0,0,0,1.64-.937,4.546,4.546,0,0,0,.535-2.287,5.2,5.2,0,0,0-.713-2.691A2.14,2.14,0,0,0,303.505,59.211Zm1.763-4.65q.674,0,.674.544,0,.393-1.312,1.425a6.127,6.127,0,0,1-1.519,1.031c-.113,0-.169-.081-.169-.243a7.727,7.727,0,0,1,.685-1.06q.684-.984,1.134-1.547A.7.7,0,0,1,305.268,54.561Z"/></g><g class="b"><path d="M314.474,58.611a1.974,1.974,0,0,1,2.137,1.556,4.777,4.777,0,0,1,2.756-1.556,1.993,1.993,0,0,1,1.931.9,6.949,6.949,0,0,1,.488,3.075v2.062a6,6,0,0,0,.094,1.387c.024.087.183.16.477.215a3.9,3.9,0,0,0,.7.085.513.513,0,0,1,.065.272.359.359,0,0,1-.065.272q-1.932-.093-2.006-.094t-1.988.094a.359.359,0,0,1-.066-.272.521.521,0,0,1,.066-.272,3.9,3.9,0,0,0,.7-.085c.292-.055.452-.128.477-.215a6.063,6.063,0,0,0,.094-1.387V62.642A5.35,5.35,0,0,0,320,60.4a1.42,1.42,0,0,0-1.416-.7,1.862,1.862,0,0,0-.871.245,2.992,2.992,0,0,0-.713.5c-.168.169-.253.278-.253.328v.113a1.245,1.245,0,0,1,.019.131,8.98,8.98,0,0,1,.075,1.331v2.306a6.063,6.063,0,0,0,.094,1.387c.025.087.184.16.478.215a3.881,3.881,0,0,0,.7.085.519.519,0,0,1,.067.272.359.359,0,0,1-.067.272q-1.931-.093-2.006-.094t-1.987.094a.355.355,0,0,1-.065-.272.523.523,0,0,1,.065-.272,3.89,3.89,0,0,0,.7-.085c.294-.055.453-.128.479-.215a6.124,6.124,0,0,0,.094-1.387V62.736a5.252,5.252,0,0,0-.375-2.381,1.458,1.458,0,0,0-1.388-.657,2.045,2.045,0,0,0-1.153.4q-.591.4-.591.628v3.918a6.147,6.147,0,0,0,.093,1.387c.026.087.185.16.479.215a3.89,3.89,0,0,0,.7.085.521.521,0,0,1,.066.272.359.359,0,0,1-.066.272q-1.93-.093-2.006-.094t-1.988.094a.359.359,0,0,1-.065-.272.523.523,0,0,1,.065-.272,3.87,3.87,0,0,0,.7-.085c.294-.055.453-.128.479-.215a6.147,6.147,0,0,0,.093-1.387V61.236a3.539,3.539,0,0,0-.093-1.05q-.132-.337-1.219-.337a.654.654,0,0,1,0-.488,8.4,8.4,0,0,0,2.682-.788c.049,0,.1.038.14.113a.4.4,0,0,1,.066.187c-.076.526-.113.851-.113.976,0,.05.012.074.037.074s.032-.012.057-.037A4.372,4.372,0,0,1,314.474,58.611Z"/><path d="M326.7,60.73v3.918a6.063,6.063,0,0,0,.094,1.387c.024.087.185.16.479.215a3.861,3.861,0,0,0,.7.085.533.533,0,0,1,.065.272.364.364,0,0,1-.065.272q-1.932-.093-2.007-.094t-1.988.094a.359.359,0,0,1-.065-.272.523.523,0,0,1,.065-.272,3.9,3.9,0,0,0,.7-.085c.294-.055.453-.128.478-.215a6.124,6.124,0,0,0,.094-1.387V61.161a3.146,3.146,0,0,0-.094-.975q-.132-.337-1.219-.337a.418.418,0,0,1-.046-.226.409.409,0,0,1,.046-.262,8.39,8.39,0,0,0,2.681-.788c.05,0,.1.038.141.113a.39.39,0,0,1,.065.187,10.961,10.961,0,0,0-.131,1.238Zm-1.528-4.36a.95.95,0,1,1,.666.272A.9.9,0,0,1,325.17,56.37Z"/></g><g class="b"><path d="M334.405,58.611a1.993,1.993,0,0,1,1.931.9,6.952,6.952,0,0,1,.487,3.075v2.062a6.063,6.063,0,0,0,.094,1.387c.025.087.185.16.479.215a3.861,3.861,0,0,0,.7.085.533.533,0,0,1,.065.272.364.364,0,0,1-.065.272q-1.93-.093-2.006-.094t-1.989.094a.364.364,0,0,1-.065-.272.533.533,0,0,1,.065-.272,3.88,3.88,0,0,0,.7-.085c.294-.055.453-.128.478-.215a6.063,6.063,0,0,0,.094-1.387V62.774a5.372,5.372,0,0,0-.375-2.419,1.536,1.536,0,0,0-1.463-.657,2.161,2.161,0,0,0-1.125.432q-.657.431-.656.6v3.918a6.147,6.147,0,0,0,.093,1.387c.026.087.185.16.479.215a3.89,3.89,0,0,0,.7.085.521.521,0,0,1,.066.272.359.359,0,0,1-.066.272q-1.93-.093-2.006-.094t-1.988.094a.359.359,0,0,1-.065-.272.523.523,0,0,1,.065-.272,3.87,3.87,0,0,0,.7-.085c.294-.055.453-.128.479-.215a6.147,6.147,0,0,0,.093-1.387V61.236a3.539,3.539,0,0,0-.093-1.05q-.132-.337-1.219-.337a.654.654,0,0,1,0-.488,8.4,8.4,0,0,0,2.682-.788c.049,0,.1.038.14.113a.4.4,0,0,1,.066.187,9.082,9.082,0,0,0-.113,1.07c0,.049.012.074.037.074s.032-.012.057-.037a5.384,5.384,0,0,1,1.152-.891A2.732,2.732,0,0,1,334.405,58.611Z"/><path d="M340.423,62.173v.132a3.526,3.526,0,0,0,.882,2.559,2.907,2.907,0,0,0,2.174.909,2.317,2.317,0,0,0,1.219-.328,3.639,3.639,0,0,0,.844-.666.075.075,0,0,1,.047.028.471.471,0,0,1,.065.094.268.268,0,0,1,.038.14.672.672,0,0,1-.113.338,3.85,3.85,0,0,1-1.058,1.087,2.8,2.8,0,0,1-1.679.507,3.542,3.542,0,0,1-2.7-1.116,3.9,3.9,0,0,1-1.05-2.784,4.54,4.54,0,0,1,1.19-3.13,3.391,3.391,0,0,1,2.5-1.332,3.163,3.163,0,0,1,1.378.281,2.092,2.092,0,0,1,.881.723,3.624,3.624,0,0,1,.422.824,2.232,2.232,0,0,1,.132.722q0,.862-.451.881Q343.105,62.174,340.423,62.173Zm.094-.693h3.056a.382.382,0,0,0,.432-.432,2.12,2.12,0,0,0-.395-1.162,1.281,1.281,0,0,0-1.143-.6,1.529,1.529,0,0,0-1.181.543,2.965,2.965,0,0,0-.656,1.1C340.517,61.3,340.479,61.48,340.517,61.48Z"/><path d="M347.305,65.979a.957.957,0,0,1,.309-.713,1.028,1.028,0,0,1,.74-.3.99.99,0,0,1,.713.291.964.964,0,0,1,.3.722,1.024,1.024,0,0,1-.3.74.958.958,0,0,1-.713.31,1.018,1.018,0,0,1-.731-.31A.991.991,0,0,1,347.305,65.979Z"/></g><g class="b"><path d="M9.642,82.962A3.518,3.518,0,0,1,8.508,85.7a4.274,4.274,0,0,1-2.991,1.032,1.819,1.819,0,0,1-.806-.15.487.487,0,0,1-.263-.413c0-.074.031-.105.094-.094a3.086,3.086,0,0,0,.713.132,2.539,2.539,0,0,0,1.912-.778,2.965,2.965,0,0,0,.75-2.147,3.154,3.154,0,0,0-.787-2.269,3.043,3.043,0,0,0-2.307-.824c-.574,0-.887.062-.937.187a5.592,5.592,0,0,0-.094,1.406v7.987a6.08,6.08,0,0,0,.094,1.388c.025.086.2.159.525.214a4.713,4.713,0,0,0,.769.085.523.523,0,0,1,.065.272A.364.364,0,0,1,5.18,92q-1.912-.093-2.194-.093T.773,92a.355.355,0,0,1-.065-.272.523.523,0,0,1,.065-.272,4.713,4.713,0,0,0,.769-.085c.325-.055.5-.128.525-.214a6.142,6.142,0,0,0,.094-1.388V81.762a6.112,6.112,0,0,0-.094-1.387q-.038-.132-.525-.216a4.828,4.828,0,0,0-.769-.085A.515.515,0,0,1,.708,79.8a.355.355,0,0,1,.065-.272q1.932.094,2.213.094.318,0,1.191-.019t1.471-.019a4.5,4.5,0,0,1,2.794.909A2.932,2.932,0,0,1,9.642,82.962Z"/><path d="M15.885,83.75a1.553,1.553,0,0,1,.685.159,1.046,1.046,0,0,1,.459.384,1.607,1.607,0,0,1,.075.507,1.086,1.086,0,0,1-.215.722.579.579,0,0,1-.4.253.586.586,0,0,1-.225-.047,1.5,1.5,0,0,1-.281-.169c-.112-.081-.175-.128-.187-.141a1.247,1.247,0,0,0-.694-.224,1.316,1.316,0,0,0-1.022.637,1.933,1.933,0,0,0-.478,1.05v2.887a6.164,6.164,0,0,0,.093,1.388c.025.086.247.159.666.214a7.648,7.648,0,0,0,.947.085.521.521,0,0,1,.066.272A.359.359,0,0,1,15.3,92q-1.912-.093-2.325-.093-.187,0-2.1.093a.359.359,0,0,1-.066-.272.531.531,0,0,1,.066-.272,3.88,3.88,0,0,0,.7-.085c.294-.055.453-.128.479-.214a6.164,6.164,0,0,0,.093-1.388V86.281a3.156,3.156,0,0,0-.093-.975q-.132-.337-1.219-.337a.412.412,0,0,1-.047-.226.408.408,0,0,1,.047-.262,8.391,8.391,0,0,0,2.681-.787c.05,0,.1.037.141.112a.4.4,0,0,1,.065.187,12.319,12.319,0,0,0-.131,1.726c0,.074.025.087.075.037a4.711,4.711,0,0,1,.975-1.35A1.84,1.84,0,0,1,15.885,83.75Z"/><path d="M22.073,83.712a3.842,3.842,0,0,1,2.916,1.153,4.089,4.089,0,0,1,1.1,2.935,4.316,4.316,0,0,1-1.134,3.046,3.707,3.707,0,0,1-2.841,1.227,3.844,3.844,0,0,1-2.924-1.162,4.121,4.121,0,0,1-1.107-2.962,4.232,4.232,0,0,1,1.144-3.027A3.76,3.76,0,0,1,22.073,83.712Zm-.206.619a1.765,1.765,0,0,0-1.641.938,4.593,4.593,0,0,0-.534,2.3,5.139,5.139,0,0,0,.712,2.691,2.142,2.142,0,0,0,1.894,1.19,1.76,1.76,0,0,0,1.64-.937,4.546,4.546,0,0,0,.535-2.287,5.213,5.213,0,0,0-.712-2.691A2.143,2.143,0,0,0,21.867,84.331Z"/></g><g class="b"><path d="M32.367,83.731a2.921,2.921,0,0,1,2.494,1.228,4.375,4.375,0,0,1,.9,2.635,4.285,4.285,0,0,1-1.378,3.14,4.219,4.219,0,0,1-3.009,1.359,4.345,4.345,0,0,1-1.313-.207.378.378,0,0,0-.075.244v1.818a6.062,6.062,0,0,0,.094,1.388c.024.088.184.159.478.216a3.873,3.873,0,0,0,.7.084.531.531,0,0,1,.066.272.359.359,0,0,1-.066.272q-1.932-.095-2.006-.094t-1.988.094a.355.355,0,0,1-.065-.272.513.513,0,0,1,.065-.272,3.873,3.873,0,0,0,.7-.084c.294-.057.453-.128.478-.216a6.062,6.062,0,0,0,.094-1.388V86.281a3.114,3.114,0,0,0-.094-.975q-.13-.337-1.219-.337a.436.436,0,0,1-.046-.226.416.416,0,0,1,.046-.262,8.39,8.39,0,0,0,2.682-.787c.05,0,.1.037.141.112a.4.4,0,0,1,.065.187c0,.013-.022.129-.065.347a2.894,2.894,0,0,0-.066.422c0,.051.012.075.037.075s.032-.012.057-.037a6.292,6.292,0,0,1,1.115-.722A2.615,2.615,0,0,1,32.367,83.731Zm-.806,1.106a2.312,2.312,0,0,0-1.06.263q-.515.263-.515.469v4.5a1.126,1.126,0,0,0,.572,1.012,2.186,2.186,0,0,0,1.171.357,2.078,2.078,0,0,0,1.782-.966,3.722,3.722,0,0,0,.675-2.184,3.89,3.89,0,0,0-.75-2.531A2.327,2.327,0,0,0,31.561,84.837Z"/><path d="M39.885,85.85v3.918a6.142,6.142,0,0,0,.094,1.388c.025.086.185.159.479.214a3.87,3.87,0,0,0,.7.085.523.523,0,0,1,.065.272.364.364,0,0,1-.065.272q-1.932-.093-2.007-.093T37.167,92a.359.359,0,0,1-.066-.272.511.511,0,0,1,.066-.272,3.89,3.89,0,0,0,.7-.085c.294-.055.453-.128.478-.214a6.142,6.142,0,0,0,.094-1.388V86.281a3.146,3.146,0,0,0-.094-.975q-.132-.337-1.219-.337a.667.667,0,0,1,0-.488,8.4,8.4,0,0,0,2.682-.787c.049,0,.1.037.14.112a.4.4,0,0,1,.066.187,10.8,10.8,0,0,0-.132,1.238Zm.507-6.169q.675,0,.675.544,0,.395-1.313,1.425a6.107,6.107,0,0,1-1.519,1.031q-.168,0-.168-.243a7.649,7.649,0,0,1,.684-1.06q.684-.984,1.134-1.547A.7.7,0,0,1,40.392,79.681Z"/></g><g class="b"><path d="M42.886,87.05q3.9-.207,4.519-.226c.087,0,.131.057.131.169a2.392,2.392,0,0,1-.244,1.013q-.375.02-4.519.206c-.087,0-.131-.068-.131-.206A2.293,2.293,0,0,1,42.886,87.05Z"/></g><g class="b"><path d="M57.593,84.2l.206-1.105q.225-.282.676-.76c.3-.318.481-.478.543-.478a.522.522,0,0,1,.319.113l-.413,2.23h1.407c.062,0,.093.076.093.226a.9.9,0,0,1-.168.469H58.793L57.8,89.955a3.308,3.308,0,0,0-.074.6c0,.312.062.469.187.469a.516.516,0,0,0,.234-.076,1.435,1.435,0,0,0,.272-.187c.087-.074.181-.162.281-.262s.185-.187.254-.262.134-.144.2-.206l.076-.094c.025,0,.062.047.112.14a.516.516,0,0,1,.075.215,4.786,4.786,0,0,1-1.05,1.078,2.4,2.4,0,0,1-1.406.685.526.526,0,0,1-.469-.272,1.321,1.321,0,0,1-.169-.7,6.2,6.2,0,0,1,.131-.994l1.013-5.192H56.206c-.025,0-.038-.019-.038-.057q0-.168.281-.4a.906.906,0,0,1,.582-.235Z"/><path d="M62.693,85.887a4.582,4.582,0,0,0,.075-.6q0-.468-.187-.468a.528.528,0,0,0-.235.075,1.517,1.517,0,0,0-.272.187c-.087.075-.181.162-.281.263s-.185.187-.253.262-.128.144-.178.207l-.094.093c-.025,0-.062-.046-.112-.14a.5.5,0,0,1-.075-.216,5.212,5.212,0,0,1,1.012-1.088,2.206,2.206,0,0,1,1.35-.675.632.632,0,0,1,.515.282,1.1,1.1,0,0,1,.216.693,6.187,6.187,0,0,1-.131.994l-.956,4.2a3.236,3.236,0,0,0-.075.6c0,.312.062.469.187.469a.519.519,0,0,0,.235-.076,1.5,1.5,0,0,0,.272-.187c.087-.074.181-.162.281-.262s.184-.187.253-.262.134-.144.2-.206l.075-.094c.025,0,.062.047.112.14a.516.516,0,0,1,.075.215,4.786,4.786,0,0,1-1.05,1.078,2.4,2.4,0,0,1-1.406.685.527.527,0,0,1-.469-.272,1.321,1.321,0,0,1-.169-.7,6.117,6.117,0,0,1,.132-.994Zm1.069-6.056a.613.613,0,0,1,.478.225.774.774,0,0,1,.2.525,1.166,1.166,0,0,1-.291.787.912.912,0,0,1-.722.338.544.544,0,0,1-.468-.234.949.949,0,0,1-.169-.572,1.1,1.1,0,0,1,.281-.75A.891.891,0,0,1,63.762,79.831Z"/></g><g class="b"><path d="M66.855,87.05q3.9-.207,4.52-.226c.087,0,.131.057.131.169a2.407,2.407,0,0,1-.244,1.013q-.375.02-4.519.206c-.087,0-.131-.068-.131-.206A2.306,2.306,0,0,1,66.855,87.05Z"/></g><g class="b"><path d="M92.984,90.086c.037-.187.072-.365.1-.534s.072-.356.122-.562.087-.385.112-.535a9.216,9.216,0,0,1-1.687,2.287,3.339,3.339,0,0,1-2.081,1.313q-.939,0-.938-1.35a10.463,10.463,0,0,1,.262-1.931l.619-2.887a4.582,4.582,0,0,0,.075-.6q0-.468-.187-.468a.528.528,0,0,0-.235.075,1.553,1.553,0,0,0-.272.187c-.087.075-.181.162-.281.263s-.184.187-.253.262-.135.144-.2.207l-.075.093c-.025,0-.062-.046-.112-.14a.519.519,0,0,1-.075-.216A5.212,5.212,0,0,1,88.9,84.462a2.208,2.208,0,0,1,1.35-.675.635.635,0,0,1,.516.282,1.11,1.11,0,0,1,.216.693,6.1,6.1,0,0,1-.132.994l-.656,3.093a4.71,4.71,0,0,0-.131,1.013c0,.537.118.805.356.805s.591-.221,1.06-.665a8.716,8.716,0,0,0,1.4-1.808,6.752,6.752,0,0,0,.9-2.232c.038-.224.1-.553.2-.984s.166-.79.216-1.078a1.983,1.983,0,0,1,.581-.076,3.056,3.056,0,0,1,.731.076l-1.162,6.055a3.236,3.236,0,0,0-.075.6c0,.312.062.469.187.469a.519.519,0,0,0,.235-.076,1.5,1.5,0,0,0,.272-.187c.087-.074.181-.162.281-.262s.184-.187.253-.262.134-.144.2-.206l.075-.094c.025,0,.062.047.112.14a.516.516,0,0,1,.075.215A4.786,4.786,0,0,1,94.9,91.37a2.4,2.4,0,0,1-1.406.685.527.527,0,0,1-.469-.272,1.321,1.321,0,0,1-.168-.7A6.084,6.084,0,0,1,92.984,90.086Z"/><path d="M100.446,83.731a2.372,2.372,0,0,1,1.612.507,1,1,0,0,1,.188.6.848.848,0,0,1-.179.544.559.559,0,0,1-.459.225c-.275,0-.569-.218-.881-.657a.509.509,0,0,1-.066-.093l-.065-.1c-.013-.018-.035-.047-.066-.085s-.056-.065-.075-.084-.047-.044-.084-.075a.417.417,0,0,0-.1-.065.989.989,0,0,0-.113-.038.977.977,0,0,0-.141-.028,1.224,1.224,0,0,0-.168-.01.776.776,0,0,0-.685.347,1.249,1.249,0,0,0-.234.7,1.58,1.58,0,0,0,.056.413,1.429,1.429,0,0,0,.225.441q.169.234.253.346c.057.076.178.213.366.413s.3.326.338.375a3.856,3.856,0,0,1,1.143,2.343,2.072,2.072,0,0,1-.759,1.668,2.942,2.942,0,0,1-1.96.638,2.448,2.448,0,0,1-1.65-.563,1.137,1.137,0,0,1-.187-.562.939.939,0,0,1,.2-.628.622.622,0,0,1,.5-.234.427.427,0,0,1,.281.093,1.843,1.843,0,0,1,.3.394c.125.2.2.319.225.356a1.182,1.182,0,0,0,.994.544.761.761,0,0,0,.712-.346,1.345,1.345,0,0,0,.028-1.388,3.036,3.036,0,0,0-.3-.5q-.121-.15-.5-.581-.45-.506-.665-.778a3.962,3.962,0,0,1-.45-.768,2.321,2.321,0,0,1-.235-1,2.258,2.258,0,0,1,.75-1.613A2.526,2.526,0,0,1,100.446,83.731Z"/></g><g class="b"><path d="M119.223,87.406a4.044,4.044,0,0,0,.281,1.584,2.187,2.187,0,0,0,.722.974,3.211,3.211,0,0,0,.843.442,2.553,2.553,0,0,0,.779.13,2.748,2.748,0,0,0,2.1-.937c.15.037.224.15.224.338a.691.691,0,0,1-.056.355,4.48,4.48,0,0,1-1.3,1.2,3.672,3.672,0,0,1-2.09.62,3.939,3.939,0,0,1-2.794-1.07,3.71,3.71,0,0,1-1.144-2.848,4.683,4.683,0,0,1,1.275-3.206,3.8,3.8,0,0,1,2.888-1.425,3.141,3.141,0,0,1,2.465.909,2.846,2.846,0,0,1,.816,1.922.96.96,0,0,1-.15.544.485.485,0,0,1-.356.243Q122.036,87.331,119.223,87.406Zm.018-.75a10.733,10.733,0,0,0,1.107-.046q.975-.066,1.312-.1c.162-.013.244-.112.244-.3a2.9,2.9,0,0,0-.281-1.312.916.916,0,0,0-.863-.563,1.081,1.081,0,0,0-.872.469,2.847,2.847,0,0,0-.506.966A3.3,3.3,0,0,0,119.241,86.656Z"/><path d="M129.01,83.543a5.745,5.745,0,0,1,.74.047,6.368,6.368,0,0,1,.8.169c.3.082.488.129.562.141a12.072,12.072,0,0,1,.394,2.306c0,.087-.112.131-.337.131a.721.721,0,0,1-.356-.149q-.413-1.895-1.988-1.895a1.117,1.117,0,0,0-.778.263.96.96,0,0,0-.291.75,1.152,1.152,0,0,0,.1.5,1.077,1.077,0,0,0,.347.394,4.931,4.931,0,0,0,.422.281,5.669,5.669,0,0,0,.544.262c.244.107.409.185.5.235a5.87,5.87,0,0,1,1.462.937,2.277,2.277,0,0,1,.563,1.593,2.129,2.129,0,0,1-1.041,1.95,5.006,5.006,0,0,1-2.653.638,11.738,11.738,0,0,1-2.194-.4,15.1,15.1,0,0,1-.15-2.437c0-.087.094-.131.282-.131a.416.416,0,0,1,.412.188,2.359,2.359,0,0,0,.75,1.565,2.007,2.007,0,0,0,1.275.46,1.041,1.041,0,0,0,.769-.3.971.971,0,0,0,.3-.712.944.944,0,0,0-.207-.6,1.82,1.82,0,0,0-.4-.394,5.978,5.978,0,0,0-.676-.356c-.318-.15-.534-.256-.646-.319a5.431,5.431,0,0,1-1.482-1.087,2.076,2.076,0,0,1-.506-1.443,2.122,2.122,0,0,1,1.087-1.932A4.562,4.562,0,0,1,129.01,83.543Z"/></g><g class="b"><path d="M133.438,87.055q3.108-.207,3.6-.226c.069,0,.1.057.1.169a2.926,2.926,0,0,1-.194,1.013q-.3.02-3.6.206c-.07,0-.105-.068-.105-.206A2.774,2.774,0,0,1,133.438,87.055Z"/></g><g class="b"><path d="M141.02,83.844h2.418c.062,0,.094.068.094.206a.793.793,0,0,1-.262.563h-2.25v4.911q0,1.538,1.237,1.538a2.071,2.071,0,0,0,1.219-.432.147.147,0,0,1,.056.131.4.4,0,0,1-.075.281,2.571,2.571,0,0,1-1.931,1.031q-1.95,0-1.95-2.024V84.613h-1.088c-.062,0-.093-.057-.093-.169,0-.076.162-.275.487-.6h.694V82.662c.1-.112.243-.271.431-.478s.35-.384.488-.534.212-.232.225-.244a.24.24,0,0,1,.112-.056.322.322,0,0,1,.131-.01c.038.007.057.023.057.047Z"/><path d="M148.613,83.712a3.838,3.838,0,0,1,2.915,1.153,4.09,4.09,0,0,1,1.1,2.935,4.321,4.321,0,0,1-1.134,3.046,3.708,3.708,0,0,1-2.841,1.227,3.844,3.844,0,0,1-2.924-1.162,4.121,4.121,0,0,1-1.107-2.962,4.232,4.232,0,0,1,1.144-3.027A3.758,3.758,0,0,1,148.613,83.712Zm-.207.619a1.763,1.763,0,0,0-1.64.938,4.593,4.593,0,0,0-.534,2.3,5.139,5.139,0,0,0,.712,2.691,2.14,2.14,0,0,0,1.893,1.19,1.763,1.763,0,0,0,1.641-.937,4.557,4.557,0,0,0,.535-2.287,5.2,5.2,0,0,0-.713-2.691A2.14,2.14,0,0,0,148.406,84.331Z"/><path d="M155.381,89.636a.946.946,0,0,1,.488.132,2.567,2.567,0,0,1,.338,1.312,3.793,3.793,0,0,1-.741,1.931,4.427,4.427,0,0,1-1.472,1.538c-.063,0-.125-.05-.187-.15a.5.5,0,0,1-.094-.243,2.561,2.561,0,0,0,1.181-2.083,1.3,1.3,0,0,0-.31-.721,1.37,1.37,0,0,1-.309-.8.856.856,0,0,1,.319-.618A1.107,1.107,0,0,1,155.381,89.636Z"/></g><g class="b"><path class="c" d="M167.774,80.449a1.061,1.061,0,0,1,.534-.355.526.526,0,0,1,.516.131.592.592,0,0,1,.187.515.878.878,0,0,1-.3.535,5.042,5.042,0,0,1-.946.628,4.375,4.375,0,0,0-.872.572l-.094.263a.24.24,0,0,0,.187.187,3.649,3.649,0,0,0,.938.263,4.757,4.757,0,0,1,1.069.3,1.141,1.141,0,0,1,.506.4.482.482,0,0,1,.037.515.564.564,0,0,1-.431.337.869.869,0,0,1-.6-.112,4.44,4.44,0,0,1-.909-.7,4.507,4.507,0,0,0-.8-.647l-.263-.056c-.05.025-.087.106-.112.244a4.3,4.3,0,0,0,.047.975,4.517,4.517,0,0,1,.028,1.106,1.045,1.045,0,0,1-.234.6.513.513,0,0,1-.479.187.578.578,0,0,1-.45-.29.825.825,0,0,1-.075-.609,4.607,4.607,0,0,1,.4-1.1,3.849,3.849,0,0,0,.365-.965.293.293,0,0,0-.056-.244.229.229,0,0,0-.244-.057,4.851,4.851,0,0,0-.9.357,4.448,4.448,0,0,1-1.069.375,1.122,1.122,0,0,1-.647-.037.471.471,0,0,1-.328-.394.581.581,0,0,1,.151-.525.85.85,0,0,1,.562-.263,4.685,4.685,0,0,1,1.153.038,4.519,4.519,0,0,0,1.022.056.306.306,0,0,0,.206-.15.262.262,0,0,0-.037-.262,5.216,5.216,0,0,0-.61-.76,5.3,5.3,0,0,1-.684-.891q-.412-.75.112-1.049.6-.3.957.431a5.125,5.125,0,0,1,.309,1.106,4.277,4.277,0,0,0,.272.994c.062.125.125.194.187.206a.292.292,0,0,0,.244-.112,4.04,4.04,0,0,0,.525-.816A4.6,4.6,0,0,1,167.774,80.449Z"/></g><g class="b"><path d="M189.053,87.293v.132a3.526,3.526,0,0,0,.882,2.559,2.906,2.906,0,0,0,2.174.909,2.317,2.317,0,0,0,1.219-.328,3.66,3.66,0,0,0,.844-.666.075.075,0,0,1,.047.028.5.5,0,0,1,.065.094.271.271,0,0,1,.038.14.672.672,0,0,1-.113.338,3.841,3.841,0,0,1-1.059,1.087,2.79,2.79,0,0,1-1.678.507,3.545,3.545,0,0,1-2.7-1.116,3.9,3.9,0,0,1-1.049-2.783,4.54,4.54,0,0,1,1.19-3.131,3.391,3.391,0,0,1,2.5-1.332,3.169,3.169,0,0,1,1.378.281,2.1,2.1,0,0,1,.881.723,3.644,3.644,0,0,1,.422.824,2.232,2.232,0,0,1,.132.722q0,.862-.451.881Q191.735,87.294,189.053,87.293Zm.093-.693H192.2a.382.382,0,0,0,.432-.432,2.12,2.12,0,0,0-.395-1.162,1.281,1.281,0,0,0-1.143-.6,1.529,1.529,0,0,0-1.181.543,2.965,2.965,0,0,0-.656,1.1C189.146,86.415,189.109,86.6,189.146,86.6Z"/><path d="M197.34,83.975q.862,0,1.894-.094a.635.635,0,0,1-.038.544q-.75,0-.75.318a.513.513,0,0,0,.094.226l1.237,1.969q.151-.245.535-.779t.59-.872a1.128,1.128,0,0,0,.207-.506.246.246,0,0,0-.15-.215.833.833,0,0,0-.318-.1,3.6,3.6,0,0,0-.375-.018l-.207-.019c-.025-.013-.038-.1-.038-.253a.662.662,0,0,1,.038-.291q.281.02.629.037l.636.038c.195.013.4.019.629.019a10.625,10.625,0,0,0,1.5-.094,1.423,1.423,0,0,1,.009.31c-.006.156-.016.234-.028.234q-1.182.056-1.444.412l-.721,1q-.48.666-.779,1.088t-.375.516l2.25,3.337a1.64,1.64,0,0,0,1.444.674c.012,0,.022.04.028.122a1.207,1.207,0,0,1-.009.253.688.688,0,0,1-.038.169l-1.763-.093q-.055,0-2.081.093a.859.859,0,0,1-.028-.319c.007-.149.022-.225.047-.225.525-.038.788-.15.788-.338a.294.294,0,0,0-.038-.112q-.975-1.593-1.481-2.344-.095.151-.572.854t-.778,1.172a.7.7,0,0,0-.113.355q0,.339.938.413h.094c.012,0,.021.037.028.113a1.775,1.775,0,0,1,0,.253.312.312,0,0,1-.047.178c-.176-.012-.372-.025-.591-.038s-.419-.024-.6-.037-.379-.018-.591-.018-.406,0-.581.018-.375.024-.6.037-.419.026-.582.038a.714.714,0,0,1-.018-.291.788.788,0,0,1,.056-.253c.025,0,.1-.009.225-.028l.253-.037c.044-.007.122-.023.234-.047a1.884,1.884,0,0,0,.244-.066l.225-.084a.87.87,0,0,0,.234-.122c.057-.044.119-.094.188-.15a.905.905,0,0,0,.178-.2q1.745-2.513,1.837-2.643l-2.174-3.244q-.264-.411-1.256-.412c-.013,0-.023-.038-.028-.112a1.073,1.073,0,0,1,.009-.244,1.223,1.223,0,0,1,.037-.188Q196.515,83.976,197.34,83.975Z"/></g><g class="b"><path d="M204.791,87.055q2.46-.207,2.851-.226c.055,0,.083.057.083.169a3.62,3.62,0,0,1-.154,1.013q-.237.02-2.851.206c-.055,0-.083-.068-.083-.206A3.414,3.414,0,0,1,204.791,87.055Z"/></g><g class="b"><path d="M212.962,83.769a1.817,1.817,0,0,1,1.426.75,2.766,2.766,0,0,1,.618,1.818V90.2q0,.882.581.882a1.231,1.231,0,0,0,.62-.244c.049,0,.074.05.074.151a.665.665,0,0,1-.093.356,3.622,3.622,0,0,1-.685.459,1.651,1.651,0,0,1-.722.253.951.951,0,0,1-.721-.375,1.792,1.792,0,0,1-.422-.844,6.605,6.605,0,0,1-1.069.76,2.706,2.706,0,0,1-1.237.5,2.144,2.144,0,0,1-1.566-.619,2.069,2.069,0,0,1-.628-1.537,1.615,1.615,0,0,1,.29-.957,1.4,1.4,0,0,1,.647-.543q3.188-1.143,3.281-1.181a.307.307,0,0,0,.188-.141.936.936,0,0,0,.038-.328v-.506a1.883,1.883,0,0,0-.479-1.228,1.438,1.438,0,0,0-1.134-.572.822.822,0,0,0-.694.291,2.078,2.078,0,0,0-.337.872c-.1.6-.394.9-.882.9a.546.546,0,0,1-.459-.243.9.9,0,0,1-.178-.544.71.71,0,0,1,.131-.45,6.939,6.939,0,0,1,1.537-1.04A4.055,4.055,0,0,1,212.962,83.769ZM211.95,91.08a2.373,2.373,0,0,0,1.041-.3c.393-.2.591-.357.591-.469v-2.55q-1.445.432-1.745.544a1.531,1.531,0,0,0-1.143,1.462,1.31,1.31,0,0,0,.366.919A1.172,1.172,0,0,0,211.95,91.08Zm1.632-11.4q.674,0,.674.544,0,.395-1.312,1.425a6.127,6.127,0,0,1-1.519,1.031c-.113,0-.169-.081-.169-.243a7.727,7.727,0,0,1,.685-1.06q.684-.984,1.134-1.547A.7.7,0,0,1,213.582,79.681Z"/><path d="M223.087,85.944a2.368,2.368,0,0,0-.15-1.013q-.207-.375-1.05-.375a.417.417,0,0,1-.047-.225.413.413,0,0,1,.047-.262,10.135,10.135,0,0,0,2.569-.375c.037,0,.081.059.131.177a.782.782,0,0,1,.075.273,3.41,3.41,0,0,0-.131,1.219V89.3a6.883,6.883,0,0,0,.131,1.425.334.334,0,0,0,.206.206,1.134,1.134,0,0,0,.357.094q.186.018.375.018l.168.02c.038.011.056.081.056.206a.553.553,0,0,1-.047.178c-.031.082-.065.122-.1.122-.187.012-.4.037-.628.075s-.447.081-.647.131-.39.1-.571.15-.328.094-.441.131l-.15.038c-.1,0-.15-.1-.15-.3V90.93l-.038-.094a4.07,4.07,0,0,1-1.209.854,3.3,3.3,0,0,1-1.453.383q-2.344,0-2.344-3.73v-2.4a2.368,2.368,0,0,0-.15-1.013q-.207-.375-1.049-.375a.408.408,0,0,1-.047-.225.413.413,0,0,1,.047-.262,10.133,10.133,0,0,0,2.568-.375c.037,0,.081.049.131.15a.576.576,0,0,1,.075.225,3.765,3.765,0,0,0-.131,1.294v2.755a4.193,4.193,0,0,0,.45,2.2,1.569,1.569,0,0,0,1.425.7,2.187,2.187,0,0,0,1.162-.347q.563-.347.563-.685Z"/></g><g class="b"><path d="M226.758,87.055q1.716-.207,1.989-.226c.038,0,.058.057.058.169a5.028,5.028,0,0,1-.108,1.013q-.165.02-1.989.206c-.038,0-.057-.068-.057-.206A4.851,4.851,0,0,1,226.758,87.055Z"/></g><g class="b"><path d="M234.5,83.731a3.6,3.6,0,0,1,1.293.187c.063,0,.094-.131.094-.393V81.481a3.118,3.118,0,0,0-.094-.975q-.15-.337-1.143-.338c-.013,0-.022-.04-.028-.121a1.42,1.42,0,0,1,0-.244c.006-.081.022-.122.046-.122a8.543,8.543,0,0,0,2.663-.75c.05,0,.1.035.141.1a.367.367,0,0,1,.066.2,5.166,5.166,0,0,0-.207,1.632v8.023a6.956,6.956,0,0,0,.131,1.838.432.432,0,0,0,.235.187,1.582,1.582,0,0,0,.356.1,2.323,2.323,0,0,0,.347.027l.168.02c.037.011.057.087.057.224a.532.532,0,0,1-.047.169c-.032.076-.066.113-.1.113-.187.012-.4.037-.628.075s-.447.081-.647.131-.391.1-.572.15-.322.094-.422.131l-.168.038c-.1,0-.151-.119-.151-.356V91.08c-.012-.088-.031-.125-.056-.112a4.226,4.226,0,0,1-1.087.712,3.192,3.192,0,0,1-1.407.413,2.964,2.964,0,0,1-2.306-1.163,4.234,4.234,0,0,1-.993-2.849,3.643,3.643,0,0,1,.768-2.2,5.417,5.417,0,0,1,1.8-1.594A4.055,4.055,0,0,1,234.5,83.731Zm-.6.788a1.917,1.917,0,0,0-1.659.928,3.8,3.8,0,0,0-.629,2.184,3.853,3.853,0,0,0,.7,2.343,2.275,2.275,0,0,0,1.941.956,2.5,2.5,0,0,0,1.116-.253c.343-.169.515-.334.515-.5V85.438q0-.339-.609-.629A3.159,3.159,0,0,0,233.9,84.519Z"/><path d="M242.355,85.85v3.918a6.142,6.142,0,0,0,.094,1.388c.025.086.185.159.479.214a3.88,3.88,0,0,0,.7.085.523.523,0,0,1,.065.272.355.355,0,0,1-.065.272q-1.932-.093-2.006-.093T239.637,92a.359.359,0,0,1-.066-.272.531.531,0,0,1,.066-.272,3.89,3.89,0,0,0,.7-.085c.294-.055.453-.128.478-.214a6.142,6.142,0,0,0,.094-1.388V86.281a3.146,3.146,0,0,0-.094-.975q-.132-.337-1.218-.337a.412.412,0,0,1-.047-.226.408.408,0,0,1,.047-.262,8.391,8.391,0,0,0,2.681-.787c.05,0,.1.037.14.112a.4.4,0,0,1,.066.187,10.8,10.8,0,0,0-.132,1.238Zm-1.527-4.36a.95.95,0,1,1,.665.272A.9.9,0,0,1,240.828,81.49Z"/></g><g class="b"><path d="M256.52,83.731a1.993,1.993,0,0,1,1.931.9,6.952,6.952,0,0,1,.487,3.075v2.062a6.142,6.142,0,0,0,.094,1.388c.025.086.185.159.479.214a3.871,3.871,0,0,0,.7.085.531.531,0,0,1,.066.272.359.359,0,0,1-.066.272q-1.931-.093-2-.093T256.22,92a.359.359,0,0,1-.066-.272.531.531,0,0,1,.066-.272,3.89,3.89,0,0,0,.7-.085c.294-.055.453-.128.478-.214a6.142,6.142,0,0,0,.094-1.388V87.894a5.372,5.372,0,0,0-.375-2.419,1.537,1.537,0,0,0-1.463-.656,2.164,2.164,0,0,0-1.125.431c-.437.287-.656.488-.656.6v3.918a6.08,6.08,0,0,0,.094,1.388c.025.086.184.159.478.214a3.89,3.89,0,0,0,.7.085.531.531,0,0,1,.066.272.359.359,0,0,1-.066.272q-1.93-.093-2.006-.093T251.157,92a.355.355,0,0,1-.065-.272.523.523,0,0,1,.065-.272,3.87,3.87,0,0,0,.7-.085c.294-.055.453-.128.479-.214a6.142,6.142,0,0,0,.094-1.388V86.356a3.527,3.527,0,0,0-.094-1.05q-.132-.337-1.219-.337a.422.422,0,0,1-.047-.226.415.415,0,0,1,.047-.262,8.391,8.391,0,0,0,2.681-.787c.05,0,.1.037.141.112a.4.4,0,0,1,.065.187,9.475,9.475,0,0,0-.112,1.07c0,.05.012.074.038.074s.03-.012.056-.037a5.4,5.4,0,0,1,1.153-.891A2.726,2.726,0,0,1,256.52,83.731Z"/><path d="M265.22,83.712a3.838,3.838,0,0,1,2.915,1.153,4.09,4.09,0,0,1,1.1,2.935,4.321,4.321,0,0,1-1.134,3.046,3.708,3.708,0,0,1-2.841,1.227,3.845,3.845,0,0,1-2.925-1.162,4.12,4.12,0,0,1-1.106-2.962,4.232,4.232,0,0,1,1.144-3.027A3.758,3.758,0,0,1,265.22,83.712Zm-.207.619a1.762,1.762,0,0,0-1.64.938,4.594,4.594,0,0,0-.535,2.3,5.14,5.14,0,0,0,.713,2.691,2.14,2.14,0,0,0,1.893,1.19,1.763,1.763,0,0,0,1.641-.937,4.557,4.557,0,0,0,.535-2.287,5.2,5.2,0,0,0-.713-2.691A2.14,2.14,0,0,0,265.013,84.331Z"/><path d="M273.657,83.75a6.617,6.617,0,0,1,1.04.1q.628.1.872.14a11.287,11.287,0,0,1,.225,2.063c0,.062-.063.094-.187.094a.487.487,0,0,1-.319-.094,3.211,3.211,0,0,0-.6-1.181,1.237,1.237,0,0,0-.975-.544,1.374,1.374,0,0,0-.994.328,1.137,1.137,0,0,0-.337.853,1.229,1.229,0,0,0,.075.441,2.246,2.246,0,0,0,.15.328,1.077,1.077,0,0,0,.281.291c.137.106.244.184.319.234s.209.129.4.234.328.185.4.235q.038.018.431.253l.516.309q.122.075.431.319a2.036,2.036,0,0,1,.422.412,3.032,3.032,0,0,1,.234.44,1.349,1.349,0,0,1,.122.554,2.338,2.338,0,0,1-.862,1.846,3.006,3.006,0,0,1-2.025.741,5.15,5.15,0,0,1-.722-.047,7.767,7.767,0,0,1-.778-.159c-.3-.076-.532-.125-.694-.151a5.2,5.2,0,0,1-.215-.937,6.687,6.687,0,0,1-.1-1.012.548.548,0,0,1,.338-.113.294.294,0,0,1,.168.038,2.784,2.784,0,0,0,.76,1.219,1.768,1.768,0,0,0,1.265.562,1.359,1.359,0,0,0,.975-.356,1.307,1.307,0,0,0,.375-1,1.509,1.509,0,0,0-.112-.6,1.27,1.27,0,0,0-.394-.487,4.754,4.754,0,0,0-.5-.357c-.144-.087-.359-.209-.647-.365s-.5-.272-.637-.347a2.362,2.362,0,0,1-1.425-2.006,2,2,0,0,1,.815-1.65A3,3,0,0,1,273.657,83.75Z"/><path d="M278.907,89.636a.948.948,0,0,1,.488.132,2.566,2.566,0,0,1,.337,1.312,3.784,3.784,0,0,1-.741,1.931,4.417,4.417,0,0,1-1.471,1.538c-.063,0-.125-.05-.188-.15a.5.5,0,0,1-.094-.243,2.558,2.558,0,0,0,1.181-2.083,1.308,1.308,0,0,0-.309-.721,1.37,1.37,0,0,1-.309-.8.856.856,0,0,1,.319-.618A1.1,1.1,0,0,1,278.907,89.636Z"/></g><g class="b"><path d="M291.411,79.606a6.648,6.648,0,0,1,4.8,1.707,5.782,5.782,0,0,1,1.781,4.368,7.719,7.719,0,0,1-.338,2.344,6.139,6.139,0,0,1-1.078,2,4.823,4.823,0,0,1-2.118,1.453,9.267,9.267,0,0,1-3.29.525H286.48a.355.355,0,0,1-.065-.272.513.513,0,0,1,.065-.272,4.713,4.713,0,0,0,.769-.085c.325-.055.5-.128.525-.214a6.142,6.142,0,0,0,.094-1.388V81.762a6.112,6.112,0,0,0-.094-1.387q-.037-.132-.525-.216a4.828,4.828,0,0,0-.769-.085.506.506,0,0,1-.065-.271.355.355,0,0,1,.065-.272q1.932.094,2.212.094.357,0,1.323-.01C290.658,79.61,291.124,79.606,291.411,79.606ZM289.518,81.8v7.986a3.886,3.886,0,0,0,.112,1.35q.188.264,1.538.263a4.923,4.923,0,0,0,3.553-1.36,5.244,5.244,0,0,0,1.415-3.965,7.755,7.755,0,0,0-.431-2.7,4.565,4.565,0,0,0-1.181-1.838,5.012,5.012,0,0,0-1.66-1,5.745,5.745,0,0,0-1.959-.328q-1.237,0-1.294.206A6.158,6.158,0,0,0,289.518,81.8Z"/><path d="M303.711,83.712a3.84,3.84,0,0,1,2.916,1.153,4.094,4.094,0,0,1,1.1,2.935,4.317,4.317,0,0,1-1.135,3.046,3.707,3.707,0,0,1-2.841,1.227,3.848,3.848,0,0,1-2.925-1.162,4.124,4.124,0,0,1-1.106-2.962,4.236,4.236,0,0,1,1.144-3.027A3.758,3.758,0,0,1,303.711,83.712Zm-.206.619a1.765,1.765,0,0,0-1.641.938,4.593,4.593,0,0,0-.534,2.3,5.139,5.139,0,0,0,.712,2.691,2.142,2.142,0,0,0,1.894,1.19,1.76,1.76,0,0,0,1.64-.937,4.546,4.546,0,0,0,.535-2.287,5.2,5.2,0,0,0-.713-2.691A2.14,2.14,0,0,0,303.505,84.331Zm1.763-4.65q.674,0,.674.544,0,.395-1.312,1.425a6.127,6.127,0,0,1-1.519,1.031c-.113,0-.169-.081-.169-.243a7.727,7.727,0,0,1,.685-1.06q.684-.984,1.134-1.547A.7.7,0,0,1,305.268,79.681Z"/></g><g class="b"><path d="M314.474,83.731a1.974,1.974,0,0,1,2.137,1.556,4.777,4.777,0,0,1,2.756-1.556,1.993,1.993,0,0,1,1.931.9,6.949,6.949,0,0,1,.488,3.075v2.062a6.019,6.019,0,0,0,.094,1.388c.024.086.183.159.477.214a3.9,3.9,0,0,0,.7.085.513.513,0,0,1,.065.272.359.359,0,0,1-.065.272q-1.932-.093-2.006-.093T319.067,92a.359.359,0,0,1-.066-.272.521.521,0,0,1,.066-.272,3.9,3.9,0,0,0,.7-.085c.292-.055.452-.128.477-.214a6.08,6.08,0,0,0,.094-1.388V87.762a5.353,5.353,0,0,0-.347-2.24,1.42,1.42,0,0,0-1.416-.7,1.86,1.86,0,0,0-.871.244,2.992,2.992,0,0,0-.713.5c-.168.169-.253.278-.253.328V86a1.245,1.245,0,0,1,.019.131,8.989,8.989,0,0,1,.075,1.331v2.306a6.08,6.08,0,0,0,.094,1.388c.025.086.184.159.478.214a3.881,3.881,0,0,0,.7.085.519.519,0,0,1,.067.272.359.359,0,0,1-.067.272q-1.931-.093-2.006-.093T314.117,92a.355.355,0,0,1-.065-.272.523.523,0,0,1,.065-.272,3.89,3.89,0,0,0,.7-.085c.294-.055.453-.128.479-.214a6.142,6.142,0,0,0,.094-1.388V87.856a5.252,5.252,0,0,0-.375-2.381,1.458,1.458,0,0,0-1.388-.656,2.044,2.044,0,0,0-1.153.4q-.591.4-.591.628v3.918a6.164,6.164,0,0,0,.093,1.388c.026.086.185.159.479.214a3.89,3.89,0,0,0,.7.085.521.521,0,0,1,.066.272.359.359,0,0,1-.066.272q-1.93-.093-2.006-.093T309.167,92a.359.359,0,0,1-.065-.272.523.523,0,0,1,.065-.272,3.87,3.87,0,0,0,.7-.085c.294-.055.453-.128.479-.214a6.164,6.164,0,0,0,.093-1.388V86.356a3.539,3.539,0,0,0-.093-1.05q-.132-.337-1.219-.337a.654.654,0,0,1,0-.488,8.4,8.4,0,0,0,2.682-.787c.049,0,.1.037.14.112a.408.408,0,0,1,.066.187c-.076.526-.113.851-.113.976,0,.05.012.074.037.074s.032-.012.057-.037A4.372,4.372,0,0,1,314.474,83.731Z"/><path d="M326.7,85.85v3.918a6.08,6.08,0,0,0,.094,1.388c.024.086.185.159.479.214a3.861,3.861,0,0,0,.7.085.533.533,0,0,1,.065.272.364.364,0,0,1-.065.272q-1.932-.093-2.007-.093T323.979,92a.359.359,0,0,1-.065-.272.523.523,0,0,1,.065-.272,3.9,3.9,0,0,0,.7-.085c.294-.055.453-.128.478-.214a6.142,6.142,0,0,0,.094-1.388V86.281a3.146,3.146,0,0,0-.094-.975q-.132-.337-1.219-.337a.415.415,0,0,1-.046-.226.409.409,0,0,1,.046-.262,8.391,8.391,0,0,0,2.681-.787c.05,0,.1.037.141.112a.393.393,0,0,1,.065.187,10.961,10.961,0,0,0-.131,1.238Zm-1.528-4.36a.95.95,0,1,1,.666.272A.9.9,0,0,1,325.17,81.49Z"/></g><g class="b"><path d="M334.405,83.731a1.993,1.993,0,0,1,1.931.9,6.952,6.952,0,0,1,.487,3.075v2.062a6.08,6.08,0,0,0,.094,1.388c.025.086.185.159.479.214a3.861,3.861,0,0,0,.7.085.533.533,0,0,1,.065.272A.364.364,0,0,1,338.1,92q-1.93-.093-2.006-.093T334.1,92a.364.364,0,0,1-.065-.272.533.533,0,0,1,.065-.272,3.88,3.88,0,0,0,.7-.085c.294-.055.453-.128.478-.214a6.08,6.08,0,0,0,.094-1.388V87.894a5.372,5.372,0,0,0-.375-2.419,1.535,1.535,0,0,0-1.463-.656,2.158,2.158,0,0,0-1.125.431c-.438.287-.656.488-.656.6v3.918a6.164,6.164,0,0,0,.093,1.388c.026.086.185.159.479.214a3.89,3.89,0,0,0,.7.085.521.521,0,0,1,.066.272.359.359,0,0,1-.066.272q-1.93-.093-2.006-.093T329.042,92a.359.359,0,0,1-.065-.272.523.523,0,0,1,.065-.272,3.87,3.87,0,0,0,.7-.085c.294-.055.453-.128.479-.214a6.164,6.164,0,0,0,.093-1.388V86.356a3.539,3.539,0,0,0-.093-1.05q-.132-.337-1.219-.337a.654.654,0,0,1,0-.488,8.4,8.4,0,0,0,2.682-.787c.049,0,.1.037.14.112a.408.408,0,0,1,.066.187,9.082,9.082,0,0,0-.113,1.07c0,.05.012.074.037.074s.032-.012.057-.037a5.416,5.416,0,0,1,1.152-.891A2.732,2.732,0,0,1,334.405,83.731Z"/><path d="M340.423,87.293v.132a3.526,3.526,0,0,0,.882,2.559,2.907,2.907,0,0,0,2.174.909,2.317,2.317,0,0,0,1.219-.328,3.639,3.639,0,0,0,.844-.666.075.075,0,0,1,.047.028.5.5,0,0,1,.065.094.271.271,0,0,1,.038.14.672.672,0,0,1-.113.338,3.85,3.85,0,0,1-1.058,1.087,2.8,2.8,0,0,1-1.679.507,3.542,3.542,0,0,1-2.7-1.116,3.9,3.9,0,0,1-1.05-2.783,4.54,4.54,0,0,1,1.19-3.131,3.391,3.391,0,0,1,2.5-1.332,3.163,3.163,0,0,1,1.378.281,2.092,2.092,0,0,1,.881.723,3.644,3.644,0,0,1,.422.824,2.232,2.232,0,0,1,.132.722q0,.862-.451.881Q343.105,87.294,340.423,87.293Zm.094-.693h3.056a.382.382,0,0,0,.432-.432,2.12,2.12,0,0,0-.395-1.162,1.281,1.281,0,0,0-1.143-.6,1.529,1.529,0,0,0-1.181.543,2.965,2.965,0,0,0-.656,1.1C340.517,86.415,340.479,86.6,340.517,86.6Z"/><path d="M347.305,91.1a.957.957,0,0,1,.309-.713,1.028,1.028,0,0,1,.74-.3.99.99,0,0,1,.713.291.966.966,0,0,1,.3.722,1.024,1.024,0,0,1-.3.74.958.958,0,0,1-.713.31,1.018,1.018,0,0,1-.731-.31A.991.991,0,0,1,347.305,91.1Z"/></g><g class="b"><path d="M34.926,114.456q2.475-6.354,3.619-9.28a1.161,1.161,0,0,1,.328-.347.759.759,0,0,1,.384-.2.077.077,0,0,1,.057.02c.025.024.043.037.056.037L43.194,114.7l.469,1.238a.929.929,0,0,0,.582.459,2.2,2.2,0,0,0,.693.178.578.578,0,0,1,.038.544q-1.875-.093-2.063-.093l-2.174.093a.353.353,0,0,1-.066-.272.416.416,0,0,1,.084-.272,1.654,1.654,0,0,0,1.051-.244.37.37,0,0,0,.074-.262,5.142,5.142,0,0,0-.318-1.163q-.319-.918-.638-1.705l-.319-.788a.15.15,0,0,0-.112-.074q-.243-.02-1.856-.019-1.182,0-2.025.056l-.094.057q-.525,1.388-.844,2.286a4.22,4.22,0,0,0-.262,1.331q0,.282.487.4a3.473,3.473,0,0,0,.807.122.564.564,0,0,1,.056.253.631.631,0,0,1-.019.291l-.581-.038q-.32-.018-.591-.037c-.181-.013-.4-.018-.647-.018s-.475.005-.675.018-.418.025-.656.037l-.675.038a.441.441,0,0,1-.038-.244.873.873,0,0,1,.038-.3,2.673,2.673,0,0,0,.619-.093.913.913,0,0,0,.506-.263A7.487,7.487,0,0,0,34.926,114.456ZM38.6,106.9l-1.725,4.574c0,.051.013.075.038.075q.974.037,1.706.038.712,0,1.575-.057l.056-.093Z"/><path d="M48.857,117.194a6.079,6.079,0,0,1-1.387-.282,2.235,2.235,0,0,0-1.219-.112c-.038,0-.088-.056-.15-.169a.6.6,0,0,1-.094-.243A3.491,3.491,0,0,0,46.232,115v-8.4a3.122,3.122,0,0,0-.094-.975c-.1-.224-.481-.338-1.143-.338-.013,0-.022-.04-.029-.121a1.656,1.656,0,0,1,0-.244c.007-.081.022-.122.047-.122a8.543,8.543,0,0,0,2.663-.75c.05,0,.1.035.14.1a.361.361,0,0,1,.066.2,5.2,5.2,0,0,0-.206,1.632v3.693c0,.138.019.206.056.206a.153.153,0,0,0,.057-.018,7.684,7.684,0,0,1,1.087-.647,2.741,2.741,0,0,1,1.181-.366,2.99,2.99,0,0,1,2.5,1.21,4.231,4.231,0,0,1,.928,2.634,4.319,4.319,0,0,1-1.331,3.177A4.5,4.5,0,0,1,48.857,117.194Zm.3-7.237a2.18,2.18,0,0,0-.787.179,1.882,1.882,0,0,0-.6.328.285.285,0,0,0-.094.206v4.555a1.123,1.123,0,0,0,.544.957,2.065,2.065,0,0,0,1.2.375,2.169,2.169,0,0,0,1.745-.984,3.477,3.477,0,0,0,.75-2.147,3.934,3.934,0,0,0-.75-2.54A2.45,2.45,0,0,0,49.157,109.957Z"/></g><g class="b"><path d="M63.893,108.907a1.91,1.91,0,0,1,1.641.75,3.311,3.311,0,0,1,.553,2.006,6.053,6.053,0,0,1-1.34,3.741,3.745,3.745,0,0,1-2.935,1.752,1.921,1.921,0,0,1-1.631-.712,3.173,3.173,0,0,1-.544-1.969,6.219,6.219,0,0,1,1.331-3.786A3.711,3.711,0,0,1,63.893,108.907Zm-.262.6q-1.088,0-1.81,1.5A7.064,7.064,0,0,0,61.1,114.1a4.68,4.68,0,0,0,.281,1.791c.187.443.45.666.787.666a1.646,1.646,0,0,0,1.313-.778,5.344,5.344,0,0,0,.862-1.81,7.643,7.643,0,0,0,.282-2.024Q64.625,109.509,63.631,109.507Z"/><path d="M76.643,115.206l.656-3.092a4.857,4.857,0,0,0,.132-1.013,3.824,3.824,0,0,0-.019-.431.613.613,0,0,0-.094-.263.271.271,0,0,0-.244-.112q-.618,0-1.819,1.482a6.429,6.429,0,0,0-1.443,2.811l-.469,2.475a5.048,5.048,0,0,1-.694.056,4.283,4.283,0,0,1-.656-.056l1.05-5.324a3.845,3.845,0,0,0,.075-.712c0-.489-.125-.732-.375-.732q-.637,0-1.781,1.575a7.85,7.85,0,0,0-1.425,2.906l-.469,2.287a2.653,2.653,0,0,1-.675.075,4.5,4.5,0,0,1-.656-.075l1.237-6.056a4.582,4.582,0,0,0,.075-.6c0-.312-.063-.468-.187-.468a.528.528,0,0,0-.235.075,1.553,1.553,0,0,0-.272.187c-.086.076-.18.163-.28.263s-.185.188-.253.262-.135.144-.2.207l-.075.094c-.026,0-.063-.047-.113-.141a.519.519,0,0,1-.075-.216,5.212,5.212,0,0,1,1.012-1.088,2.206,2.206,0,0,1,1.35-.675.635.635,0,0,1,.516.282,1.11,1.11,0,0,1,.216.693,7.662,7.662,0,0,1-.15.994q-.094.45-.375,1.744a18.135,18.135,0,0,1,1.706-2.484q.993-1.228,1.631-1.229,1.256,0,1.256,1.782a5.03,5.03,0,0,1-.262,1.669,12.607,12.607,0,0,1,1.706-2.269q1.087-1.182,1.744-1.182,1.162,0,1.162,1.238a9.817,9.817,0,0,1-.262,2.044l-.619,2.886a3.236,3.236,0,0,0-.075.6q0,.469.187.469a.528.528,0,0,0,.235-.075,1.524,1.524,0,0,0,.272-.188c.087-.074.181-.162.281-.262s.184-.187.253-.262.128-.144.178-.206l.094-.094c.025,0,.062.047.112.141a.512.512,0,0,1,.075.214,4.776,4.776,0,0,1-1.049,1.078,2.4,2.4,0,0,1-1.407.685.525.525,0,0,1-.468-.271,1.315,1.315,0,0,1-.169-.7A6.084,6.084,0,0,1,76.643,115.206Z"/></g><g class="b"><path d="M83.693,110.876l-.338,1.575a12.091,12.091,0,0,1,1.623-2.137q1.247-1.407,2.053-1.407,1.162,0,1.162,1.238a10.761,10.761,0,0,1-.262,2.044l-.619,2.886a3.236,3.236,0,0,0-.075.6q0,.469.187.469a.528.528,0,0,0,.235-.075,1.56,1.56,0,0,0,.272-.188c.087-.074.181-.162.281-.262s.184-.187.253-.262.134-.144.2-.206l.075-.094c.025,0,.062.047.113.141a.522.522,0,0,1,.074.214,4.8,4.8,0,0,1-1.049,1.078,2.4,2.4,0,0,1-1.407.685A.525.525,0,0,1,86,116.9a1.315,1.315,0,0,1-.169-.7,6.2,6.2,0,0,1,.131-.994l.656-3.092a4.857,4.857,0,0,0,.132-1.013,3.556,3.556,0,0,0-.02-.431.6.6,0,0,0-.093-.263.271.271,0,0,0-.244-.112q-.637,0-1.9,1.444a6.394,6.394,0,0,0-1.566,3.037q-.074.375-.468,2.287a2.794,2.794,0,0,1-.675.075,2.692,2.692,0,0,1-.656-.075l1.237-6.056a4.582,4.582,0,0,0,.075-.6c0-.312-.063-.468-.187-.468a.528.528,0,0,0-.235.075,1.517,1.517,0,0,0-.272.187c-.087.076-.181.163-.281.263s-.185.188-.253.262-.135.144-.2.207l-.075.094c-.025,0-.063-.047-.113-.141a.514.514,0,0,1-.074-.216,5.184,5.184,0,0,1,1.012-1.088,2.2,2.2,0,0,1,1.35-.675.632.632,0,0,1,.515.282,1.1,1.1,0,0,1,.216.693A4.654,4.654,0,0,1,83.693,110.876Z"/><path d="M91.736,111.007a4.646,4.646,0,0,0,.076-.6q0-.468-.188-.468a.525.525,0,0,0-.234.075,1.482,1.482,0,0,0-.272.187c-.088.076-.181.163-.282.263s-.184.188-.253.262-.128.144-.178.207l-.093.094c-.026,0-.063-.047-.113-.141a.519.519,0,0,1-.075-.216,5.2,5.2,0,0,1,1.013-1.088,2.2,2.2,0,0,1,1.349-.675.634.634,0,0,1,.516.282,1.1,1.1,0,0,1,.216.693,6.1,6.1,0,0,1-.132.994l-.956,4.2a3.236,3.236,0,0,0-.075.6q0,.469.188.469a.529.529,0,0,0,.234-.075,1.489,1.489,0,0,0,.272-.188c.087-.074.181-.162.281-.262s.184-.187.253-.262.134-.144.2-.206l.075-.094c.025,0,.063.047.113.141a.512.512,0,0,1,.075.214,4.786,4.786,0,0,1-1.05,1.078,2.4,2.4,0,0,1-1.406.685.526.526,0,0,1-.469-.271,1.315,1.315,0,0,1-.169-.7,6.2,6.2,0,0,1,.131-.994Zm1.069-6.056a.614.614,0,0,1,.478.225.769.769,0,0,1,.2.525,1.17,1.17,0,0,1-.291.788.912.912,0,0,1-.721.337.545.545,0,0,1-.469-.234.956.956,0,0,1-.169-.572,1.1,1.1,0,0,1,.281-.75A.892.892,0,0,1,92.805,104.951Z"/></g><g class="b"><path d="M106.642,108.7a2.489,2.489,0,0,1,1.443.366,2.6,2.6,0,0,1,.862,1.247,7.012,7.012,0,0,1,1.556-1.125,3.359,3.359,0,0,1,1.519-.488,2.059,2.059,0,0,1,2.035,1.022,8.135,8.135,0,0,1,.515,3.4v1.218a6.16,6.16,0,0,0,.15,1.763c.062.162.463.274,1.2.337a.543.543,0,0,1,.065.347.793.793,0,0,1-.065.347,24.921,24.921,0,0,0-2.568-.132,22.873,22.873,0,0,0-2.344.132.79.79,0,0,1-.066-.347.549.549,0,0,1,.066-.347q.861-.075.974-.337a6.108,6.108,0,0,0,.151-1.763v-1.48q0-2.645-1.257-2.644a2.256,2.256,0,0,0-1.152.365q-.611.366-.61.666v.113q.075,1.05.074,1.762v1.218a6.108,6.108,0,0,0,.151,1.763q.093.261,1.162.337a.549.549,0,0,1,.066.347.805.805,0,0,1-.066.347,24.55,24.55,0,0,0-2.53-.132,23.18,23.18,0,0,0-2.381.132.8.8,0,0,1-.067-.347.548.548,0,0,1,.067-.347q.918-.075,1.012-.337a6.16,6.16,0,0,0,.15-1.763v-1.48q0-2.645-1.256-2.644a1.953,1.953,0,0,0-1.1.375c-.368.25-.552.476-.552.675v3.074a6.122,6.122,0,0,0,.15,1.763q.093.261,1.068.337a.549.549,0,0,1,.066.347.79.79,0,0,1-.066.347,23.705,23.705,0,0,0-2.437-.132,24.906,24.906,0,0,0-2.568.132.787.787,0,0,1-.067-.347.541.541,0,0,1,.067-.347q1.105-.094,1.2-.337a6.16,6.16,0,0,0,.15-1.763v-2.155a4.156,4.156,0,0,0-.169-1.537q-.093-.187-.524-.282a3.407,3.407,0,0,0-.656-.093c-.039-.026-.057-.129-.057-.31s.024-.272.075-.272a9.734,9.734,0,0,0,2-.375,10.2,10.2,0,0,0,1.659-.619.422.422,0,0,1,.206.141c.076.081.113.141.113.178a5.528,5.528,0,0,0-.122.581,2.327,2.327,0,0,0-.066.488c0,.063.006.1.019.112s.069-.031.132-.093a4.467,4.467,0,0,1,1.227-.956A2.929,2.929,0,0,1,106.642,108.7Z"/><path d="M120.722,108.645a2.734,2.734,0,0,1,2,.806,2.775,2.775,0,0,1,.815,2.063v3.505c0,.512.151.768.45.768a1.439,1.439,0,0,0,.544-.187.34.34,0,0,1,.131.319.554.554,0,0,1-.074.281,3,3,0,0,1-1.932.975,1.524,1.524,0,0,1-.872-.29,1.392,1.392,0,0,1-.552-.647,5.231,5.231,0,0,1-.957.59,2.74,2.74,0,0,1-1.163.385,2.367,2.367,0,0,1-1.743-.713,2.185,2.185,0,0,1-.713-1.575,1.673,1.673,0,0,1,.291-.956,1.25,1.25,0,0,1,.684-.543c.213-.062.531-.175.957-.337s.894-.344,1.406-.544l1.106-.431v-.881a2.64,2.64,0,0,0-.319-1.3.92.92,0,0,0-.787-.571.741.741,0,0,0-.7.393,4.568,4.568,0,0,0-.385,1.182.969.969,0,0,1-1.049.824.987.987,0,0,1-.685-.262.826.826,0,0,1-.291-.637,1.6,1.6,0,0,1,.263-.769,6.1,6.1,0,0,1,1.434-.9A4.731,4.731,0,0,1,120.722,108.645Zm-.394,7.256a1,1,0,0,0,.544-.141c.15-.094.225-.179.225-.254v-2.624c-.037.025-.215.107-.535.244a4.866,4.866,0,0,0-.7.356,1.327,1.327,0,0,0-.674,1.256,1.111,1.111,0,0,0,.375.862A1.17,1.17,0,0,0,120.328,115.9Z"/></g><g class="b"><path d="M126.254,112.17q3.9-.207,4.518-.225c.088,0,.132.056.132.169a2.4,2.4,0,0,1-.244,1.012q-.375.019-4.518.206c-.088,0-.132-.068-.132-.206A2.293,2.293,0,0,1,126.254,112.17Z"/></g><g class="b"><path d="M140.738,106.6a3.165,3.165,0,0,0-.093-.975c-.1-.224-.482-.338-1.145-.338-.012,0-.021-.04-.027-.121a1.42,1.42,0,0,1,0-.244c.006-.081.021-.122.047-.122a8.545,8.545,0,0,0,2.662-.75c.049,0,.1.035.14.1a.361.361,0,0,1,.066.2,5.169,5.169,0,0,0-.206,1.632v8.905a6.158,6.158,0,0,0,.093,1.388c.025.087.185.159.479.214a3.88,3.88,0,0,0,.7.085.523.523,0,0,1,.065.272.354.354,0,0,1-.065.272q-1.913-.093-2.006-.093-.057,0-1.988.093a.358.358,0,0,1-.066-.272.531.531,0,0,1,.066-.272,3.88,3.88,0,0,0,.7-.085c.294-.055.453-.127.479-.214a6.158,6.158,0,0,0,.093-1.388Z"/><path d="M148.613,108.832a3.835,3.835,0,0,1,2.915,1.154,4.086,4.086,0,0,1,1.1,2.934,4.321,4.321,0,0,1-1.134,3.046,3.709,3.709,0,0,1-2.841,1.228,3.845,3.845,0,0,1-2.924-1.163,4.12,4.12,0,0,1-1.107-2.961,4.232,4.232,0,0,1,1.144-3.028A3.763,3.763,0,0,1,148.613,108.832Zm-.207.619a1.764,1.764,0,0,0-1.64.938,4.6,4.6,0,0,0-.534,2.306,5.136,5.136,0,0,0,.712,2.69,2.142,2.142,0,0,0,1.893,1.19,1.763,1.763,0,0,0,1.641-.937,4.557,4.557,0,0,0,.535-2.287,5.207,5.207,0,0,0-.713-2.691A2.14,2.14,0,0,0,148.406,109.451Z"/><path d="M155.381,114.756a.946.946,0,0,1,.488.132,2.567,2.567,0,0,1,.338,1.312,3.793,3.793,0,0,1-.741,1.931,4.427,4.427,0,0,1-1.472,1.538c-.063,0-.125-.05-.187-.15a.5.5,0,0,1-.094-.243,2.561,2.561,0,0,0,1.181-2.082,1.3,1.3,0,0,0-.31-.722,1.37,1.37,0,0,1-.309-.8.856.856,0,0,1,.319-.618A1.107,1.107,0,0,1,155.381,114.756Z"/></g><g class="b"><path class="c" d="M167.774,105.57a1.057,1.057,0,0,1,.534-.356.526.526,0,0,1,.516.131.593.593,0,0,1,.187.516.879.879,0,0,1-.3.534,5.042,5.042,0,0,1-.946.628,4.375,4.375,0,0,0-.872.572l-.094.263c.012.087.075.149.187.187a3.649,3.649,0,0,0,.938.263,4.757,4.757,0,0,1,1.069.3,1.141,1.141,0,0,1,.506.4.483.483,0,0,1,.037.516.569.569,0,0,1-.431.337.864.864,0,0,1-.6-.113,4.44,4.44,0,0,1-.909-.7,4.445,4.445,0,0,0-.8-.646l-.263-.057c-.05.025-.087.106-.112.244a4.3,4.3,0,0,0,.047.975,4.517,4.517,0,0,1,.028,1.106,1.045,1.045,0,0,1-.234.6.513.513,0,0,1-.479.187.578.578,0,0,1-.45-.29.825.825,0,0,1-.075-.609,4.607,4.607,0,0,1,.4-1.1,3.849,3.849,0,0,0,.365-.965.293.293,0,0,0-.056-.244.227.227,0,0,0-.244-.056,4.832,4.832,0,0,0-.9.356,4.362,4.362,0,0,1-1.069.375,1.122,1.122,0,0,1-.647-.037.471.471,0,0,1-.328-.394.581.581,0,0,1,.151-.525.855.855,0,0,1,.562-.263,4.685,4.685,0,0,1,1.153.038,4.519,4.519,0,0,0,1.022.056.308.308,0,0,0,.206-.149.264.264,0,0,0-.037-.263,5.216,5.216,0,0,0-.61-.76,5.336,5.336,0,0,1-.684-.89q-.412-.75.112-1.05.6-.3.957.431a5.141,5.141,0,0,1,.309,1.106,4.277,4.277,0,0,0,.272.994c.062.125.125.194.187.206a.289.289,0,0,0,.244-.112,4.011,4.011,0,0,0,.525-.816A4.563,4.563,0,0,1,167.774,105.57Z"/></g><g class="b"><path d="M185.359,106.6a3.165,3.165,0,0,0-.093-.975c-.1-.224-.482-.338-1.144-.338-.013,0-.022-.04-.028-.121a1.42,1.42,0,0,1,0-.244c.006-.081.021-.122.047-.122a8.537,8.537,0,0,0,2.662-.75c.05,0,.1.035.14.1a.363.363,0,0,1,.067.2,5.166,5.166,0,0,0-.207,1.632v8.905a6.158,6.158,0,0,0,.093,1.388c.026.087.185.159.479.214a3.89,3.89,0,0,0,.7.085.521.521,0,0,1,.066.272.358.358,0,0,1-.066.272q-1.912-.093-2.006-.093-.057,0-1.988.093a.358.358,0,0,1-.065-.272.523.523,0,0,1,.065-.272,3.87,3.87,0,0,0,.7-.085c.294-.055.453-.127.479-.214a6.158,6.158,0,0,0,.093-1.388Z"/><path d="M191.865,110.97v3.918a6.074,6.074,0,0,0,.094,1.388c.025.087.185.159.479.214a3.87,3.87,0,0,0,.7.085.533.533,0,0,1,.065.272.362.362,0,0,1-.065.272q-1.93-.093-2.006-.093t-1.989.093a.362.362,0,0,1-.065-.272.533.533,0,0,1,.065-.272,3.88,3.88,0,0,0,.7-.085c.294-.055.453-.127.478-.214a6.074,6.074,0,0,0,.094-1.388V111.4a3.122,3.122,0,0,0-.094-.976q-.132-.338-1.219-.337a.417.417,0,0,1-.047-.225.427.427,0,0,1,.047-.263,8.4,8.4,0,0,0,2.682-.787c.05,0,.1.037.141.112a.4.4,0,0,1,.065.188,10.768,10.768,0,0,0-.132,1.237Zm.507-6.169q.675,0,.675.544,0,.395-1.313,1.425a6.113,6.113,0,0,1-1.518,1.031c-.112,0-.169-.081-.169-.243a7.72,7.72,0,0,1,.684-1.06q.685-.984,1.134-1.547A.7.7,0,0,1,192.372,104.8Z"/></g><g class="b"><path d="M194.865,112.17q3.9-.207,4.52-.225c.087,0,.131.056.131.169a2.375,2.375,0,0,1-.245,1.012q-.375.019-4.518.206c-.087,0-.131-.068-.131-.206A2.306,2.306,0,0,1,194.865,112.17Z"/></g><g class="b"><path d="M207.9,117.194a6.079,6.079,0,0,1-1.387-.282,2.235,2.235,0,0,0-1.219-.112c-.038,0-.088-.056-.15-.169a.6.6,0,0,1-.094-.243,3.491,3.491,0,0,0,.225-1.388v-8.4a3.122,3.122,0,0,0-.094-.975c-.1-.224-.481-.338-1.143-.338-.013,0-.022-.04-.029-.121a1.656,1.656,0,0,1,0-.244c.007-.081.022-.122.047-.122a8.543,8.543,0,0,0,2.663-.75c.05,0,.1.035.14.1a.361.361,0,0,1,.066.2,5.2,5.2,0,0,0-.206,1.632v3.693c0,.138.019.206.056.206a.153.153,0,0,0,.057-.018,7.684,7.684,0,0,1,1.087-.647,2.741,2.741,0,0,1,1.181-.366,2.99,2.99,0,0,1,2.5,1.21,4.231,4.231,0,0,1,.928,2.634,4.319,4.319,0,0,1-1.331,3.177A4.5,4.5,0,0,1,207.9,117.194Zm.3-7.237a2.18,2.18,0,0,0-.787.179,1.9,1.9,0,0,0-.6.328.288.288,0,0,0-.093.206v4.555a1.123,1.123,0,0,0,.544.957,2.065,2.065,0,0,0,1.2.375,2.169,2.169,0,0,0,1.745-.984,3.477,3.477,0,0,0,.75-2.147,3.934,3.934,0,0,0-.75-2.54A2.45,2.45,0,0,0,208.2,109.957Z"/><path d="M215.362,112.413v.132a3.53,3.53,0,0,0,.881,2.559,2.911,2.911,0,0,0,2.175.909,2.313,2.313,0,0,0,1.219-.328,3.639,3.639,0,0,0,.844-.666.083.083,0,0,1,.047.028.5.5,0,0,1,.065.094.281.281,0,0,1,.038.14.672.672,0,0,1-.113.338,3.841,3.841,0,0,1-1.059,1.087,2.793,2.793,0,0,1-1.678.507,3.542,3.542,0,0,1-2.7-1.116,3.9,3.9,0,0,1-1.05-2.783,4.544,4.544,0,0,1,1.19-3.131,3.391,3.391,0,0,1,2.5-1.332,3.18,3.18,0,0,1,1.378.281,2.106,2.106,0,0,1,.881.723,3.686,3.686,0,0,1,.422.824,2.257,2.257,0,0,1,.131.723q0,.861-.45.88Q218.044,112.414,215.362,112.413Zm.094-.693h3.056a.382.382,0,0,0,.431-.432,2.121,2.121,0,0,0-.394-1.162,1.281,1.281,0,0,0-1.143-.6,1.524,1.524,0,0,0-1.181.543,2.957,2.957,0,0,0-.657,1.1C215.456,111.535,215.418,111.72,215.456,111.72Z"/></g><g class="b"><path d="M222.675,112.17q3.9-.207,4.519-.225c.087,0,.131.056.131.169a2.388,2.388,0,0,1-.244,1.012q-.375.019-4.519.206c-.087,0-.131-.068-.131-.206A2.293,2.293,0,0,1,222.675,112.17Z"/></g><g class="b"><path d="M235.953,108.87a1.543,1.543,0,0,1,.685.16,1.038,1.038,0,0,1,.459.383,1.607,1.607,0,0,1,.075.507,1.086,1.086,0,0,1-.215.722.478.478,0,0,1-.629.206,1.464,1.464,0,0,1-.281-.169c-.112-.081-.175-.128-.188-.141a1.241,1.241,0,0,0-.693-.224,1.317,1.317,0,0,0-1.022.637,1.933,1.933,0,0,0-.478,1.05v2.887a6.158,6.158,0,0,0,.093,1.388c.025.087.247.159.666.214a7.648,7.648,0,0,0,.947.085.521.521,0,0,1,.066.272.358.358,0,0,1-.066.272q-1.913-.093-2.325-.093-.187,0-2.1.093a.358.358,0,0,1-.066-.272.531.531,0,0,1,.066-.272,3.89,3.89,0,0,0,.7-.085c.294-.055.453-.127.478-.214a6.136,6.136,0,0,0,.094-1.388V111.4a3.154,3.154,0,0,0-.094-.976c-.087-.225-.494-.337-1.218-.337a.408.408,0,0,1-.047-.225.413.413,0,0,1,.047-.263,8.391,8.391,0,0,0,2.681-.787c.05,0,.1.037.14.112a.4.4,0,0,1,.066.188,12.145,12.145,0,0,0-.131,1.725c0,.074.024.087.075.037a4.694,4.694,0,0,1,.975-1.349A1.836,1.836,0,0,1,235.953,108.87Z"/><path d="M241.971,108.889a1.814,1.814,0,0,1,1.425.75,2.761,2.761,0,0,1,.619,1.818v3.862q0,.88.581.881a1.225,1.225,0,0,0,.619-.244c.05,0,.075.05.075.151a.654.654,0,0,1-.094.356,3.642,3.642,0,0,1-.684.459,1.651,1.651,0,0,1-.722.253.954.954,0,0,1-.722-.375,1.81,1.81,0,0,1-.422-.844,6.536,6.536,0,0,1-1.068.76,2.708,2.708,0,0,1-1.238.5,2.143,2.143,0,0,1-1.565-.619,2.069,2.069,0,0,1-.628-1.537,1.618,1.618,0,0,1,.291-.957,1.4,1.4,0,0,1,.646-.543q3.188-1.143,3.281-1.181a.313.313,0,0,0,.188-.14.95.95,0,0,0,.037-.329v-.5a1.882,1.882,0,0,0-.478-1.229,1.439,1.439,0,0,0-1.134-.572.822.822,0,0,0-.694.291,2.077,2.077,0,0,0-.338.872q-.15.9-.881.9a.546.546,0,0,1-.459-.243.9.9,0,0,1-.178-.544.711.711,0,0,1,.132-.45,6.907,6.907,0,0,1,1.536-1.04A4.055,4.055,0,0,1,241.971,108.889Zm-1.012,7.311a2.373,2.373,0,0,0,1.041-.3q.589-.3.59-.469v-2.55q-1.444.432-1.744.544a1.531,1.531,0,0,0-1.143,1.462,1.312,1.312,0,0,0,.365.919A1.172,1.172,0,0,0,240.959,116.2Z"/></g><g class="b"><path d="M256.52,108.851a2,2,0,0,1,1.931.9,6.952,6.952,0,0,1,.487,3.075v2.062a6.136,6.136,0,0,0,.094,1.388c.025.087.185.159.479.214a3.871,3.871,0,0,0,.7.085.531.531,0,0,1,.066.272.358.358,0,0,1-.066.272q-1.931-.093-2-.093t-1.988.093a.358.358,0,0,1-.066-.272.531.531,0,0,1,.066-.272,3.89,3.89,0,0,0,.7-.085c.294-.055.453-.127.478-.214a6.136,6.136,0,0,0,.094-1.388v-1.874a5.372,5.372,0,0,0-.375-2.419,1.537,1.537,0,0,0-1.463-.656,2.164,2.164,0,0,0-1.125.431c-.437.287-.656.488-.656.6v3.918a6.074,6.074,0,0,0,.094,1.388c.025.087.184.159.478.214a3.89,3.89,0,0,0,.7.085.531.531,0,0,1,.066.272.358.358,0,0,1-.066.272q-1.93-.093-2.006-.093t-1.988.093a.354.354,0,0,1-.065-.272.523.523,0,0,1,.065-.272,3.87,3.87,0,0,0,.7-.085c.294-.055.453-.127.479-.214a6.136,6.136,0,0,0,.094-1.388v-3.412a3.527,3.527,0,0,0-.094-1.05q-.132-.338-1.219-.337a.653.653,0,0,1,0-.488,8.391,8.391,0,0,0,2.681-.787c.05,0,.1.037.141.112a.4.4,0,0,1,.065.188,9.443,9.443,0,0,0-.112,1.069c0,.05.012.074.038.074s.03-.012.056-.037a5.433,5.433,0,0,1,1.153-.891A2.726,2.726,0,0,1,256.52,108.851Z"/><path d="M265.22,108.832a3.835,3.835,0,0,1,2.915,1.154,4.086,4.086,0,0,1,1.1,2.934,4.321,4.321,0,0,1-1.134,3.046,3.709,3.709,0,0,1-2.841,1.228,3.846,3.846,0,0,1-2.925-1.163,4.119,4.119,0,0,1-1.106-2.961,4.232,4.232,0,0,1,1.144-3.028A3.762,3.762,0,0,1,265.22,108.832Zm-.207.619a1.762,1.762,0,0,0-1.64.938,4.6,4.6,0,0,0-.535,2.306,5.137,5.137,0,0,0,.713,2.69,2.14,2.14,0,0,0,1.893,1.19,1.763,1.763,0,0,0,1.641-.937,4.557,4.557,0,0,0,.535-2.287,5.207,5.207,0,0,0-.713-2.691A2.14,2.14,0,0,0,265.013,109.451Z"/><path d="M273.657,108.87a6.739,6.739,0,0,1,1.04.1q.628.1.872.141a11.275,11.275,0,0,1,.225,2.062c0,.063-.063.094-.187.094a.482.482,0,0,1-.319-.094,3.211,3.211,0,0,0-.6-1.181,1.237,1.237,0,0,0-.975-.544,1.37,1.37,0,0,0-.994.329,1.133,1.133,0,0,0-.337.852,1.229,1.229,0,0,0,.075.441,2.313,2.313,0,0,0,.15.329,1.076,1.076,0,0,0,.281.29c.137.106.244.184.319.234s.209.129.4.234.328.185.4.235q.038.018.431.253l.516.309q.122.075.431.32a2.011,2.011,0,0,1,.422.411,3.086,3.086,0,0,1,.234.44,1.349,1.349,0,0,1,.122.554,2.341,2.341,0,0,1-.862,1.847,3.011,3.011,0,0,1-2.025.74,5.15,5.15,0,0,1-.722-.047,7.767,7.767,0,0,1-.778-.159c-.3-.075-.532-.125-.694-.151a5.2,5.2,0,0,1-.215-.937,6.687,6.687,0,0,1-.1-1.012.548.548,0,0,1,.338-.113.3.3,0,0,1,.168.038,2.784,2.784,0,0,0,.76,1.219,1.768,1.768,0,0,0,1.265.562,1.359,1.359,0,0,0,.975-.356,1.306,1.306,0,0,0,.375-.994,1.511,1.511,0,0,0-.112-.6,1.27,1.27,0,0,0-.394-.487,4.754,4.754,0,0,0-.5-.357c-.144-.087-.359-.209-.647-.365s-.5-.271-.637-.347a2.36,2.36,0,0,1-1.425-2.006,2,2,0,0,1,.815-1.65A3,3,0,0,1,273.657,108.87Z"/><path d="M278.907,114.756a.948.948,0,0,1,.488.132,2.566,2.566,0,0,1,.337,1.312,3.784,3.784,0,0,1-.741,1.931,4.417,4.417,0,0,1-1.471,1.538c-.063,0-.125-.05-.188-.15a.5.5,0,0,1-.094-.243,2.558,2.558,0,0,0,1.181-2.082,1.307,1.307,0,0,0-.309-.722,1.37,1.37,0,0,1-.309-.8.856.856,0,0,1,.319-.618A1.1,1.1,0,0,1,278.907,114.756Z"/></g><g class="b"><path d="M291.411,104.726a6.648,6.648,0,0,1,4.8,1.707,5.785,5.785,0,0,1,1.781,4.368,7.714,7.714,0,0,1-.338,2.344,6.139,6.139,0,0,1-1.078,2,4.823,4.823,0,0,1-2.118,1.453,9.245,9.245,0,0,1-3.29.525H286.48a.354.354,0,0,1-.065-.272.513.513,0,0,1,.065-.272,4.713,4.713,0,0,0,.769-.085c.325-.055.5-.127.525-.214a6.136,6.136,0,0,0,.094-1.388v-8.006a6.118,6.118,0,0,0-.094-1.387q-.037-.132-.525-.215a4.713,4.713,0,0,0-.769-.085.513.513,0,0,1-.065-.272.351.351,0,0,1,.065-.271q1.932.093,2.212.093.357,0,1.323-.009T291.411,104.726Zm-1.893,2.194v7.986a3.886,3.886,0,0,0,.112,1.35q.188.264,1.538.263a4.923,4.923,0,0,0,3.553-1.36,5.244,5.244,0,0,0,1.415-3.964,7.757,7.757,0,0,0-.431-2.7,4.565,4.565,0,0,0-1.181-1.838,4.992,4.992,0,0,0-1.66-1,5.721,5.721,0,0,0-1.959-.329q-1.237,0-1.294.206A6.164,6.164,0,0,0,289.518,106.92Z"/><path d="M303.711,108.832a3.837,3.837,0,0,1,2.916,1.154,4.09,4.09,0,0,1,1.1,2.934,4.317,4.317,0,0,1-1.135,3.046,3.707,3.707,0,0,1-2.841,1.228,3.849,3.849,0,0,1-2.925-1.163,4.124,4.124,0,0,1-1.106-2.961,4.237,4.237,0,0,1,1.144-3.028A3.762,3.762,0,0,1,303.711,108.832Zm-.206.619a1.765,1.765,0,0,0-1.641.938,4.6,4.6,0,0,0-.534,2.306,5.136,5.136,0,0,0,.712,2.69,2.142,2.142,0,0,0,1.894,1.19,1.76,1.76,0,0,0,1.64-.937,4.546,4.546,0,0,0,.535-2.287,5.207,5.207,0,0,0-.713-2.691A2.14,2.14,0,0,0,303.505,109.451Zm1.763-4.65q.674,0,.674.544,0,.395-1.312,1.425a6.127,6.127,0,0,1-1.519,1.031c-.113,0-.169-.081-.169-.243a7.8,7.8,0,0,1,.685-1.06q.684-.984,1.134-1.547A.7.7,0,0,1,305.268,104.8Z"/></g><g class="b"><path d="M314.474,108.851a1.974,1.974,0,0,1,2.137,1.556,4.777,4.777,0,0,1,2.756-1.556,2,2,0,0,1,1.931.9,6.949,6.949,0,0,1,.488,3.075v2.062a6.013,6.013,0,0,0,.094,1.388c.024.087.183.159.477.214a3.9,3.9,0,0,0,.7.085.513.513,0,0,1,.065.272.358.358,0,0,1-.065.272q-1.932-.093-2.006-.093t-1.988.093a.358.358,0,0,1-.066-.272.521.521,0,0,1,.066-.272,3.9,3.9,0,0,0,.7-.085c.292-.055.452-.127.477-.214a6.074,6.074,0,0,0,.094-1.388v-2.006a5.356,5.356,0,0,0-.347-2.24,1.42,1.42,0,0,0-1.416-.7,1.86,1.86,0,0,0-.871.244,2.992,2.992,0,0,0-.713.5c-.168.169-.253.278-.253.328v.113c.013.075.019.119.019.131a8.989,8.989,0,0,1,.075,1.331v2.306a6.074,6.074,0,0,0,.094,1.388c.025.087.184.159.478.214a3.881,3.881,0,0,0,.7.085.519.519,0,0,1,.067.272.357.357,0,0,1-.067.272q-1.931-.093-2.006-.093t-1.987.093a.354.354,0,0,1-.065-.272.523.523,0,0,1,.065-.272,3.89,3.89,0,0,0,.7-.085c.294-.055.453-.127.479-.214a6.136,6.136,0,0,0,.094-1.388v-1.912a5.252,5.252,0,0,0-.375-2.381,1.458,1.458,0,0,0-1.388-.656,2.044,2.044,0,0,0-1.153.4q-.591.4-.591.628v3.918a6.158,6.158,0,0,0,.093,1.388c.026.087.185.159.479.214a3.89,3.89,0,0,0,.7.085.521.521,0,0,1,.066.272.358.358,0,0,1-.066.272q-1.93-.093-2.006-.093t-1.988.093a.358.358,0,0,1-.065-.272.523.523,0,0,1,.065-.272,3.87,3.87,0,0,0,.7-.085c.294-.055.453-.127.479-.214a6.158,6.158,0,0,0,.093-1.388v-3.412a3.539,3.539,0,0,0-.093-1.05q-.132-.338-1.219-.337a.408.408,0,0,1-.047-.225.42.42,0,0,1,.047-.263,8.4,8.4,0,0,0,2.682-.787c.049,0,.1.037.14.112a.408.408,0,0,1,.066.188c-.076.525-.113.85-.113.975,0,.05.012.074.037.074s.032-.011.057-.037A4.379,4.379,0,0,1,314.474,108.851Z"/><path d="M326.7,110.97v3.918a6.074,6.074,0,0,0,.094,1.388c.024.087.185.159.479.214a3.861,3.861,0,0,0,.7.085.533.533,0,0,1,.065.272.362.362,0,0,1-.065.272q-1.932-.093-2.007-.093t-1.988.093a.358.358,0,0,1-.065-.272.523.523,0,0,1,.065-.272,3.9,3.9,0,0,0,.7-.085c.294-.055.453-.127.478-.214a6.136,6.136,0,0,0,.094-1.388V111.4a3.154,3.154,0,0,0-.094-.976q-.132-.338-1.219-.337a.666.666,0,0,1,0-.488,8.391,8.391,0,0,0,2.681-.787c.05,0,.1.037.141.112a.393.393,0,0,1,.065.188,10.929,10.929,0,0,0-.131,1.237Zm-1.528-4.359a.953.953,0,1,1,.666.271A.9.9,0,0,1,325.17,106.611Z"/></g><g class="b"><path d="M334.405,108.851a2,2,0,0,1,1.931.9,6.952,6.952,0,0,1,.487,3.075v2.062a6.074,6.074,0,0,0,.094,1.388c.025.087.185.159.479.214a3.861,3.861,0,0,0,.7.085.533.533,0,0,1,.065.272.362.362,0,0,1-.065.272q-1.93-.093-2.006-.093t-1.989.093a.362.362,0,0,1-.065-.272.533.533,0,0,1,.065-.272,3.88,3.88,0,0,0,.7-.085c.294-.055.453-.127.478-.214a6.074,6.074,0,0,0,.094-1.388v-1.874a5.372,5.372,0,0,0-.375-2.419,1.535,1.535,0,0,0-1.463-.656,2.158,2.158,0,0,0-1.125.431c-.438.287-.656.488-.656.6v3.918a6.158,6.158,0,0,0,.093,1.388c.026.087.185.159.479.214a3.89,3.89,0,0,0,.7.085.521.521,0,0,1,.066.272.358.358,0,0,1-.066.272q-1.93-.093-2.006-.093t-1.988.093a.358.358,0,0,1-.065-.272.523.523,0,0,1,.065-.272,3.87,3.87,0,0,0,.7-.085c.294-.055.453-.127.479-.214a6.158,6.158,0,0,0,.093-1.388v-3.412a3.539,3.539,0,0,0-.093-1.05q-.132-.338-1.219-.337a.408.408,0,0,1-.047-.225.42.42,0,0,1,.047-.263,8.4,8.4,0,0,0,2.682-.787c.049,0,.1.037.14.112a.408.408,0,0,1,.066.188,9.051,9.051,0,0,0-.113,1.069c0,.05.012.074.037.074s.032-.012.057-.037a5.449,5.449,0,0,1,1.152-.891A2.732,2.732,0,0,1,334.405,108.851Z"/><path d="M340.423,112.413v.132a3.526,3.526,0,0,0,.882,2.559,2.907,2.907,0,0,0,2.174.909,2.308,2.308,0,0,0,1.219-.328,3.639,3.639,0,0,0,.844-.666.08.08,0,0,1,.047.028.5.5,0,0,1,.065.094.271.271,0,0,1,.038.14.672.672,0,0,1-.113.338,3.85,3.85,0,0,1-1.058,1.087,2.8,2.8,0,0,1-1.679.507,3.542,3.542,0,0,1-2.7-1.116,3.9,3.9,0,0,1-1.05-2.783,4.544,4.544,0,0,1,1.19-3.131,3.391,3.391,0,0,1,2.5-1.332,3.177,3.177,0,0,1,1.378.281,2.1,2.1,0,0,1,.881.723,3.644,3.644,0,0,1,.422.824,2.233,2.233,0,0,1,.132.723q0,.861-.451.88Q343.105,112.414,340.423,112.413Zm.094-.693h3.056a.382.382,0,0,0,.432-.432,2.123,2.123,0,0,0-.395-1.162,1.28,1.28,0,0,0-1.143-.6,1.526,1.526,0,0,0-1.181.543,2.954,2.954,0,0,0-.656,1.1C340.517,111.535,340.479,111.72,340.517,111.72Z"/><path d="M347.305,116.219a.959.959,0,0,1,.309-.713,1.028,1.028,0,0,1,.74-.3.99.99,0,0,1,.713.291.966.966,0,0,1,.3.722,1.024,1.024,0,0,1-.3.74.958.958,0,0,1-.713.31,1.018,1.018,0,0,1-.731-.31A.991.991,0,0,1,347.305,116.219Z"/></g><path d="M342.444,39.943q3.126,0,3.125,1.807v5.908a5.276,5.276,0,0,0-6.25,0V41.75Q339.319,39.944,342.444,39.943Z"/><path d="M348.662,37.563a1.5,1.5,0,0,1,1.093.43,1.417,1.417,0,0,1,.439,1.053,1.513,1.513,0,0,1-1.532,1.517,1.4,1.4,0,0,1-1.028-.447,1.469,1.469,0,0,1-.44-1.07,1.485,1.485,0,0,1,1.468-1.483Z"/><rect x="356.507" y="6.25" width="0.8" height="37.5"/><rect x="361.957" y="6.25" width="0.8" height="37.5"/><path d="M22.228,14.943q3.124,0,3.125,1.807v5.908a4.254,4.254,0,0,0-3.125-1.025A4.254,4.254,0,0,0,19.1,22.658V16.75Q19.1,14.944,22.228,14.943Z"/><path class="a" d="M22.233,16.09a2.8,2.8,0,0,1,1.747.426,1.194,1.194,0,0,1,.286,1.031v3.2a5.423,5.423,0,0,0-2.027-.375,7.385,7.385,0,0,0-2.039.292c0-1.2,0-2.4,0-3.6a1.071,1.071,0,0,1,.914-.86A4.493,4.493,0,0,1,22.233,16.09Z"/></svg>