<svg xmlns="http://www.w3.org/2000/svg" viewBox="0 0 576 73.506"><defs><style>.a{isolation:isolate;}.b{fill:#fff;}.c{fill:red;}</style></defs><rect y="5.85" width="281.7" height="0.8"/><rect y="18.35" width="281.7" height="0.8"/><rect y="30.85" width="281.7" height="0.8"/><rect y="43.35" width="281.7" height="0.801"/><path d="M0,24.9V12.645A4.174,4.174,0,0,1,1.123,9.593a3.918,3.918,0,0,1,2.93-1.148,2.181,2.181,0,0,1,1.611.586,2.112,2.112,0,0,1,.586,1.563v6.738l-.391-.342a5.233,5.233,0,0,0-1.147-.708,3.71,3.71,0,0,0-1.636-.366,2.542,2.542,0,0,0-1.88.83,2.772,2.772,0,0,0-.8,2A2.852,2.852,0,0,0,1.2,20.774a2.507,2.507,0,0,0,1.88.855,3.928,3.928,0,0,0,1.636-.342A4.749,4.749,0,0,0,5.859,20.6l.391-.391V27a2.129,2.129,0,0,1-.586,1.538,2.128,2.128,0,0,1-1.611.61,3.875,3.875,0,0,1-2.93-1.171A4.262,4.262,0,0,1,0,24.9Z"/><g class="a"><path d="M12.59,56.513a3.521,3.521,0,0,1-1.135,2.739,4.275,4.275,0,0,1-2.99,1.031,1.82,1.82,0,0,1-.807-.151A.484.484,0,0,1,7.4,59.72q0-.111.093-.093a3.119,3.119,0,0,0,.713.13,2.54,2.54,0,0,0,1.912-.777,2.964,2.964,0,0,0,.75-2.146,3.15,3.15,0,0,0-.787-2.27,3.037,3.037,0,0,0-2.306-.824q-.862,0-.938.187a5.644,5.644,0,0,0-.094,1.407V63.32a6.153,6.153,0,0,0,.094,1.389c.025.086.2.158.525.214a4.7,4.7,0,0,0,.769.084.506.506,0,0,1,.065.272.355.355,0,0,1-.065.273q-1.911-.093-2.193-.093t-2.213.093a.355.355,0,0,1-.066-.273.524.524,0,0,1,.066-.272,4.692,4.692,0,0,0,.768-.084c.325-.056.5-.128.526-.214a6.176,6.176,0,0,0,.093-1.389V55.314a6.141,6.141,0,0,0-.093-1.387q-.039-.132-.526-.216a4.692,4.692,0,0,0-.768-.084.524.524,0,0,1-.066-.272.349.349,0,0,1,.066-.271q1.931.093,2.213.093.318,0,1.19-.019c.581-.012,1.071-.02,1.472-.02a4.507,4.507,0,0,1,2.794.91A2.932,2.932,0,0,1,12.59,56.513Z"/><path d="M15.248,60.845v.131a3.531,3.531,0,0,0,.882,2.561,2.911,2.911,0,0,0,2.175.908,2.306,2.306,0,0,0,1.218-.328,3.612,3.612,0,0,0,.844-.666.075.075,0,0,1,.047.029.408.408,0,0,1,.065.094.267.267,0,0,1,.039.14.678.678,0,0,1-.114.338,3.835,3.835,0,0,1-1.058,1.086,2.8,2.8,0,0,1-1.679.508,3.542,3.542,0,0,1-2.7-1.117,3.9,3.9,0,0,1-1.05-2.783,4.54,4.54,0,0,1,1.19-3.131,3.388,3.388,0,0,1,2.5-1.332,3.177,3.177,0,0,1,1.378.281,2.092,2.092,0,0,1,.881.723,3.644,3.644,0,0,1,.422.824,2.224,2.224,0,0,1,.132.723c0,.574-.151.867-.45.88Q17.93,60.846,15.248,60.845Zm.094-.693H18.4a.382.382,0,0,0,.432-.432,2.129,2.129,0,0,0-.394-1.162,1.283,1.283,0,0,0-1.144-.6,1.524,1.524,0,0,0-1.181.543,2.954,2.954,0,0,0-.656,1.1C15.342,59.966,15.305,60.152,15.342,60.152Z"/><path d="M28.393,58.257a.945.945,0,0,1-.216.686.665.665,0,0,1-.872.094,3.148,3.148,0,0,1-.4-.321,2.5,2.5,0,0,0-.309-.252,1.882,1.882,0,0,0-1.069-.357,1.823,1.823,0,0,0-1.453.873,3.694,3.694,0,0,0-.646,2.26,3.109,3.109,0,0,0,.844,2.371,3.063,3.063,0,0,0,2.193.8,2.536,2.536,0,0,0,1.987-.957.075.075,0,0,1,.047.029.405.405,0,0,1,.066.094.275.275,0,0,1,.038.14.675.675,0,0,1-.113.338,3.839,3.839,0,0,1-1.059,1.086,2.8,2.8,0,0,1-1.679.508,3.575,3.575,0,0,1-2.719-1.135,3.746,3.746,0,0,1-1.068-2.654,4.191,4.191,0,0,1,1.481-3.252,4.594,4.594,0,0,1,3.076-1.322,2.986,2.986,0,0,1,1.687.449A.716.716,0,0,1,28.393,58.257Z"/></g><g class="a"><path d="M34.3,57.339a1.806,1.806,0,0,1,1.163.469.828.828,0,0,1,.168.506,1.03,1.03,0,0,1-.168.6.541.541,0,0,1-.469.244.737.737,0,0,1-.675-.375,1.17,1.17,0,0,0-.975-.676q-.825,0-1.556,1.275a6.082,6.082,0,0,0-.731,3.077q0,2.041,1.293,2.043a1.025,1.025,0,0,0,.319-.057A2.014,2.014,0,0,0,33,64.3a2.843,2.843,0,0,0,.319-.2,3.2,3.2,0,0,0,.29-.225c.088-.074.175-.152.263-.234s.156-.15.206-.205.094-.109.131-.16l.076-.074c.025,0,.068.048.131.148a.511.511,0,0,1,.093.227,6.141,6.141,0,0,1-1.172,1.246,2.615,2.615,0,0,1-1.659.777A1.819,1.819,0,0,1,30.14,64.9a3.279,3.279,0,0,1-.544-2.025,5.487,5.487,0,0,1,1.575-3.834A4.405,4.405,0,0,1,34.3,57.339Z"/><path d="M41.6,57.339a4.147,4.147,0,0,1,1.463.245l-1.144,5.923q-.262,1.069.112,1.069a.525.525,0,0,0,.235-.074,1.678,1.678,0,0,0,.272-.188c.087-.074.181-.162.281-.262s.184-.187.253-.263.134-.143.2-.2l.075-.094c.025,0,.062.047.113.14a.525.525,0,0,1,.074.215,4.841,4.841,0,0,1-1.049,1.078,2.4,2.4,0,0,1-1.407.684.523.523,0,0,1-.468-.271,1.315,1.315,0,0,1-.169-.7,6.214,6.214,0,0,1,.131-.994q.075-.449.094-.58a8.526,8.526,0,0,1-1.238,1.658,2.206,2.206,0,0,1-1.519.873,1.442,1.442,0,0,1-1.209-.609,2.6,2.6,0,0,1-.459-1.6,5.535,5.535,0,0,1,.516-2.317,6.59,6.59,0,0,1,1.3-1.93A7,7,0,0,1,39.8,57.836,3.93,3.93,0,0,1,41.6,57.339Zm-.862.75a2.739,2.739,0,0,0-2.1,1.481,5.4,5.4,0,0,0-1.013,3.094q0,1.836.957,1.838.673,0,1.509-1.37A8.552,8.552,0,0,0,41.2,60.357l.393-1.986A1.1,1.1,0,0,0,40.734,58.089Z"/></g><path d="M40.091,21.193q3.124,0,3.125,1.807v5.908a4.256,4.256,0,0,0-3.125-1.025,4.253,4.253,0,0,0-3.125,1.025V23Q36.966,21.194,40.091,21.193Z"/><g class="a"><path d="M48.271,57.47h2.137c.075,0,.113.082.113.244a.657.657,0,0,1-.141.338,1.026,1.026,0,0,1-.29.3H48.271V63q0,1.423,1.012,1.425a1.377,1.377,0,0,0,.994-.451.383.383,0,0,1,.131.264.483.483,0,0,1-.15.355,2.7,2.7,0,0,1-1.987,1.032,2.472,2.472,0,0,1-1.725-.647,2.705,2.705,0,0,1-.713-2.092V58.351H44.5c-.063-.025-.094-.1-.094-.244a3.605,3.605,0,0,1,.6-.637h.825v-.994a14.216,14.216,0,0,0,1.191-1.162q.759-.806.778-.824a.558.558,0,0,1,.3-.094c.1,0,.156.031.169.094Z"/><path d="M55.677,57.115a4.4,4.4,0,0,1,3.169,1.18,3.948,3.948,0,0,1,1.237,2.982,4.355,4.355,0,0,1-4.368,4.35,4.367,4.367,0,0,1-3.169-1.2,4.006,4.006,0,0,1-1.237-3,4.153,4.153,0,0,1,1.265-3.047A4.222,4.222,0,0,1,55.677,57.115Zm-.206.767a1.17,1.17,0,0,0-.806.282,1.583,1.583,0,0,0-.459.806,6.222,6.222,0,0,0-.188.994,10.837,10.837,0,0,0-.047,1.088,6.652,6.652,0,0,0,.5,2.616q.5,1.172,1.434,1.171,1.519,0,1.519-3.13a6.673,6.673,0,0,0-.506-2.635Q56.408,57.882,55.471,57.882Zm1.8-5.043a.963.963,0,0,1,.647.188.506.506,0,0,1,.215.355q0,.47-1.34,1.51a5.718,5.718,0,0,1-1.585,1.041A.305.305,0,0,1,55,55.81a.338.338,0,0,1-.112-.215,2.629,2.629,0,0,1,.281-.515q.28-.46.712-1.078t.75-1A.916.916,0,0,1,57.271,52.839Z"/></g><g class="a"><path d="M62.015,60.6q3.9-.206,4.519-.224c.087,0,.131.056.131.168a2.4,2.4,0,0,1-.244,1.013l-4.519.2c-.087,0-.131-.068-.131-.2A2.3,2.3,0,0,1,62.015,60.6Z"/></g><path d="M55.7,8.693q3.124,0,3.125,1.807v5.908A4.254,4.254,0,0,0,55.7,15.383a4.254,4.254,0,0,0-3.125,1.025V10.5Q52.575,8.694,55.7,8.693Z"/><path d="M69.763,2.443q3.124,0,3.125,1.807v5.908a5.276,5.276,0,0,0-6.25,0V4.25Q66.638,2.444,69.763,2.443Z"/><path class="b" d="M69.768,3.59a2.8,2.8,0,0,1,1.747.426A1.2,1.2,0,0,1,71.8,5.047v3.2a5.428,5.428,0,0,0-2.028-.375,7.383,7.383,0,0,0-2.038.292c0-1.2-.006-2.4,0-3.6a1.069,1.069,0,0,1,.913-.86A4.5,4.5,0,0,1,69.768,3.59Z"/><g class="a"><path d="M78.29,57.3a1.552,1.552,0,0,1,.684.159,1.043,1.043,0,0,1,.46.384,1.631,1.631,0,0,1,.074.506,1.085,1.085,0,0,1-.215.723.477.477,0,0,1-.628.205,1.452,1.452,0,0,1-.282-.168c-.112-.082-.175-.129-.187-.141a1.237,1.237,0,0,0-.694-.224,1.321,1.321,0,0,0-1.022.636A1.943,1.943,0,0,0,76,60.433V63.32a6.091,6.091,0,0,0,.094,1.389c.025.086.247.158.666.214a7.591,7.591,0,0,0,.946.084.514.514,0,0,1,.066.272.359.359,0,0,1-.066.273q-1.911-.093-2.325-.093-.187,0-2.1.093a.355.355,0,0,1-.065-.273.525.525,0,0,1,.065-.272,3.863,3.863,0,0,0,.7-.084c.294-.056.453-.128.479-.214a6.153,6.153,0,0,0,.094-1.389V59.834a3.161,3.161,0,0,0-.094-.977c-.088-.225-.494-.336-1.219-.336A.422.422,0,0,1,73.2,58.3a.409.409,0,0,1,.047-.262,8.416,8.416,0,0,0,2.681-.787q.075,0,.141.111a.412.412,0,0,1,.065.188A12.308,12.308,0,0,0,76,59.271c0,.074.025.086.075.037a4.7,4.7,0,0,1,.975-1.349A1.84,1.84,0,0,1,78.29,57.3Z"/><path d="M81.8,60.845v.131a3.535,3.535,0,0,0,.881,2.561,2.914,2.914,0,0,0,2.176.908,2.312,2.312,0,0,0,1.218-.328,3.612,3.612,0,0,0,.844-.666.08.08,0,0,1,.047.029.442.442,0,0,1,.065.094.275.275,0,0,1,.038.14.675.675,0,0,1-.113.338,3.826,3.826,0,0,1-1.059,1.086,2.793,2.793,0,0,1-1.678.508,3.542,3.542,0,0,1-2.7-1.117,3.9,3.9,0,0,1-1.05-2.783,4.54,4.54,0,0,1,1.19-3.131,3.388,3.388,0,0,1,2.5-1.332,3.18,3.18,0,0,1,1.378.281,2.1,2.1,0,0,1,.881.723,3.686,3.686,0,0,1,.422.824,2.248,2.248,0,0,1,.131.723q0,.861-.45.88Q84.478,60.846,81.8,60.845Zm.094-.693h3.056a.382.382,0,0,0,.431-.432,2.121,2.121,0,0,0-.394-1.162,1.281,1.281,0,0,0-1.143-.6,1.521,1.521,0,0,0-1.181.543A2.957,2.957,0,0,0,82,59.6C81.89,59.966,81.853,60.152,81.89,60.152Z"/><path d="M91.434,57.3a6.731,6.731,0,0,1,1.04.1q.628.1.872.141a11.275,11.275,0,0,1,.225,2.062c0,.063-.063.094-.187.094a.482.482,0,0,1-.319-.094,3.222,3.222,0,0,0-.6-1.18,1.238,1.238,0,0,0-.975-.545,1.37,1.37,0,0,0-.994.329,1.135,1.135,0,0,0-.337.853,1.259,1.259,0,0,0,.074.441,2.307,2.307,0,0,0,.151.329,1.09,1.09,0,0,0,.281.289c.137.107.244.185.318.234s.21.129.4.234.328.186.4.235c.025.013.168.1.431.254l.516.308c.081.051.225.157.431.321a1.986,1.986,0,0,1,.422.412,3.014,3.014,0,0,1,.234.439,1.354,1.354,0,0,1,.122.555,2.339,2.339,0,0,1-.863,1.846,3.008,3.008,0,0,1-2.024.74,5.15,5.15,0,0,1-.722-.047c-.219-.031-.479-.084-.778-.158s-.532-.125-.694-.151a5.274,5.274,0,0,1-.216-.937,6.807,6.807,0,0,1-.1-1.012.542.542,0,0,1,.338-.113.306.306,0,0,1,.168.037,2.784,2.784,0,0,0,.76,1.219,1.768,1.768,0,0,0,1.265.562,1.363,1.363,0,0,0,.975-.355,1.308,1.308,0,0,0,.375-.994,1.507,1.507,0,0,0-.112-.6,1.282,1.282,0,0,0-.394-.488,4.834,4.834,0,0,0-.5-.356c-.144-.088-.359-.209-.647-.365L90.14,61.6a2.361,2.361,0,0,1-1.425-2.006,2,2,0,0,1,.815-1.65A3,3,0,0,1,91.434,57.3Z"/><path d="M96.683,63.189a.947.947,0,0,1,.488.131,2.571,2.571,0,0,1,.337,1.312,3.79,3.79,0,0,1-.74,1.932A4.423,4.423,0,0,1,95.3,68.1c-.063,0-.125-.049-.188-.15a.491.491,0,0,1-.093-.242A2.562,2.562,0,0,0,96.2,65.627a1.305,1.305,0,0,0-.31-.723,1.37,1.37,0,0,1-.309-.8.856.856,0,0,1,.319-.617A1.1,1.1,0,0,1,96.683,63.189Z"/></g><path d="M83.825,2.443q3.124,0,3.125,1.807v5.908a5.276,5.276,0,0,0-6.25,0V4.25Q80.7,2.444,83.825,2.443Z"/><path d="M90.042.063a1.5,1.5,0,0,1,1.094.43,1.417,1.417,0,0,1,.439,1.053,1.469,1.469,0,0,1-.44,1.07,1.472,1.472,0,0,1-1.093.447,1.4,1.4,0,0,1-1.027-.447,1.469,1.469,0,0,1-.44-1.07,1.414,1.414,0,0,1,.44-1.053A1.418,1.418,0,0,1,90.042.063Z"/><g class="a"><path class="c" d="M109.15,54a1.053,1.053,0,0,1,.535-.356.52.52,0,0,1,.515.131.593.593,0,0,1,.188.516.879.879,0,0,1-.3.533,5.019,5.019,0,0,1-.947.629,4.406,4.406,0,0,0-.872.572l-.094.262a.238.238,0,0,0,.188.187,3.661,3.661,0,0,0,.937.264,4.745,4.745,0,0,1,1.069.3,1.13,1.13,0,0,1,.506.4.484.484,0,0,1,.038.516.571.571,0,0,1-.432.336.864.864,0,0,1-.6-.112,4.44,4.44,0,0,1-.909-.7,4.366,4.366,0,0,0-.8-.646l-.262-.057c-.05.025-.088.1-.113.244a4.363,4.363,0,0,0,.047.975,4.459,4.459,0,0,1,.028,1.1,1.042,1.042,0,0,1-.234.6.511.511,0,0,1-.478.187.573.573,0,0,1-.45-.289.827.827,0,0,1-.075-.609,4.54,4.54,0,0,1,.4-1.1,3.9,3.9,0,0,0,.366-.965.288.288,0,0,0-.057-.244.225.225,0,0,0-.244-.056,4.809,4.809,0,0,0-.9.355,4.362,4.362,0,0,1-1.069.375,1.105,1.105,0,0,1-.647-.037.468.468,0,0,1-.328-.393.577.577,0,0,1,.15-.525.858.858,0,0,1,.562-.264,4.689,4.689,0,0,1,1.153.039,4.5,4.5,0,0,0,1.022.055.305.305,0,0,0,.206-.148.263.263,0,0,0-.037-.264,5.319,5.319,0,0,0-.609-.76,5.348,5.348,0,0,1-.685-.89q-.412-.75.113-1.049.6-.3.956.431a5.084,5.084,0,0,1,.309,1.106,4.343,4.343,0,0,0,.272.994c.063.125.125.193.188.2a.282.282,0,0,0,.243-.111,3.976,3.976,0,0,0,.526-.817A4.581,4.581,0,0,1,109.15,54Z"/></g><rect x="107.129" width="0.8" height="12.5"/><g class="a"><path d="M119.742,57.4h2.419c.062,0,.094.068.094.2a.787.787,0,0,1-.263.563h-2.25v4.912q0,1.538,1.237,1.539a2.075,2.075,0,0,0,1.219-.432.146.146,0,0,1,.057.131.4.4,0,0,1-.075.281,2.572,2.572,0,0,1-1.931,1.032q-1.952,0-1.951-2.026V58.164h-1.087c-.063,0-.094-.057-.094-.168q0-.114.487-.6h.694V56.214c.1-.113.244-.271.431-.478l.488-.535c.137-.149.213-.231.225-.242a.223.223,0,0,1,.113-.057.3.3,0,0,1,.131-.01c.038.006.056.022.056.047Z"/><path d="M124.654,60.845v.131a3.531,3.531,0,0,0,.882,2.561,2.911,2.911,0,0,0,2.175.908,2.313,2.313,0,0,0,1.219-.328,3.626,3.626,0,0,0,.843-.666c.013,0,.028.01.047.029a.438.438,0,0,1,.066.094.274.274,0,0,1,.037.14.673.673,0,0,1-.112.338,3.844,3.844,0,0,1-1.06,1.086,2.791,2.791,0,0,1-1.678.508,3.542,3.542,0,0,1-2.7-1.117,3.9,3.9,0,0,1-1.05-2.783,4.541,4.541,0,0,1,1.191-3.131,3.386,3.386,0,0,1,2.5-1.332,3.18,3.18,0,0,1,1.378.281,2.092,2.092,0,0,1,.881.723,3.644,3.644,0,0,1,.422.824,2.224,2.224,0,0,1,.132.723q0,.861-.451.88Q127.336,60.846,124.654,60.845Zm.094-.693h3.057a.382.382,0,0,0,.431-.432,2.129,2.129,0,0,0-.394-1.162,1.283,1.283,0,0,0-1.144-.6,1.524,1.524,0,0,0-1.181.543,2.954,2.954,0,0,0-.656,1.1C124.748,59.966,124.711,60.152,124.748,60.152Z"/></g><path d="M126.609,14.943q3.125,0,3.125,1.807v5.908a5.276,5.276,0,0,0-6.25,0V16.75Q123.484,14.944,126.609,14.943Z"/><g class="a"><path d="M141.265,57.3a1.556,1.556,0,0,1,.685.159,1.039,1.039,0,0,1,.459.384,1.6,1.6,0,0,1,.075.506,1.091,1.091,0,0,1-.215.723.478.478,0,0,1-.629.205,1.45,1.45,0,0,1-.281-.168c-.112-.082-.175-.129-.188-.141a1.234,1.234,0,0,0-.693-.224,1.318,1.318,0,0,0-1.022.636,1.936,1.936,0,0,0-.478,1.051V63.32a6.176,6.176,0,0,0,.093,1.389c.025.086.247.158.666.214a7.6,7.6,0,0,0,.947.084.524.524,0,0,1,.066.272.359.359,0,0,1-.066.273q-1.912-.093-2.325-.093-.187,0-2.1.093a.359.359,0,0,1-.066-.273.534.534,0,0,1,.066-.272,3.873,3.873,0,0,0,.7-.084c.294-.056.453-.128.478-.214a6.153,6.153,0,0,0,.094-1.389V59.834a3.161,3.161,0,0,0-.094-.977c-.087-.225-.494-.336-1.218-.336a.654.654,0,0,1,0-.488,8.416,8.416,0,0,0,2.681-.787c.05,0,.1.037.14.111a.4.4,0,0,1,.066.188,12.159,12.159,0,0,0-.131,1.726c0,.074.024.086.075.037a4.68,4.68,0,0,1,.975-1.349A1.836,1.836,0,0,1,141.265,57.3Z"/><path d="M147.453,57.263a3.836,3.836,0,0,1,2.916,1.155,4.081,4.081,0,0,1,1.1,2.933,4.32,4.32,0,0,1-1.134,3.047,3.708,3.708,0,0,1-2.841,1.229,3.849,3.849,0,0,1-2.925-1.163,4.126,4.126,0,0,1-1.106-2.962,4.229,4.229,0,0,1,1.144-3.028A3.763,3.763,0,0,1,147.453,57.263Zm-.206.619a1.764,1.764,0,0,0-1.641.938,4.6,4.6,0,0,0-.534,2.307,5.142,5.142,0,0,0,.712,2.691,2.143,2.143,0,0,0,1.894,1.189,1.761,1.761,0,0,0,1.64-.937,4.544,4.544,0,0,0,.535-2.287,5.216,5.216,0,0,0-.712-2.692A2.145,2.145,0,0,0,147.247,57.882Z"/></g><path d="M147.541,21.193q3.126,0,3.125,1.807v5.908a5.276,5.276,0,0,0-6.25,0V23Q144.416,21.194,147.541,21.193Z"/><g class="a"><path d="M157.953,64.24a3.551,3.551,0,0,1,2.015.59,1.669,1.669,0,0,1,.891,1.379,3.139,3.139,0,0,1-1.5,2.371,5.487,5.487,0,0,1-3.375,1.172,4.125,4.125,0,0,1-2.25-.59,1.9,1.9,0,0,1-.994-1.7,1.439,1.439,0,0,1,.638-1.068,7.153,7.153,0,0,1,1.35-.883,2.731,2.731,0,0,1-1.06-.646,1.472,1.472,0,0,1-.478-1.1,4.37,4.37,0,0,1,.75-.676,9.549,9.549,0,0,1,.863-.6,3.047,3.047,0,0,1-1.125-1.041,2.47,2.47,0,0,1-.431-1.36,2.623,2.623,0,0,1,.919-1.978,3.182,3.182,0,0,1,2.25-.854,5.086,5.086,0,0,1,1.706.414,2.631,2.631,0,0,0,.431.131l2.006-.281c.125.037.188.1.188.187a1.053,1.053,0,0,1-.15.413.879.879,0,0,1-.282.355l-1.237-.074c-.05,0-.075.019-.075.056a2.141,2.141,0,0,1,.328.637,2.931,2.931,0,0,1,.2,1.069,2.546,2.546,0,0,1-.938,1.894,3.187,3.187,0,0,1-2.231.863,2.766,2.766,0,0,1-1.05-.17c-.462.264-.694.538-.694.827q0,.188.31.421a1.31,1.31,0,0,0,.815.235Zm-.863,1.33a7.551,7.551,0,0,0-1.743.094q-1.125.638-1.125,1.256a1.911,1.911,0,0,0,.674,1.519,2.728,2.728,0,0,0,1.838.582,3.347,3.347,0,0,0,1.912-.629,1.733,1.733,0,0,0,.919-1.379,1.273,1.273,0,0,0-.637-.974A3.066,3.066,0,0,0,157.09,65.57Zm-.75-7.744a1.384,1.384,0,0,0-1.2.666,2.663,2.663,0,0,0-.45,1.529,2.786,2.786,0,0,0,.5,1.631,1.522,1.522,0,0,0,1.3.713,1.334,1.334,0,0,0,1.163-.649,2.62,2.62,0,0,0,.431-1.49,3.06,3.06,0,0,0-.459-1.678A1.448,1.448,0,0,0,156.34,57.826Z"/><path d="M165.565,57.32a1.814,1.814,0,0,1,1.425.75,2.763,2.763,0,0,1,.619,1.818v3.864q0,.88.581.88a1.216,1.216,0,0,0,.619-.244c.05,0,.075.051.075.151a.658.658,0,0,1-.094.357,3.742,3.742,0,0,1-.684.459,1.663,1.663,0,0,1-.722.252.953.953,0,0,1-.722-.375,1.8,1.8,0,0,1-.422-.844,6.5,6.5,0,0,1-1.069.76,2.7,2.7,0,0,1-1.237.5,2.145,2.145,0,0,1-1.566-.619,2.071,2.071,0,0,1-.628-1.537,1.618,1.618,0,0,1,.291-.957,1.393,1.393,0,0,1,.647-.543q3.188-1.146,3.281-1.182a.307.307,0,0,0,.187-.14.943.943,0,0,0,.038-.329v-.5a1.886,1.886,0,0,0-.478-1.229,1.439,1.439,0,0,0-1.135-.572.824.824,0,0,0-.694.291,2.086,2.086,0,0,0-.337.871q-.15.9-.881.9a.545.545,0,0,1-.459-.244.9.9,0,0,1-.179-.543.716.716,0,0,1,.132-.451,6.915,6.915,0,0,1,1.537-1.039A4.045,4.045,0,0,1,165.565,57.32Zm-1.012,7.312a2.363,2.363,0,0,0,1.04-.3q.591-.3.591-.469V61.314q-1.444.431-1.744.543A1.535,1.535,0,0,0,163.3,63.32a1.313,1.313,0,0,0,.366.92A1.171,1.171,0,0,0,164.553,64.632Zm1.631-11.4q.675,0,.675.545,0,.393-1.313,1.424a6.133,6.133,0,0,1-1.518,1.031c-.113,0-.169-.08-.169-.242a7.736,7.736,0,0,1,.684-1.061q.685-.984,1.135-1.547A.7.7,0,0,1,166.184,53.232Z"/></g><path d="M165.091,27.443q3.126,0,3.125,1.807v5.908a5.276,5.276,0,0,0-6.25,0V29.25Q161.966,27.444,165.091,27.443Z"/><g class="a"><path d="M175.109,57.283a1.975,1.975,0,0,1,2.138,1.556A4.777,4.777,0,0,1,180,57.283a2,2,0,0,1,1.931.9,6.947,6.947,0,0,1,.488,3.074V63.32a6.091,6.091,0,0,0,.094,1.389c.025.086.184.158.478.214a3.854,3.854,0,0,0,.7.084.525.525,0,0,1,.065.272.355.355,0,0,1-.065.273q-1.932-.093-2.007-.093t-1.987.093a.359.359,0,0,1-.066-.273.534.534,0,0,1,.066-.272,3.873,3.873,0,0,0,.7-.084c.294-.056.453-.128.478-.214a6.091,6.091,0,0,0,.094-1.389V61.314a5.369,5.369,0,0,0-.347-2.24,1.421,1.421,0,0,0-1.416-.7,1.845,1.845,0,0,0-.871.244,2.992,2.992,0,0,0-.713.5c-.169.168-.253.277-.253.328v.113c.012.075.018.118.018.131a8.948,8.948,0,0,1,.076,1.33V63.32a6.176,6.176,0,0,0,.093,1.389c.025.086.185.158.478.214a3.872,3.872,0,0,0,.7.084.525.525,0,0,1,.065.272.364.364,0,0,1-.065.273q-1.932-.093-2.007-.093t-1.987.093a.355.355,0,0,1-.065-.273.506.506,0,0,1,.065-.272,3.873,3.873,0,0,0,.7-.084c.294-.056.453-.128.478-.214a6.091,6.091,0,0,0,.094-1.389V61.408a5.249,5.249,0,0,0-.375-2.381,1.457,1.457,0,0,0-1.387-.656,2.055,2.055,0,0,0-1.154.4c-.393.27-.591.479-.591.629V63.32a6.153,6.153,0,0,0,.094,1.389c.025.086.185.158.479.214a3.863,3.863,0,0,0,.7.084.525.525,0,0,1,.065.272.355.355,0,0,1-.065.273q-1.932-.093-2.006-.093t-1.988.093a.359.359,0,0,1-.066-.273.534.534,0,0,1,.066-.272,3.873,3.873,0,0,0,.7-.084c.294-.056.453-.128.478-.214a6.153,6.153,0,0,0,.094-1.389V59.908a3.531,3.531,0,0,0-.094-1.051c-.088-.225-.494-.336-1.218-.336a.654.654,0,0,1,0-.488,8.416,8.416,0,0,0,2.681-.787c.05,0,.1.037.14.111a.4.4,0,0,1,.066.188c-.075.525-.112.851-.112.976,0,.049.012.074.037.074s.031-.011.056-.037A4.382,4.382,0,0,1,175.109,57.283Z"/><path d="M190.5,59.5a2.374,2.374,0,0,0-.15-1.014q-.207-.375-1.05-.375a.412.412,0,0,1-.047-.225.416.416,0,0,1,.047-.261,10.046,10.046,0,0,0,2.569-.375c.037,0,.081.058.131.177a.783.783,0,0,1,.075.272,3.417,3.417,0,0,0-.131,1.219v3.937a6.893,6.893,0,0,0,.131,1.426.331.331,0,0,0,.206.2,1.108,1.108,0,0,0,.357.094,3.594,3.594,0,0,0,.375.019l.168.02c.038.012.056.08.056.2a.547.547,0,0,1-.047.178c-.031.082-.065.123-.1.123-.187.011-.4.037-.628.074s-.447.082-.647.131-.39.1-.571.15-.328.094-.441.131l-.15.039c-.1,0-.15-.1-.15-.3v-.863l-.038-.094a4.07,4.07,0,0,1-1.209.854,3.307,3.307,0,0,1-1.453.385q-2.344,0-2.344-3.731V59.5a2.374,2.374,0,0,0-.15-1.014c-.138-.25-.487-.375-1.05-.375a.412.412,0,0,1-.047-.225.416.416,0,0,1,.047-.261,10.046,10.046,0,0,0,2.569-.375c.037,0,.081.049.131.15a.571.571,0,0,1,.075.225,3.757,3.757,0,0,0-.131,1.293V61.67a4.19,4.19,0,0,0,.45,2.2,1.569,1.569,0,0,0,1.425.7,2.186,2.186,0,0,0,1.162-.346c.375-.232.563-.459.563-.685Z"/><path d="M197.253,57.3a6.709,6.709,0,0,1,1.04.1q.628.1.873.141a11.454,11.454,0,0,1,.225,2.062c0,.063-.063.094-.188.094a.482.482,0,0,1-.319-.094,3.207,3.207,0,0,0-.6-1.18,1.237,1.237,0,0,0-.975-.545,1.373,1.373,0,0,0-.994.329,1.135,1.135,0,0,0-.337.853,1.237,1.237,0,0,0,.075.441,2.43,2.43,0,0,0,.15.329,1.106,1.106,0,0,0,.281.289c.138.107.244.185.319.234s.209.129.4.234.328.186.4.235c.025.013.169.1.432.254l.515.308c.081.051.225.157.431.321a1.986,1.986,0,0,1,.422.412,3.107,3.107,0,0,1,.235.439,1.354,1.354,0,0,1,.122.555,2.339,2.339,0,0,1-.863,1.846,3.009,3.009,0,0,1-2.025.74,5.16,5.16,0,0,1-.722-.047q-.328-.046-.778-.158c-.3-.076-.531-.125-.694-.151a5.2,5.2,0,0,1-.215-.937,6.7,6.7,0,0,1-.1-1.012.544.544,0,0,1,.338-.113.309.309,0,0,1,.169.037,2.79,2.79,0,0,0,.759,1.219,1.768,1.768,0,0,0,1.265.562,1.366,1.366,0,0,0,.976-.355,1.308,1.308,0,0,0,.375-.994,1.507,1.507,0,0,0-.113-.6,1.273,1.273,0,0,0-.394-.488,4.834,4.834,0,0,0-.5-.356c-.144-.088-.36-.209-.647-.365s-.5-.273-.638-.348a2.361,2.361,0,0,1-1.425-2.006,2,2,0,0,1,.816-1.65A3,3,0,0,1,197.253,57.3Z"/><path d="M202.5,63.189a.947.947,0,0,1,.488.131,2.571,2.571,0,0,1,.337,1.312,3.784,3.784,0,0,1-.741,1.932,4.412,4.412,0,0,1-1.471,1.537c-.063,0-.125-.049-.188-.15a.494.494,0,0,1-.094-.242,2.561,2.561,0,0,0,1.182-2.082,1.305,1.305,0,0,0-.31-.723,1.37,1.37,0,0,1-.309-.8.856.856,0,0,1,.319-.617A1.1,1.1,0,0,1,202.5,63.189Z"/></g><path d="M188.772,33.693q3.126,0,3.125,1.807v5.908a5.276,5.276,0,0,0-6.25,0V35.5Q185.647,33.694,188.772,33.693Z"/><g class="a"><path d="M213.751,57.32a1.815,1.815,0,0,1,1.425.75,2.763,2.763,0,0,1,.619,1.818v3.864q0,.88.581.88a1.222,1.222,0,0,0,.619-.244c.05,0,.074.051.074.151a.666.666,0,0,1-.093.357,3.742,3.742,0,0,1-.684.459,1.667,1.667,0,0,1-.723.252.952.952,0,0,1-.721-.375,1.792,1.792,0,0,1-.422-.844,6.45,6.45,0,0,1-1.069.76,2.7,2.7,0,0,1-1.237.5,2.144,2.144,0,0,1-1.566-.619,2.071,2.071,0,0,1-.628-1.537,1.611,1.611,0,0,1,.291-.957,1.391,1.391,0,0,1,.646-.543q3.188-1.146,3.282-1.182a.31.31,0,0,0,.187-.14.943.943,0,0,0,.038-.329v-.5a1.886,1.886,0,0,0-.478-1.229,1.441,1.441,0,0,0-1.135-.572.823.823,0,0,0-.694.291,2.073,2.073,0,0,0-.337.871q-.15.9-.881.9a.545.545,0,0,1-.459-.244.9.9,0,0,1-.179-.543.716.716,0,0,1,.132-.451,6.892,6.892,0,0,1,1.537-1.039A4.045,4.045,0,0,1,213.751,57.32Zm-1.013,7.312a2.367,2.367,0,0,0,1.041-.3q.591-.3.591-.469V61.314q-1.445.431-1.744.543a1.534,1.534,0,0,0-1.144,1.463,1.313,1.313,0,0,0,.366.92A1.17,1.17,0,0,0,212.738,64.632Z"/><path d="M223.876,59.5a2.39,2.39,0,0,0-.15-1.014q-.207-.375-1.05-.375c-.026-.023-.041-.1-.047-.225a.41.41,0,0,1,.047-.261,10.037,10.037,0,0,0,2.568-.375c.038,0,.081.058.132.177a.783.783,0,0,1,.075.272,3.409,3.409,0,0,0-.132,1.219v3.937a6.888,6.888,0,0,0,.132,1.426.331.331,0,0,0,.206.2,1.115,1.115,0,0,0,.357.094,3.594,3.594,0,0,0,.375.019l.168.02c.038.012.056.08.056.2a.547.547,0,0,1-.047.178c-.031.082-.065.123-.1.123-.188.011-.4.037-.628.074s-.447.082-.647.131-.39.1-.572.15-.328.094-.44.131l-.151.039c-.1,0-.149-.1-.149-.3v-.863l-.038-.094a4.07,4.07,0,0,1-1.209.854,3.307,3.307,0,0,1-1.453.385q-2.344,0-2.344-3.731V59.5a2.374,2.374,0,0,0-.15-1.014q-.207-.375-1.05-.375c-.026-.023-.041-.1-.047-.225a.416.416,0,0,1,.047-.261,10.046,10.046,0,0,0,2.569-.375c.037,0,.081.049.131.15a.571.571,0,0,1,.075.225,3.722,3.722,0,0,0-.132,1.293V61.67a4.189,4.189,0,0,0,.451,2.2,1.568,1.568,0,0,0,1.424.7,2.186,2.186,0,0,0,1.163-.346c.375-.232.563-.459.563-.685Z"/></g><path d="M218.105,27.443q3.124,0,3.125,1.807v5.908a5.276,5.276,0,0,0-6.25,0V29.25Q214.98,27.444,218.105,27.443Z"/><g class="a"><path d="M232.164,57.283a3.584,3.584,0,0,1,1.293.187c.063,0,.094-.131.094-.394V55.033a3.118,3.118,0,0,0-.094-.975c-.1-.224-.481-.338-1.144-.338-.012,0-.021-.041-.028-.121a1.656,1.656,0,0,1,0-.244c.007-.082.022-.123.047-.123a8.489,8.489,0,0,0,2.663-.75c.049,0,.1.035.14.1a.364.364,0,0,1,.066.2A5.163,5.163,0,0,0,235,54.414v8.025a6.962,6.962,0,0,0,.131,1.838.439.439,0,0,0,.234.187,1.66,1.66,0,0,0,.357.1,2.3,2.3,0,0,0,.346.027l.169.02c.038.012.057.086.057.224a.515.515,0,0,1-.047.168c-.032.077-.066.114-.1.114-.188.011-.4.037-.629.074s-.447.082-.647.131-.39.1-.571.15-.322.094-.422.131l-.169.039q-.15,0-.15-.357v-.657c-.012-.087-.031-.125-.056-.111a4.231,4.231,0,0,1-1.088.711,3.188,3.188,0,0,1-1.406.414,2.965,2.965,0,0,1-2.306-1.164,4.229,4.229,0,0,1-.994-2.85,3.644,3.644,0,0,1,.769-2.2,5.424,5.424,0,0,1,1.8-1.593A4.04,4.04,0,0,1,232.164,57.283Zm-.6.787A1.922,1.922,0,0,0,229.9,59a3.8,3.8,0,0,0-.628,2.185,3.852,3.852,0,0,0,.7,2.344,2.277,2.277,0,0,0,1.941.955,2.5,2.5,0,0,0,1.115-.252c.344-.17.516-.334.516-.5V58.99q0-.341-.61-.629A3.17,3.17,0,0,0,231.563,58.07Z"/><path d="M240.02,59.4V63.32a6.176,6.176,0,0,0,.093,1.389c.025.086.185.158.479.214a3.863,3.863,0,0,0,.7.084.525.525,0,0,1,.065.272.355.355,0,0,1-.065.273q-1.932-.093-2.006-.093t-1.988.093a.359.359,0,0,1-.066-.273.534.534,0,0,1,.066-.272,3.873,3.873,0,0,0,.7-.084c.294-.056.453-.128.478-.214a6.153,6.153,0,0,0,.094-1.389V59.834a3.161,3.161,0,0,0-.094-.977c-.087-.225-.494-.336-1.218-.336a.654.654,0,0,1,0-.488,8.416,8.416,0,0,0,2.681-.787c.05,0,.1.037.14.111a.4.4,0,0,1,.066.188,10.7,10.7,0,0,0-.131,1.238Zm-1.528-4.359a.953.953,0,1,1,.665.271A.907.907,0,0,1,238.492,55.043Z"/></g><path d="M239.161,21.193q3.126,0,3.125,1.807v5.908a5.276,5.276,0,0,0-6.25,0V23Q236.036,21.194,239.161,21.193Z"/><g class="a"><path d="M252.674,57.283a1.994,1.994,0,0,1,1.931.9,6.947,6.947,0,0,1,.488,3.074V63.32a6.091,6.091,0,0,0,.094,1.389c.024.086.184.158.478.214a3.863,3.863,0,0,0,.7.084.534.534,0,0,1,.066.272.359.359,0,0,1-.066.273q-1.93-.093-2.006-.093t-1.988.093a.355.355,0,0,1-.065-.273.525.525,0,0,1,.065-.272,3.863,3.863,0,0,0,.7-.084c.294-.056.453-.128.479-.214a6.176,6.176,0,0,0,.093-1.389V61.445a5.37,5.37,0,0,0-.375-2.418,1.535,1.535,0,0,0-1.462-.656,2.149,2.149,0,0,0-1.125.431q-.657.431-.657.6V63.32a6.153,6.153,0,0,0,.094,1.389c.025.086.185.158.479.214a3.854,3.854,0,0,0,.7.084.525.525,0,0,1,.065.272.364.364,0,0,1-.065.273q-1.932-.093-2.007-.093t-1.987.093a.359.359,0,0,1-.066-.273.514.514,0,0,1,.066-.272,3.873,3.873,0,0,0,.7-.084c.294-.056.453-.128.478-.214a6.153,6.153,0,0,0,.094-1.389V59.908a3.531,3.531,0,0,0-.094-1.051c-.088-.225-.494-.336-1.219-.336a.667.667,0,0,1,0-.488,8.431,8.431,0,0,0,2.682-.787c.049,0,.1.037.14.111a.4.4,0,0,1,.066.188,9.291,9.291,0,0,0-.113,1.07c0,.049.013.074.038.074s.031-.012.056-.037a5.4,5.4,0,0,1,1.153-.891A2.726,2.726,0,0,1,252.674,57.283Z"/><path d="M261.375,57.263a3.833,3.833,0,0,1,2.915,1.155,4.082,4.082,0,0,1,1.1,2.933,4.316,4.316,0,0,1-1.135,3.047,3.708,3.708,0,0,1-2.84,1.229,3.846,3.846,0,0,1-2.925-1.163A4.123,4.123,0,0,1,257.38,61.5a4.233,4.233,0,0,1,1.144-3.028A3.766,3.766,0,0,1,261.375,57.263Zm-.207.619a1.765,1.765,0,0,0-1.641.938,4.6,4.6,0,0,0-.534,2.307,5.133,5.133,0,0,0,.713,2.691,2.141,2.141,0,0,0,1.893,1.189,1.763,1.763,0,0,0,1.641-.937,4.554,4.554,0,0,0,.534-2.287,5.207,5.207,0,0,0-.712-2.692A2.143,2.143,0,0,0,261.168,57.882Z"/><path d="M269.812,57.3a6.731,6.731,0,0,1,1.04.1q.629.1.872.141a11.275,11.275,0,0,1,.225,2.062c0,.063-.063.094-.187.094a.482.482,0,0,1-.319-.094,3.222,3.222,0,0,0-.6-1.18,1.238,1.238,0,0,0-.975-.545,1.37,1.37,0,0,0-.994.329,1.135,1.135,0,0,0-.337.853,1.259,1.259,0,0,0,.074.441,2.307,2.307,0,0,0,.151.329,1.09,1.09,0,0,0,.281.289c.137.107.244.185.318.234s.21.129.4.234.328.186.4.235c.025.013.168.1.431.254l.516.308c.081.051.225.157.431.321a1.986,1.986,0,0,1,.422.412,3.014,3.014,0,0,1,.234.439,1.354,1.354,0,0,1,.122.555,2.339,2.339,0,0,1-.863,1.846,3.008,3.008,0,0,1-2.024.74,5.15,5.15,0,0,1-.722-.047c-.219-.031-.479-.084-.778-.158s-.532-.125-.694-.151a5.274,5.274,0,0,1-.216-.937,6.674,6.674,0,0,1-.1-1.012.542.542,0,0,1,.338-.113.306.306,0,0,1,.168.037,2.79,2.79,0,0,0,.759,1.219,1.772,1.772,0,0,0,1.266.562,1.363,1.363,0,0,0,.975-.355,1.308,1.308,0,0,0,.375-.994,1.507,1.507,0,0,0-.112-.6,1.282,1.282,0,0,0-.394-.488,4.834,4.834,0,0,0-.5-.356c-.144-.088-.359-.209-.647-.365l-.637-.348a2.361,2.361,0,0,1-1.425-2.006,2,2,0,0,1,.815-1.65A3,3,0,0,1,269.812,57.3Z"/><path d="M273.974,64.652a.956.956,0,0,1,.31-.713,1.029,1.029,0,0,1,.74-.3.994.994,0,0,1,.713.291.968.968,0,0,1,.3.723,1.027,1.027,0,0,1-.3.74.957.957,0,0,1-.713.309,1.016,1.016,0,0,1-.731-.309A1,1,0,0,1,273.974,64.652Z"/></g><path d="M261.387,14.943q3.126,0,3.125,1.807v5.908a5.276,5.276,0,0,0-6.25,0V16.75Q258.262,14.944,261.387,14.943Z"/><path d="M267.605,12.563a1.5,1.5,0,0,1,1.093.43,1.417,1.417,0,0,1,.439,1.053,1.513,1.513,0,0,1-1.532,1.517,1.4,1.4,0,0,1-1.028-.447,1.473,1.473,0,0,1-.44-1.07,1.485,1.485,0,0,1,1.468-1.483Z"/><rect x="275.45" y="6.25" width="0.8" height="37.5"/><rect x="280.9" y="6.25" width="0.8" height="37.5"/><path d="M17.188,14.943q3.125,0,3.125,1.807v5.908a4.256,4.256,0,0,0-3.125-1.025,4.253,4.253,0,0,0-3.125,1.025V16.75Q14.063,14.944,17.188,14.943Z"/><path class="b" d="M17.193,16.09a2.8,2.8,0,0,1,1.747.426,1.2,1.2,0,0,1,.286,1.031v3.2a5.428,5.428,0,0,0-2.028-.375,7.383,7.383,0,0,0-2.038.292c0-1.2-.006-2.4,0-3.6a1.069,1.069,0,0,1,.913-.86A4.5,4.5,0,0,1,17.193,16.09Z"/></svg>