<svg xmlns="http://www.w3.org/2000/svg" viewBox="0 0 576 147.064"><defs><style>.a{isolation:isolate;}.b{fill:red;}</style></defs><rect x="53.563" width="522.438" height="0.8"/><rect x="53.563" y="12.5" width="522.438" height="0.8"/><rect x="53.563" y="25" width="522.438" height="0.8"/><rect x="53.563" y="37.5" width="522.438" height="0.8"/><g class="a"><path class="b" d="M16.438,18.587q.936,0,7.312-.312a1.372,1.372,0,0,1,.219,1,1.965,1.965,0,0,1-.219,1,16,16,0,0,0-2.562.281q-1.626.282-1.75.719a20.282,20.282,0,0,0-.313,4.625V38.337a60.521,60.521,0,0,0,7.063-6.312,100.281,100.281,0,0,0,7.937-8.5A3.628,3.628,0,0,0,35,21.587q0-1.374-3.5-1.375a2.565,2.565,0,0,1,0-1.937q6.938.375,7.188.375,1.624,0,3.906-.188t2.844-.187a2.756,2.756,0,0,1,.093,1.094c-.021.562-.093.843-.219.843l-.5.063a6.084,6.084,0,0,0-.906.062c-.271.042-.635.116-1.094.219a10.644,10.644,0,0,0-1.281.375,7.136,7.136,0,0,0-1.25.625,5.231,5.231,0,0,0-1.156.969q-1.875,2.063-3.875,4.094t-3.188,3.187q-1.186,1.158-3.718,3.563T24.688,36.9a.378.378,0,0,0,0,.5q.312.375,2.437,2.844t2.594,3.031q.468.563,2.187,2.531t2.438,2.75q.717.783,2.031,2.219t2.313,2.437q1,1,2,1.938A11.09,11.09,0,0,0,47.5,58.025a1.638,1.638,0,0,1,.125.969,2.181,2.181,0,0,1-.187.843q-6.939,0-8.876-.687a11.366,11.366,0,0,1-4.25-2.688Q32.626,54.775,20.25,40.65q-.126-.187-.562-.188a1.243,1.243,0,0,0-.563.125V52.212a20.27,20.27,0,0,0,.313,4.625q.125.438,1.75.719a15.886,15.886,0,0,0,2.562.281,1.968,1.968,0,0,1,.219,1,1.372,1.372,0,0,1-.219,1q-6.375-.312-7.312-.312t-7.376.312a1.363,1.363,0,0,1-.218-1,1.959,1.959,0,0,1,.218-1,15.9,15.9,0,0,0,2.563-.281q1.625-.28,1.75-.719a20.331,20.331,0,0,0,.313-4.625V25.9a20.344,20.344,0,0,0-.313-4.625q-.126-.436-1.75-.719a16.012,16.012,0,0,0-2.563-.281,1.957,1.957,0,0,1-.218-1,1.363,1.363,0,0,1,.218-1Q15.5,18.589,16.438,18.587Z"/></g><path d="M53.562,19.05V6.794a4.177,4.177,0,0,1,1.124-3.052A3.915,3.915,0,0,1,57.615,2.6a2.178,2.178,0,0,1,1.612.586,2.113,2.113,0,0,1,.585,1.562v6.739l-.39-.342a5.243,5.243,0,0,0-1.148-.708,3.7,3.7,0,0,0-1.635-.366,2.538,2.538,0,0,0-1.88.83,2.769,2.769,0,0,0-.806,2,2.855,2.855,0,0,0,.806,2.026,2.507,2.507,0,0,0,1.88.855,3.92,3.92,0,0,0,1.635-.342,4.724,4.724,0,0,0,1.148-.684l.39-.39V21.15a2.053,2.053,0,0,1-2.2,2.148,3.869,3.869,0,0,1-2.929-1.172,4.258,4.258,0,0,1-1.124-3.076Z"/><g class="a"><path d="M70.4,58.12V56.13a.825.825,0,0,0-.092-.369q-.409-.738-.969-1.727t-.9-1.609a2.366,2.366,0,0,0-.87-.91,1.439,1.439,0,0,0-.739-.211c-.035,0-.052-.055-.052-.164a.321.321,0,0,1,.052-.218q1.609.066,1.648.066.369,0,1.688-.066a.545.545,0,0,1,.02.218c0,.109-.02.164-.047.164a1.515,1.515,0,0,0-.514.1c-.184.065-.277.174-.277.322a.822.822,0,0,0,.159.4l1.832,3.165a35.176,35.176,0,0,0,1.714-3.416.658.658,0,0,0,.039-.2.214.214,0,0,0-.072-.151.745.745,0,0,0-.29-.138,1.974,1.974,0,0,0-.56-.066c-.018,0-.031-.06-.04-.178s0-.186.013-.2c.818.045,1.257.066,1.319.066.088,0,.571-.021,1.45-.066a.558.558,0,0,1,.013.225c-.009.105-.022.158-.04.158a1.236,1.236,0,0,0-1.173.527q-.4.713-2.083,3.836a.91.91,0,0,0-.066.409l-.013,2.03a4.288,4.288,0,0,0,.066.976c.017.062.141.112.369.151a3.338,3.338,0,0,0,.541.06.365.365,0,0,1,.045.191.249.249,0,0,1-.045.191c-.9-.043-1.411-.066-1.543-.066s-.65.023-1.556.066a.253.253,0,0,1-.046-.191.364.364,0,0,1,.046-.191,3.338,3.338,0,0,0,.541-.06c.228-.039.352-.089.369-.151A4.288,4.288,0,0,0,70.4,58.12Zm.382-8.187a3.515,3.515,0,0,1,.633-.711,10.747,10.747,0,0,1,.963-.884.55.55,0,0,1,.237-.04c.4,0,.606.133.606.4q0,.3-1.054.83a4.741,4.741,0,0,1-1.306.527C70.8,50.052,70.777,50.013,70.777,49.933Z"/></g><path d="M70.75,9.093q3.124,0,3.125,1.807v5.908a5.276,5.276,0,0,0-6.25,0V10.9Q67.625,9.093,70.75,9.093Z"/><g class="a"><path d="M78.567,50.962a3.042,3.042,0,0,1,1.839.613,1.974,1.974,0,0,1,.29,2.979,2.871,2.871,0,0,1-1.246.863q.883,1.452,2.123,3.1a2.02,2.02,0,0,0,.626.567,2.116,2.116,0,0,0,.863.224.336.336,0,0,1,.027.2.446.446,0,0,1-.04.178,6.215,6.215,0,0,1-1.74-.158,1.767,1.767,0,0,1-.857-.58q-.606-.816-2.1-3.124a.44.44,0,0,0-.4-.159h-.7V58.12a4.288,4.288,0,0,0,.066.976c.017.062.14.112.369.151a3.317,3.317,0,0,0,.54.06.354.354,0,0,1,.046.191.249.249,0,0,1-.046.191c-.9-.043-1.41-.066-1.542-.066s-.651.023-1.556.066a.249.249,0,0,1-.046-.191.364.364,0,0,1,.046-.191,3.338,3.338,0,0,0,.541-.06c.228-.039.351-.089.369-.151a4.288,4.288,0,0,0,.066-.976V52.492a4.305,4.305,0,0,0-.066-.977c-.018-.061-.141-.111-.369-.151a3.456,3.456,0,0,0-.541-.06.36.36,0,0,1-.046-.19.25.25,0,0,1,.046-.192q1.358.066,1.556.066.224,0,.837-.013C77.94,50.966,78.286,50.962,78.567,50.962Zm1.45,2.4a2.039,2.039,0,0,0-.495-1.444,2,2,0,0,0-1.535-.533q-.606,0-.659.131a3.957,3.957,0,0,0-.066.989v2.755h.712a2.113,2.113,0,0,0,1.43-.533A1.731,1.731,0,0,0,80.017,53.361Z"/><path d="M84.882,50.988q.2,0,1.542-.066a.25.25,0,0,1,.046.192.35.35,0,0,1-.046.19,3.434,3.434,0,0,0-.54.06c-.229.04-.352.09-.369.151a4.305,4.305,0,0,0-.066.977V58.12a4.288,4.288,0,0,0,.066.976c.017.062.14.112.369.151a3.317,3.317,0,0,0,.54.06.354.354,0,0,1,.046.191.249.249,0,0,1-.046.191c-.9-.043-1.41-.066-1.542-.066s-.651.023-1.556.066a.249.249,0,0,1-.046-.191.364.364,0,0,1,.046-.191,3.338,3.338,0,0,0,.541-.06c.228-.039.351-.089.369-.151a4.288,4.288,0,0,0,.066-.976V52.492a4.305,4.305,0,0,0-.066-.977c-.018-.061-.141-.111-.369-.151a3.456,3.456,0,0,0-.541-.06.36.36,0,0,1-.046-.19.25.25,0,0,1,.046-.192Q84.684,50.988,84.882,50.988Z"/></g><g class="a"><path d="M88.277,54.756q3.9-.206,4.519-.225c.088,0,.132.056.132.169a2.4,2.4,0,0,1-.244,1.012q-.375.019-4.519.206c-.088,0-.132-.068-.132-.206A2.293,2.293,0,0,1,88.277,54.756Z"/></g><path d="M84.486,21.593q3.126,0,3.125,1.807v5.908a5.276,5.276,0,0,0-6.25,0V23.4Q81.361,21.593,84.486,21.593Z"/><g class="a"><path d="M96.972,50.988q.593,0,2.05-.046t2.195-.046q.052.383.2,1.009c.1.417.161.678.178.784a.332.332,0,0,1-.237.066c-.114,0-.176-.031-.185-.093a1.377,1.377,0,0,0-1.529-1.239H98.514c-.58,0-.883.049-.91.145a4.1,4.1,0,0,0-.065.936V54.97c0,.053.189.078.566.078h.7a2.662,2.662,0,0,0,1.081-.125,1.2,1.2,0,0,0,.343-.7,1.056,1.056,0,0,1,.026-.119c.009-.061.075-.092.2-.092a.309.309,0,0,1,.224.067v2.491a.305.305,0,0,1-.211.053c-.114,0-.184-.036-.211-.106a5.476,5.476,0,0,0-.158-.547.906.906,0,0,0-.105-.224.8.8,0,0,0-.106-.1,4.63,4.63,0,0,0-1.4-.105c-.633,0-.949.039-.949.119v2.5a2.369,2.369,0,0,0,.079.91,1.933,1.933,0,0,0,.936.132h.633a3.19,3.19,0,0,0,1.661-.357,2.532,2.532,0,0,0,.83-1.331c.018-.053.079-.079.185-.079a.479.479,0,0,1,.329.079c-.044.114-.111.3-.2.547s-.165.453-.217.606-.11.332-.172.535a3.405,3.405,0,0,0-.119.5q-.672,0-2.122-.027t-2.373-.026c-.211,0-.484.007-.818.019s-.584.02-.751.02a.249.249,0,0,1-.046-.191.364.364,0,0,1,.046-.191,3.338,3.338,0,0,0,.541-.06c.228-.039.351-.089.369-.151a4.288,4.288,0,0,0,.066-.976V52.492a4.305,4.305,0,0,0-.066-.977c-.018-.061-.141-.111-.369-.151a3.456,3.456,0,0,0-.541-.06.36.36,0,0,1-.046-.19.25.25,0,0,1,.046-.192Q96.774,50.988,96.972,50.988Z"/></g><g class="a"><path d="M104.508,57.343a.948.948,0,0,1,.488.132,2.566,2.566,0,0,1,.337,1.312,3.784,3.784,0,0,1-.741,1.931,4.408,4.408,0,0,1-1.471,1.538c-.063,0-.125-.05-.188-.15a.5.5,0,0,1-.094-.243,2.559,2.559,0,0,0,1.182-2.082,1.31,1.31,0,0,0-.31-.722,1.37,1.37,0,0,1-.309-.8.856.856,0,0,1,.319-.618A1.1,1.1,0,0,1,104.508,57.343Z"/></g><path d="M98.549,21.593q3.124,0,3.125,1.807v5.908a5.276,5.276,0,0,0-6.25,0V23.4Q95.424,21.593,98.549,21.593Z"/><g class="a"><path d="M115.3,55v.132a3.527,3.527,0,0,0,.882,2.56,2.908,2.908,0,0,0,2.175.909,2.306,2.306,0,0,0,1.218-.328,3.639,3.639,0,0,0,.844-.666.08.08,0,0,1,.047.028.5.5,0,0,1,.065.094.272.272,0,0,1,.038.141.672.672,0,0,1-.113.337,3.85,3.85,0,0,1-1.058,1.087,2.8,2.8,0,0,1-1.679.507,3.542,3.542,0,0,1-2.7-1.116,3.9,3.9,0,0,1-1.05-2.784,4.544,4.544,0,0,1,1.19-3.131,3.391,3.391,0,0,1,2.5-1.332,3.177,3.177,0,0,1,1.378.281,2.1,2.1,0,0,1,.881.723,3.644,3.644,0,0,1,.422.824,2.233,2.233,0,0,1,.132.723c0,.574-.151.868-.45.881Q117.977,55,115.3,55Zm.094-.693h3.056a.382.382,0,0,0,.432-.432,2.123,2.123,0,0,0-.395-1.162,1.28,1.28,0,0,0-1.143-.6,1.526,1.526,0,0,0-1.181.543,2.954,2.954,0,0,0-.656,1.1C115.389,54.121,115.352,54.306,115.389,54.306Z"/></g><path d="M117.245,21.593q3.126,0,3.125,1.807v5.908a5.276,5.276,0,0,0-6.25,0V23.4Q114.12,21.593,117.245,21.593Z"/><g class="a"><path d="M122.945,49.187a3.165,3.165,0,0,0-.093-.975c-.1-.224-.482-.338-1.144-.338-.013,0-.022-.04-.028-.121a1.42,1.42,0,0,1,0-.244c.006-.081.021-.122.047-.122a8.537,8.537,0,0,0,2.662-.75c.049,0,.1.035.14.1a.363.363,0,0,1,.067.2,5.166,5.166,0,0,0-.207,1.632v8.906a6.158,6.158,0,0,0,.093,1.388c.026.087.185.159.479.215a3.965,3.965,0,0,0,.7.084.513.513,0,0,1,.065.272.354.354,0,0,1-.065.272q-1.913-.093-2.006-.093-.057,0-1.988.093a.362.362,0,0,1-.066-.272.531.531,0,0,1,.066-.272,3.945,3.945,0,0,0,.7-.084c.294-.056.453-.128.479-.215a6.158,6.158,0,0,0,.093-1.388Z"/><path d="M128.139,55v.132a3.527,3.527,0,0,0,.882,2.56,2.906,2.906,0,0,0,2.174.909,2.308,2.308,0,0,0,1.219-.328,3.66,3.66,0,0,0,.844-.666.08.08,0,0,1,.047.028.5.5,0,0,1,.065.094.272.272,0,0,1,.038.141.672.672,0,0,1-.113.337,3.841,3.841,0,0,1-1.059,1.087,2.79,2.79,0,0,1-1.678.507,3.545,3.545,0,0,1-2.7-1.116,3.9,3.9,0,0,1-1.049-2.784A4.544,4.544,0,0,1,128,52.769a3.391,3.391,0,0,1,2.5-1.332,3.184,3.184,0,0,1,1.378.281,2.112,2.112,0,0,1,.881.723,3.644,3.644,0,0,1,.422.824,2.23,2.23,0,0,1,.131.723q0,.861-.45.881Q130.821,55,128.139,55Zm.093-.693h3.057a.382.382,0,0,0,.432-.432,2.123,2.123,0,0,0-.4-1.162,1.281,1.281,0,0,0-1.143-.6,1.526,1.526,0,0,0-1.181.543,2.954,2.954,0,0,0-.656,1.1C128.232,54.121,128.2,54.306,128.232,54.306Zm3.451-6.919q.675,0,.674.544,0,.395-1.312,1.425a6.107,6.107,0,0,1-1.519,1.031c-.112,0-.169-.081-.169-.243a7.924,7.924,0,0,1,.685-1.06q.684-.984,1.135-1.547A.7.7,0,0,1,131.683,47.387Z"/></g><g class="a"><path d="M135.451,54.756q3.9-.206,4.52-.225c.087,0,.131.056.131.169a2.375,2.375,0,0,1-.245,1.012q-.375.019-4.518.206c-.087,0-.131-.068-.131-.206A2.306,2.306,0,0,1,135.451,54.756Z"/></g><path d="M130.089,21.593q3.125,0,3.125,1.807v5.908a5.276,5.276,0,0,0-6.25,0V23.4Q126.964,21.593,130.089,21.593Z"/><g class="a"><path d="M145.014,53.556v3.919a6.158,6.158,0,0,0,.093,1.388c.026.087.185.159.479.215a3.965,3.965,0,0,0,.7.084.513.513,0,0,1,.065.272.354.354,0,0,1-.065.272q-1.93-.093-2.006-.093t-1.988.093a.362.362,0,0,1-.066-.272.531.531,0,0,1,.066-.272,3.945,3.945,0,0,0,.7-.084c.294-.056.453-.128.479-.215a6.158,6.158,0,0,0,.093-1.388V53.988a3.164,3.164,0,0,0-.093-.976q-.132-.338-1.219-.337a.408.408,0,0,1-.047-.225.42.42,0,0,1,.047-.263,8.391,8.391,0,0,0,2.681-.787c.05,0,.1.037.141.112a.408.408,0,0,1,.066.188,10.768,10.768,0,0,0-.132,1.237ZM143.486,49.2a.953.953,0,1,1,.665.271A.908.908,0,0,1,143.486,49.2Z"/></g><path d="M144.152,27.843q3.125,0,3.125,1.807v5.908a5.276,5.276,0,0,0-6.25,0V29.65Q141.027,27.843,144.152,27.843Z"/><g class="a"><path d="M150.339,51.456a6.751,6.751,0,0,1,1.041.1c.419.069.709.116.872.141a11.454,11.454,0,0,1,.225,2.062c0,.063-.063.094-.188.094a.477.477,0,0,1-.318-.094,3.229,3.229,0,0,0-.6-1.181,1.234,1.234,0,0,0-.974-.544,1.374,1.374,0,0,0-.995.329,1.138,1.138,0,0,0-.337.852,1.238,1.238,0,0,0,.075.442,2.348,2.348,0,0,0,.15.328,1.092,1.092,0,0,0,.281.29c.138.106.244.184.319.234s.21.129.4.234.328.185.4.235c.026.013.169.1.432.253l.516.309q.121.075.43.32a2.011,2.011,0,0,1,.422.412,3.086,3.086,0,0,1,.234.44,1.335,1.335,0,0,1,.123.554,2.342,2.342,0,0,1-.863,1.847,3.009,3.009,0,0,1-2.025.74,5.16,5.16,0,0,1-.722-.047,7.767,7.767,0,0,1-.778-.159q-.45-.112-.693-.151a5.1,5.1,0,0,1-.216-.937,6.687,6.687,0,0,1-.1-1.012.552.552,0,0,1,.338-.113.309.309,0,0,1,.169.038,2.79,2.79,0,0,0,.759,1.219,1.772,1.772,0,0,0,1.265.562,1.36,1.36,0,0,0,.976-.356,1.306,1.306,0,0,0,.375-.994,1.528,1.528,0,0,0-.112-.6,1.274,1.274,0,0,0-.4-.487,4.754,4.754,0,0,0-.5-.357c-.144-.087-.359-.209-.647-.365l-.638-.348a2.362,2.362,0,0,1-1.425-2.005,2.005,2.005,0,0,1,.816-1.651A3,3,0,0,1,150.339,51.456Z"/><path d="M158.364,51.418a3.837,3.837,0,0,1,2.916,1.154,4.086,4.086,0,0,1,1.1,2.934,4.318,4.318,0,0,1-1.135,3.047,3.707,3.707,0,0,1-2.841,1.228,3.848,3.848,0,0,1-2.924-1.162,4.125,4.125,0,0,1-1.107-2.963,4.233,4.233,0,0,1,1.145-3.028A3.759,3.759,0,0,1,158.364,51.418Zm-.206.619a1.762,1.762,0,0,0-1.64.938,4.587,4.587,0,0,0-.535,2.306,5.146,5.146,0,0,0,.712,2.691,2.143,2.143,0,0,0,1.894,1.19,1.76,1.76,0,0,0,1.64-.937,4.548,4.548,0,0,0,.536-2.288,5.216,5.216,0,0,0-.713-2.691A2.143,2.143,0,0,0,158.158,52.037Z"/><path d="M169.183,51.437a1.994,1.994,0,0,1,1.931.9,6.963,6.963,0,0,1,.488,3.075v2.063a6.158,6.158,0,0,0,.093,1.388q.038.131.479.215a3.945,3.945,0,0,0,.7.084.523.523,0,0,1,.065.272.358.358,0,0,1-.065.272q-1.932-.093-2.007-.093t-1.987.093a.358.358,0,0,1-.066-.272.521.521,0,0,1,.066-.272,3.965,3.965,0,0,0,.7-.084q.441-.084.478-.215a6.136,6.136,0,0,0,.094-1.388V55.6a5.389,5.389,0,0,0-.375-2.419,1.54,1.54,0,0,0-1.463-.656,2.164,2.164,0,0,0-1.125.431q-.655.432-.656.6v3.919a6.074,6.074,0,0,0,.094,1.388c.024.087.184.159.478.215a3.955,3.955,0,0,0,.7.084.521.521,0,0,1,.066.272.358.358,0,0,1-.066.272q-1.932-.093-2.006-.093t-1.988.093a.358.358,0,0,1-.065-.272.523.523,0,0,1,.065-.272,3.965,3.965,0,0,0,.7-.084q.441-.084.479-.215a6.2,6.2,0,0,0,.094-1.388V54.062a3.563,3.563,0,0,0-.094-1.05q-.132-.338-1.219-.337a.417.417,0,0,1-.047-.225.413.413,0,0,1,.047-.263,8.391,8.391,0,0,0,2.681-.787c.05,0,.1.037.14.112a.4.4,0,0,1,.066.188,9.443,9.443,0,0,0-.112,1.069c0,.05.012.074.038.074.011,0,.03-.012.055-.037a5.443,5.443,0,0,1,1.154-.891A2.723,2.723,0,0,1,169.183,51.437Z"/><path d="M174.021,58.806a.959.959,0,0,1,.309-.713,1.028,1.028,0,0,1,.74-.3.99.99,0,0,1,.713.291.97.97,0,0,1,.3.722,1.028,1.028,0,0,1-.3.74.958.958,0,0,1-.713.31,1.018,1.018,0,0,1-.731-.31A.991.991,0,0,1,174.021,58.806Z"/></g><path d="M158.374,21.593q3.124,0,3.125,1.807v5.908a5.276,5.276,0,0,0-6.25,0V23.4Q155.249,21.593,158.374,21.593Z"/><path d="M164.591,19.212a1.5,1.5,0,0,1,1.093.43,1.422,1.422,0,0,1,.44,1.054,1.514,1.514,0,0,1-1.533,1.516,1.4,1.4,0,0,1-1.028-.447,1.469,1.469,0,0,1-.439-1.069,1.485,1.485,0,0,1,1.467-1.484Z"/><g class="a"><path class="b" d="M185.54,53.593a4.593,4.593,0,0,0,.075-.6q0-.47-.187-.469a.528.528,0,0,0-.235.075,1.553,1.553,0,0,0-.272.187c-.087.076-.181.163-.281.263s-.184.188-.253.262-.128.144-.178.207l-.094.094c-.025,0-.062-.047-.112-.141a.519.519,0,0,1-.075-.216,5.237,5.237,0,0,1,1.012-1.088,2.206,2.206,0,0,1,1.35-.674.634.634,0,0,1,.516.281,1.11,1.11,0,0,1,.215.693,6.071,6.071,0,0,1-.131.994l-.956,4.2a3.236,3.236,0,0,0-.075.6q0,.47.187.469a.528.528,0,0,0,.235-.075,1.524,1.524,0,0,0,.272-.188c.087-.074.181-.162.281-.262s.184-.187.253-.262.134-.144.2-.206l.075-.094c.025,0,.062.047.113.141a.522.522,0,0,1,.074.214,4.819,4.819,0,0,1-1.049,1.079,2.4,2.4,0,0,1-1.407.684.525.525,0,0,1-.468-.271,1.315,1.315,0,0,1-.169-.7,6.2,6.2,0,0,1,.131-.994Zm1.069-6.056a.616.616,0,0,1,.478.225.774.774,0,0,1,.2.525,1.17,1.17,0,0,1-.291.788.914.914,0,0,1-.722.337.544.544,0,0,1-.468-.234.949.949,0,0,1-.169-.572,1.1,1.1,0,0,1,.281-.75A.892.892,0,0,1,186.609,47.537Z"/><path class="b" d="M190.565,53.593a4.593,4.593,0,0,0,.075-.6q0-.47-.187-.469a.528.528,0,0,0-.235.075,1.511,1.511,0,0,0-.271.187c-.088.076-.182.163-.281.263s-.185.188-.254.262-.128.144-.178.207l-.094.094c-.025,0-.062-.047-.112-.141a.519.519,0,0,1-.075-.216,5.237,5.237,0,0,1,1.012-1.088,2.206,2.206,0,0,1,1.35-.674.634.634,0,0,1,.516.281,1.1,1.1,0,0,1,.215.693,6.272,6.272,0,0,1-.13.994l-1.032,5.344a7.7,7.7,0,0,1-1.331,3.169,6.845,6.845,0,0,1-1.294,1.284,5.88,5.88,0,0,1-1.312.8.447.447,0,0,1-.169-.375,4.8,4.8,0,0,0,1.65-1.716,8.184,8.184,0,0,0,1.012-2.727Zm1.275-6.056a.614.614,0,0,1,.478.225.769.769,0,0,1,.2.525,1.174,1.174,0,0,1-.29.788.916.916,0,0,1-.722.337.545.545,0,0,1-.469-.234.949.949,0,0,1-.169-.572,1.1,1.1,0,0,1,.281-.75A.892.892,0,0,1,191.84,47.537Z"/><path class="b" d="M193.19,59.031a1.239,1.239,0,0,1,.394-.9,1.2,1.2,0,0,1,.862-.393.769.769,0,0,1,.581.234.838.838,0,0,1,.225.609,1.315,1.315,0,0,1-.384.918,1.146,1.146,0,0,1-.853.413.773.773,0,0,1-.591-.252A.891.891,0,0,1,193.19,59.031Z"/></g><rect x="196.085" y="0.4" width="0.8" height="37.5"/><rect x="201.535" y="0.4" width="0.8" height="37.5"/><g class="a"><path d="M210.635,47.144a18.819,18.819,0,0,1,3.974.393q.432,2.587.432,2.775c.013.051-.028.1-.122.16a.558.558,0,0,1-.29.084.429.429,0,0,1-.226-.057q-.523-2.736-3.674-2.737a3.978,3.978,0,0,0-3.282,1.679,6.031,6.031,0,0,0-1.294,3.777,7.671,7.671,0,0,0,.516,2.832,5.121,5.121,0,0,0,1.659,2.2,4.266,4.266,0,0,0,2.7.891,3.6,3.6,0,0,0,2.476-.9,3.88,3.88,0,0,0,1.143-2.175.869.869,0,0,1,.6.149A8.593,8.593,0,0,1,215,57.671a3.382,3.382,0,0,1-.413,1.247,8.22,8.22,0,0,1-4.031.844,6.035,6.035,0,0,1-4.491-1.8,5.975,5.975,0,0,1-1.772-4.349,6.386,6.386,0,0,1,1.809-4.576A6,6,0,0,1,210.635,47.144Z"/><path d="M221.791,51.437a2,2,0,0,1,1.932.9,6.966,6.966,0,0,1,.487,3.075v2.063a6.074,6.074,0,0,0,.094,1.388c.024.087.184.159.478.215a3.955,3.955,0,0,0,.7.084.531.531,0,0,1,.066.272.358.358,0,0,1-.066.272q-1.913-.093-2.006-.093-.057,0-1.988.093a.354.354,0,0,1-.065-.272.523.523,0,0,1,.065-.272,3.965,3.965,0,0,0,.7-.084c.294-.056.453-.128.479-.215a6.2,6.2,0,0,0,.094-1.388V55.6a5.389,5.389,0,0,0-.375-2.419,1.541,1.541,0,0,0-1.463-.656,2.158,2.158,0,0,0-1.125.431q-.657.432-.657.6v3.919a6.136,6.136,0,0,0,.094,1.388q.037.131.479.215a3.945,3.945,0,0,0,.7.084.533.533,0,0,1,.065.272.358.358,0,0,1-.065.272q-1.914-.093-2.007-.093-.055,0-1.987.093a.353.353,0,0,1-.066-.272.521.521,0,0,1,.066-.272,3.965,3.965,0,0,0,.7-.084q.441-.084.478-.215a6.136,6.136,0,0,0,.094-1.388V49.187a3.155,3.155,0,0,0-.094-.975c-.1-.224-.481-.338-1.144-.338-.013,0-.022-.04-.028-.121a1.656,1.656,0,0,1,0-.244c.006-.081.022-.122.047-.122a8.537,8.537,0,0,0,2.662-.75c.05,0,.1.035.141.1a.361.361,0,0,1,.066.2,5.166,5.166,0,0,0-.207,1.632v4.237c0,.025.019.037.057.037.012,0,.03-.012.056-.037a5.459,5.459,0,0,1,1.153-.891A2.729,2.729,0,0,1,221.791,51.437Z"/><path d="M231.391,51.456a1.539,1.539,0,0,1,.684.16,1.036,1.036,0,0,1,.46.383,1.608,1.608,0,0,1,.074.507,1.086,1.086,0,0,1-.214.722.478.478,0,0,1-.629.206,1.5,1.5,0,0,1-.282-.169c-.112-.081-.174-.128-.187-.141a1.241,1.241,0,0,0-.693-.224,1.317,1.317,0,0,0-1.022.637,1.933,1.933,0,0,0-.478,1.05v2.888a6.158,6.158,0,0,0,.093,1.388q.038.131.666.215a7.788,7.788,0,0,0,.947.084.513.513,0,0,1,.065.272.358.358,0,0,1-.065.272q-1.913-.093-2.326-.093-.187,0-2.1.093a.353.353,0,0,1-.066-.272.521.521,0,0,1,.066-.272,3.965,3.965,0,0,0,.7-.084q.441-.084.478-.215a6.136,6.136,0,0,0,.094-1.388V53.988a3.154,3.154,0,0,0-.094-.976c-.087-.225-.494-.337-1.218-.337a.408.408,0,0,1-.047-.225.413.413,0,0,1,.047-.263,8.384,8.384,0,0,0,2.68-.787c.05,0,.1.037.141.112a.393.393,0,0,1,.065.188,12.286,12.286,0,0,0-.13,1.725c0,.074.024.087.075.037a4.708,4.708,0,0,1,.974-1.349A1.84,1.84,0,0,1,231.391,51.456Z"/><path d="M236.284,53.556v3.919a6.074,6.074,0,0,0,.094,1.388q.038.131.478.215a3.975,3.975,0,0,0,.7.084.523.523,0,0,1,.065.272.358.358,0,0,1-.065.272q-1.932-.093-2.006-.093t-1.989.093a.362.362,0,0,1-.065-.272.533.533,0,0,1,.065-.272,3.954,3.954,0,0,0,.7-.084c.293-.056.453-.128.478-.215a6.074,6.074,0,0,0,.094-1.388V53.988a3.122,3.122,0,0,0-.094-.976q-.132-.338-1.219-.337a.417.417,0,0,1-.047-.225.427.427,0,0,1,.047-.263,8.4,8.4,0,0,0,2.682-.787c.05,0,.1.037.141.112a.4.4,0,0,1,.065.188,10.768,10.768,0,0,0-.132,1.237ZM234.757,49.2a.953.953,0,1,1,.665.271A.9.9,0,0,1,234.757,49.2Z"/></g><path d="M235.422,9.093q3.124,0,3.125,1.807v5.908a5.276,5.276,0,0,0-6.25,0V10.9Q232.3,9.093,235.422,9.093Z"/><g class="a"><path d="M241.61,51.456a6.739,6.739,0,0,1,1.04.1q.628.1.872.141a11.355,11.355,0,0,1,.226,2.062c0,.063-.063.094-.188.094a.482.482,0,0,1-.319-.094,3.211,3.211,0,0,0-.6-1.181,1.236,1.236,0,0,0-.975-.544,1.372,1.372,0,0,0-.994.329,1.134,1.134,0,0,0-.337.852,1.238,1.238,0,0,0,.075.442,2.348,2.348,0,0,0,.15.328,1.092,1.092,0,0,0,.281.29c.138.106.244.184.319.234s.209.129.4.234.328.185.4.235q.038.02.431.253l.516.309q.121.075.431.32a2.011,2.011,0,0,1,.422.412,3.086,3.086,0,0,1,.234.44,1.335,1.335,0,0,1,.123.554,2.342,2.342,0,0,1-.863,1.847,3.009,3.009,0,0,1-2.025.74,5.15,5.15,0,0,1-.722-.047,7.767,7.767,0,0,1-.778-.159q-.45-.112-.694-.151a5.2,5.2,0,0,1-.215-.937,6.687,6.687,0,0,1-.1-1.012.55.55,0,0,1,.338-.113.309.309,0,0,1,.169.038,2.781,2.781,0,0,0,.759,1.219,1.768,1.768,0,0,0,1.265.562,1.362,1.362,0,0,0,.976-.356,1.306,1.306,0,0,0,.375-.994,1.511,1.511,0,0,0-.113-.6,1.27,1.27,0,0,0-.394-.487,4.862,4.862,0,0,0-.5-.357q-.216-.131-.647-.365c-.288-.156-.5-.272-.638-.348a2.36,2.36,0,0,1-1.425-2.005,2,2,0,0,1,.816-1.651A3,3,0,0,1,241.61,51.456Z"/><path d="M247.873,51.55h2.419c.062,0,.093.069.093.206a.793.793,0,0,1-.262.563h-2.25v4.912q0,1.538,1.237,1.538a2.071,2.071,0,0,0,1.219-.432.148.148,0,0,1,.056.131.4.4,0,0,1-.075.281,2.572,2.572,0,0,1-1.931,1.032q-1.95,0-1.95-2.025V52.319h-1.088c-.062,0-.093-.057-.093-.169q0-.112.487-.6h.694V50.369c.1-.113.243-.272.431-.479s.35-.384.488-.534.212-.232.225-.243a.232.232,0,0,1,.112-.057.322.322,0,0,1,.131-.01c.038.007.057.023.057.047Z"/><path d="M252.785,55v.132a3.531,3.531,0,0,0,.881,2.56,2.909,2.909,0,0,0,2.175.909,2.313,2.313,0,0,0,1.219-.328,3.66,3.66,0,0,0,.844-.666.083.083,0,0,1,.047.028.5.5,0,0,1,.065.094.281.281,0,0,1,.038.141.672.672,0,0,1-.113.337,3.841,3.841,0,0,1-1.059,1.087,2.793,2.793,0,0,1-1.678.507,3.545,3.545,0,0,1-2.7-1.116,3.9,3.9,0,0,1-1.049-2.784,4.544,4.544,0,0,1,1.19-3.131,3.39,3.39,0,0,1,2.5-1.332,3.177,3.177,0,0,1,1.378.281,2.109,2.109,0,0,1,.882.723,3.686,3.686,0,0,1,.422.824,2.257,2.257,0,0,1,.131.723q0,.861-.45.881Q255.466,55,252.785,55Zm.093-.693h3.057a.382.382,0,0,0,.431-.432,2.121,2.121,0,0,0-.394-1.162,1.281,1.281,0,0,0-1.143-.6,1.528,1.528,0,0,0-1.182.543,2.967,2.967,0,0,0-.656,1.1C252.878,54.121,252.841,54.306,252.878,54.306Z"/><path d="M260.753,57.343a.946.946,0,0,1,.488.132,2.567,2.567,0,0,1,.338,1.312,3.784,3.784,0,0,1-.741,1.931,4.409,4.409,0,0,1-1.472,1.538c-.063,0-.125-.05-.187-.15a.5.5,0,0,1-.094-.243,2.558,2.558,0,0,0,1.181-2.082,1.307,1.307,0,0,0-.309-.722,1.365,1.365,0,0,1-.31-.8.856.856,0,0,1,.319-.618A1.107,1.107,0,0,1,260.753,57.343Z"/></g><path d="M254.735,21.593q3.124,0,3.125,1.807v5.908a5.276,5.276,0,0,0-6.25,0V23.4Q251.61,21.593,254.735,21.593Z"/><g class="a"><path d="M271.481,55v.132a3.531,3.531,0,0,0,.881,2.56,2.911,2.911,0,0,0,2.176.909,2.309,2.309,0,0,0,1.218-.328,3.639,3.639,0,0,0,.844-.666.083.083,0,0,1,.047.028.459.459,0,0,1,.065.094.281.281,0,0,1,.038.141.672.672,0,0,1-.113.337,3.841,3.841,0,0,1-1.059,1.087,2.793,2.793,0,0,1-1.678.507,3.542,3.542,0,0,1-2.7-1.116,3.9,3.9,0,0,1-1.05-2.784,4.544,4.544,0,0,1,1.19-3.131,3.391,3.391,0,0,1,2.5-1.332,3.18,3.18,0,0,1,1.378.281,2.106,2.106,0,0,1,.881.723,3.644,3.644,0,0,1,.422.824,2.257,2.257,0,0,1,.131.723q0,.861-.45.881Q274.163,55,271.481,55Zm.094-.693h3.056a.382.382,0,0,0,.431-.432,2.121,2.121,0,0,0-.394-1.162,1.281,1.281,0,0,0-1.143-.6,1.524,1.524,0,0,0-1.181.543,2.954,2.954,0,0,0-.656,1.1C271.575,54.121,271.538,54.306,271.575,54.306Z"/></g><path d="M273.431,21.593q3.126,0,3.125,1.807v5.908a5.276,5.276,0,0,0-6.25,0V23.4Q270.306,21.593,273.431,21.593Z"/><g class="a"><path d="M279.131,49.187a3.165,3.165,0,0,0-.093-.975c-.1-.224-.482-.338-1.144-.338-.013,0-.022-.04-.028-.121a1.42,1.42,0,0,1,0-.244c.006-.081.021-.122.047-.122a8.545,8.545,0,0,0,2.662-.75c.05,0,.1.035.14.1a.361.361,0,0,1,.066.2,5.2,5.2,0,0,0-.206,1.632v8.906a6.158,6.158,0,0,0,.093,1.388q.037.131.479.215a3.955,3.955,0,0,0,.7.084.531.531,0,0,1,.066.272.358.358,0,0,1-.066.272q-1.913-.093-2.006-.093-.057,0-1.988.093a.354.354,0,0,1-.065-.272.523.523,0,0,1,.065-.272,3.955,3.955,0,0,0,.7-.084c.294-.056.453-.128.479-.215a6.158,6.158,0,0,0,.093-1.388Z"/><path d="M284.325,55v.132a3.531,3.531,0,0,0,.881,2.56,2.909,2.909,0,0,0,2.175.909,2.313,2.313,0,0,0,1.219-.328,3.66,3.66,0,0,0,.844-.666.083.083,0,0,1,.047.028.5.5,0,0,1,.066.094.291.291,0,0,1,.037.141.662.662,0,0,1-.113.337,3.841,3.841,0,0,1-1.059,1.087,2.793,2.793,0,0,1-1.678.507,3.545,3.545,0,0,1-2.7-1.116,3.9,3.9,0,0,1-1.049-2.784,4.544,4.544,0,0,1,1.19-3.131,3.39,3.39,0,0,1,2.5-1.332,3.176,3.176,0,0,1,1.377.281,2.109,2.109,0,0,1,.882.723,3.686,3.686,0,0,1,.422.824,2.257,2.257,0,0,1,.131.723c0,.574-.149.868-.45.881Q287.007,55,284.325,55Zm.093-.693h3.057a.382.382,0,0,0,.431-.432,2.121,2.121,0,0,0-.394-1.162,1.281,1.281,0,0,0-1.143-.6,1.524,1.524,0,0,0-1.181.543,2.957,2.957,0,0,0-.657,1.1C284.418,54.121,284.381,54.306,284.418,54.306Zm3.451-6.919q.675,0,.674.544,0,.395-1.312,1.425a6.107,6.107,0,0,1-1.519,1.031c-.112,0-.169-.081-.169-.243a7.8,7.8,0,0,1,.685-1.06q.684-.984,1.134-1.547A.7.7,0,0,1,287.869,47.387Z"/></g><g class="a"><path d="M291.638,54.756q3.9-.206,4.518-.225c.088,0,.132.056.132.169a2.4,2.4,0,0,1-.244,1.012q-.375.019-4.519.206c-.087,0-.131-.068-.131-.206A2.293,2.293,0,0,1,291.638,54.756Z"/></g><path d="M286.275,21.593q3.125,0,3.125,1.807v5.908a5.276,5.276,0,0,0-6.25,0V23.4Q283.15,21.593,286.275,21.593Z"/><g class="a"><path d="M301.2,53.556v3.919a6.074,6.074,0,0,0,.094,1.388c.024.087.185.159.478.215a3.954,3.954,0,0,0,.7.084.533.533,0,0,1,.065.272.362.362,0,0,1-.065.272q-1.932-.093-2.007-.093t-1.988.093a.358.358,0,0,1-.065-.272.523.523,0,0,1,.065-.272,3.975,3.975,0,0,0,.7-.084q.441-.084.478-.215a6.136,6.136,0,0,0,.094-1.388V53.988a3.154,3.154,0,0,0-.094-.976q-.132-.338-1.219-.337a.653.653,0,0,1,0-.488,8.391,8.391,0,0,0,2.681-.787c.05,0,.1.037.141.112a.393.393,0,0,1,.065.188,10.929,10.929,0,0,0-.131,1.237ZM299.672,49.2a.953.953,0,1,1,.666.271A.9.9,0,0,1,299.672,49.2Z"/></g><path d="M300.337,27.843q3.126,0,3.125,1.807v5.908a5.276,5.276,0,0,0-6.25,0V29.65Q297.212,27.843,300.337,27.843Z"/><g class="a"><path d="M306.525,51.456a6.739,6.739,0,0,1,1.04.1q.628.1.873.141a11.364,11.364,0,0,1,.225,2.062c0,.063-.063.094-.187.094a.485.485,0,0,1-.32-.094,3.209,3.209,0,0,0-.6-1.181,1.239,1.239,0,0,0-.976-.544,1.367,1.367,0,0,0-.993.329,1.131,1.131,0,0,0-.338.852,1.238,1.238,0,0,0,.075.442,2.342,2.342,0,0,0,.151.328,1.061,1.061,0,0,0,.281.29q.205.159.318.234c.075.05.209.129.4.234s.328.185.4.235c.024.013.168.1.43.253l.516.309c.081.05.226.157.432.32a2.036,2.036,0,0,1,.422.412,3.191,3.191,0,0,1,.234.44,1.349,1.349,0,0,1,.122.554,2.339,2.339,0,0,1-.863,1.847,3.009,3.009,0,0,1-2.025.74,5.135,5.135,0,0,1-.721-.047,7.724,7.724,0,0,1-.779-.159c-.3-.075-.531-.125-.694-.151a5.384,5.384,0,0,1-.215-.937,6.662,6.662,0,0,1-.1-1.012.546.546,0,0,1,.338-.113.307.307,0,0,1,.168.038,2.781,2.781,0,0,0,.759,1.219,1.769,1.769,0,0,0,1.266.562,1.361,1.361,0,0,0,.975-.356,1.306,1.306,0,0,0,.375-.994,1.511,1.511,0,0,0-.113-.6,1.276,1.276,0,0,0-.393-.487,4.974,4.974,0,0,0-.5-.357q-.216-.131-.647-.365c-.288-.156-.5-.272-.638-.348a2.358,2.358,0,0,1-1.424-2.005,2,2,0,0,1,.815-1.651A3,3,0,0,1,306.525,51.456Z"/><path d="M314.551,51.418a3.836,3.836,0,0,1,2.915,1.154,4.085,4.085,0,0,1,1.1,2.934,4.321,4.321,0,0,1-1.133,3.047,3.709,3.709,0,0,1-2.841,1.228,3.849,3.849,0,0,1-2.925-1.162,4.124,4.124,0,0,1-1.106-2.963,4.236,4.236,0,0,1,1.143-3.028A3.765,3.765,0,0,1,314.551,51.418Zm-.207.619a1.765,1.765,0,0,0-1.641.938,4.608,4.608,0,0,0-.534,2.306,5.128,5.128,0,0,0,.713,2.691,2.139,2.139,0,0,0,1.893,1.19,1.763,1.763,0,0,0,1.641-.937,4.558,4.558,0,0,0,.534-2.288,5.206,5.206,0,0,0-.712-2.691A2.14,2.14,0,0,0,314.344,52.037Z"/><path d="M325.369,51.437a2,2,0,0,1,1.931.9,6.952,6.952,0,0,1,.487,3.075v2.063a6.074,6.074,0,0,0,.094,1.388q.038.131.478.215a3.975,3.975,0,0,0,.7.084.511.511,0,0,1,.066.272.353.353,0,0,1-.066.272q-1.931-.093-2-.093t-1.989.093a.362.362,0,0,1-.065-.272.533.533,0,0,1,.065-.272,3.935,3.935,0,0,0,.7-.084q.441-.084.479-.215a6.136,6.136,0,0,0,.094-1.388V55.6a5.375,5.375,0,0,0-.375-2.419,1.538,1.538,0,0,0-1.463-.656,2.158,2.158,0,0,0-1.125.431q-.657.432-.656.6v3.919a6.158,6.158,0,0,0,.093,1.388c.026.087.185.159.479.215a3.965,3.965,0,0,0,.7.084.513.513,0,0,1,.065.272.354.354,0,0,1-.065.272q-1.93-.093-2.006-.093t-1.988.093a.362.362,0,0,1-.066-.272.531.531,0,0,1,.066-.272,3.945,3.945,0,0,0,.7-.084c.294-.056.453-.128.479-.215a6.158,6.158,0,0,0,.093-1.388V54.062a3.539,3.539,0,0,0-.093-1.05q-.132-.338-1.219-.337a.408.408,0,0,1-.047-.225.42.42,0,0,1,.047-.263,8.391,8.391,0,0,0,2.681-.787c.05,0,.1.037.141.112a.4.4,0,0,1,.065.188,9.2,9.2,0,0,0-.112,1.069c0,.05.012.074.037.074s.031-.012.057-.037a5.449,5.449,0,0,1,1.152-.891A2.732,2.732,0,0,1,325.369,51.437Z"/><path d="M330.206,58.806a.963.963,0,0,1,.31-.713,1.03,1.03,0,0,1,.741-.3.989.989,0,0,1,.712.291.966.966,0,0,1,.3.722,1.024,1.024,0,0,1-.3.74.957.957,0,0,1-.712.31,1.017,1.017,0,0,1-.732-.31A.992.992,0,0,1,330.206,58.806Z"/></g><path d="M314.559,21.593q3.126,0,3.125,1.807v5.908a5.276,5.276,0,0,0-6.25,0V23.4Q311.434,21.593,314.559,21.593Z"/><path d="M320.777,19.212a1.5,1.5,0,0,1,1.093.43,1.421,1.421,0,0,1,.439,1.054,1.513,1.513,0,0,1-1.532,1.516,1.4,1.4,0,0,1-1.028-.447,1.466,1.466,0,0,1-.44-1.069,1.487,1.487,0,0,1,1.468-1.484Z"/><g class="a"><path class="b" d="M341.726,53.593a4.785,4.785,0,0,0,.075-.6q0-.47-.188-.469a.529.529,0,0,0-.234.075,1.482,1.482,0,0,0-.272.187c-.087.076-.181.163-.281.263s-.184.188-.253.262-.129.144-.178.207l-.094.094c-.026,0-.063-.047-.113-.141a.534.534,0,0,1-.075-.216,5.221,5.221,0,0,1,1.013-1.088,2.206,2.206,0,0,1,1.35-.674.631.631,0,0,1,.515.281,1.1,1.1,0,0,1,.216.693,6.187,6.187,0,0,1-.131.994l-.956,4.2a3.152,3.152,0,0,0-.075.6q0,.47.187.469a.528.528,0,0,0,.235-.075,1.482,1.482,0,0,0,.271-.188c.088-.074.182-.162.282-.262s.184-.187.252-.262.135-.144.2-.206l.075-.094c.024,0,.062.047.112.141a.512.512,0,0,1,.075.214,4.819,4.819,0,0,1-1.049,1.079,2.4,2.4,0,0,1-1.407.684.525.525,0,0,1-.468-.271,1.306,1.306,0,0,1-.169-.7,6.2,6.2,0,0,1,.131-.994Zm1.069-6.056a.613.613,0,0,1,.477.225.77.77,0,0,1,.2.525,1.17,1.17,0,0,1-.291.788.914.914,0,0,1-.722.337.547.547,0,0,1-.469-.234.956.956,0,0,1-.169-.572,1.1,1.1,0,0,1,.282-.75A.891.891,0,0,1,342.8,47.537Z"/><path class="b" d="M346.751,53.593a4.593,4.593,0,0,0,.075-.6q0-.47-.187-.469a.528.528,0,0,0-.235.075,1.511,1.511,0,0,0-.271.187c-.088.076-.182.163-.281.263s-.185.188-.254.262-.128.144-.178.207l-.094.094c-.025,0-.062-.047-.112-.141a.5.5,0,0,1-.075-.216,5.237,5.237,0,0,1,1.012-1.088,2.2,2.2,0,0,1,1.35-.674.634.634,0,0,1,.516.281,1.11,1.11,0,0,1,.215.693,6.272,6.272,0,0,1-.13.994l-1.032,5.344a7.706,7.706,0,0,1-1.332,3.169,6.84,6.84,0,0,1-1.293,1.284,5.88,5.88,0,0,1-1.312.8.447.447,0,0,1-.169-.375,4.786,4.786,0,0,0,1.649-1.716,8.163,8.163,0,0,0,1.013-2.727Zm1.275-6.056a.614.614,0,0,1,.478.225.769.769,0,0,1,.2.525,1.17,1.17,0,0,1-.291.788.913.913,0,0,1-.722.337.544.544,0,0,1-.468-.234.949.949,0,0,1-.169-.572,1.1,1.1,0,0,1,.281-.75A.892.892,0,0,1,348.026,47.537Z"/><path class="b" d="M349.376,59.031a1.239,1.239,0,0,1,.394-.9,1.2,1.2,0,0,1,.862-.393.771.771,0,0,1,.581.234.842.842,0,0,1,.225.609,1.315,1.315,0,0,1-.384.918,1.146,1.146,0,0,1-.853.413.773.773,0,0,1-.591-.252A.891.891,0,0,1,349.376,59.031Z"/></g><rect x="344.617" y="0.4" width="0.8" height="37.5"/><rect x="350.067" y="0.4" width="0.8" height="37.5"/><g class="a"><path d="M362.639,47.331c.187,0,.92-.031,2.194-.093a.407.407,0,0,1,.065.3.57.57,0,0,1-.065.3,4.937,4.937,0,0,0-.769.084q-.488.086-.525.216a6.129,6.129,0,0,0-.094,1.388v3.731a18.041,18.041,0,0,0,2.119-1.893,29.773,29.773,0,0,0,2.381-2.551,1.079,1.079,0,0,0,.263-.581c0-.275-.351-.412-1.05-.412a.77.77,0,0,1,0-.581q2.081.111,2.156.112.488,0,1.172-.057t.854-.055a.852.852,0,0,1,.027.328c-.006.168-.027.253-.065.253l-.15.018a1.862,1.862,0,0,0-.272.019c-.081.013-.191.035-.328.065a3.111,3.111,0,0,0-.384.114,2.043,2.043,0,0,0-.375.187,1.552,1.552,0,0,0-.348.29c-.375.413-.761.822-1.162,1.229s-.719.724-.957.956-.609.588-1.115,1.068-.871.835-1.1,1.06a.113.113,0,0,0,0,.15c.063.075.306.359.732.853s.683.8.777.91.313.365.656.758.588.669.733.826l.609.666q.393.43.693.73c.2.2.4.395.6.582a3.326,3.326,0,0,0,2.044.862.491.491,0,0,1,.038.291.659.659,0,0,1-.057.253,10.246,10.246,0,0,1-2.662-.207,3.392,3.392,0,0,1-1.275-.8q-.507-.507-4.219-4.744c-.025-.038-.082-.056-.169-.056a.374.374,0,0,0-.169.037v3.487a6.123,6.123,0,0,0,.094,1.388c.025.088.2.159.525.216a4.816,4.816,0,0,0,.769.084.57.57,0,0,1,.065.3.411.411,0,0,1-.065.3c-1.274-.062-2.007-.093-2.194-.093s-.925.031-2.212.093a.406.406,0,0,1-.066-.3.578.578,0,0,1,.066-.3,4.806,4.806,0,0,0,.768-.084c.326-.057.5-.128.526-.216a6.146,6.146,0,0,0,.093-1.388V49.525a6.152,6.152,0,0,0-.093-1.388c-.026-.087-.2-.159-.526-.216a4.926,4.926,0,0,0-.768-.084.578.578,0,0,1-.066-.3.4.4,0,0,1,.066-.3Q362.357,47.331,362.639,47.331Z"/><path d="M373.809,51.681a16.046,16.046,0,0,0,1.875-.094.661.661,0,0,1,.009.31c-.019.156-.047.234-.085.234q-.937,0-.937.319l.038.075,1.986,5.062q.938-2.493,1.651-4.256a1.511,1.511,0,0,0,.113-.6.489.489,0,0,0-.3-.441,1.68,1.68,0,0,0-.787-.159c-.051,0-.075-.078-.075-.234a.45.45,0,0,1,.075-.31,13.044,13.044,0,0,0,1.688.094q.636,0,1.574-.094a.5.5,0,0,1,.038.31q-.019.234-.075.234a1.98,1.98,0,0,0-.647.15.916.916,0,0,0-.553.488q-2.005,4.781-2.812,6.768-.114.263-.4,1.06t-.534,1.313a7.473,7.473,0,0,1-.544.964,2,2,0,0,1-1.631,1.051.721.721,0,0,1-.825-.806.827.827,0,0,1,.225-.544,3.033,3.033,0,0,0,1.182-.188,2.717,2.717,0,0,0,.955-.881,5.192,5.192,0,0,0,.525-.975,8.664,8.664,0,0,0,.375-.918q-1.763-4.519-2.963-7.107-.187-.375-1.011-.375c-.026,0-.038-.085-.038-.253a.578.578,0,0,1,.038-.291A17.935,17.935,0,0,0,373.809,51.681Zm4.761-4.294q.677,0,.676.544,0,.395-1.312,1.425a6.082,6.082,0,0,1-1.52,1.031c-.111,0-.168-.081-.168-.243a7.968,7.968,0,0,1,.684-1.06q.685-.984,1.134-1.547A.7.7,0,0,1,378.57,47.387Z"/></g><path d="M376.3,9.093q3.125,0,3.125,1.807v5.908a5.276,5.276,0,0,0-6.25,0V10.9Q373.174,9.093,376.3,9.093Z"/><g class="a"><path d="M386.377,51.456a1.543,1.543,0,0,1,.685.16,1.044,1.044,0,0,1,.459.383,1.637,1.637,0,0,1,.075.507,1.086,1.086,0,0,1-.216.722.476.476,0,0,1-.628.206,1.434,1.434,0,0,1-.281-.169c-.113-.081-.176-.128-.188-.141a1.244,1.244,0,0,0-.694-.224,1.32,1.32,0,0,0-1.022.637,1.941,1.941,0,0,0-.478,1.05v2.888a6.074,6.074,0,0,0,.094,1.388q.038.131.666.215a7.8,7.8,0,0,0,.947.084.533.533,0,0,1,.065.272.358.358,0,0,1-.065.272q-1.912-.093-2.325-.093-.187,0-2.1.093a.358.358,0,0,1-.065-.272.533.533,0,0,1,.065-.272,3.945,3.945,0,0,0,.7-.084c.294-.056.453-.128.479-.215a6.136,6.136,0,0,0,.094-1.388V53.988a3.154,3.154,0,0,0-.094-.976q-.132-.338-1.219-.337a.653.653,0,0,1,0-.488,8.4,8.4,0,0,0,2.682-.787c.049,0,.1.037.14.112a.408.408,0,0,1,.066.188,12.153,12.153,0,0,0-.132,1.725c0,.074.025.087.075.037a4.7,4.7,0,0,1,.976-1.349A1.836,1.836,0,0,1,386.377,51.456Z"/><path d="M391.271,53.556v3.919a6.158,6.158,0,0,0,.093,1.388q.038.131.479.215a3.945,3.945,0,0,0,.7.084.533.533,0,0,1,.065.272.358.358,0,0,1-.065.272q-1.932-.093-2.007-.093t-1.987.093a.353.353,0,0,1-.066-.272.521.521,0,0,1,.066-.272,3.965,3.965,0,0,0,.7-.084q.441-.084.478-.215a6.136,6.136,0,0,0,.094-1.388V53.988a3.154,3.154,0,0,0-.094-.976c-.087-.225-.494-.337-1.218-.337a.408.408,0,0,1-.047-.225.413.413,0,0,1,.047-.263,8.384,8.384,0,0,0,2.68-.787c.05,0,.1.037.141.112a.393.393,0,0,1,.065.188,10.848,10.848,0,0,0-.13,1.237ZM389.742,49.2a.953.953,0,1,1,.666.271A.907.907,0,0,1,389.742,49.2Z"/></g><g class="a"><path d="M394.271,54.756q3.9-.206,4.518-.225c.088,0,.132.056.132.169a2.4,2.4,0,0,1-.244,1.012q-.375.019-4.519.206c-.088,0-.132-.068-.132-.206A2.28,2.28,0,0,1,394.271,54.756Z"/></g><path d="M390.408,21.593q3.124,0,3.125,1.807v5.908a5.276,5.276,0,0,0-6.25,0V23.4Q387.283,21.593,390.408,21.593Z"/><g class="a"><path d="M402.521,55v.132a3.53,3.53,0,0,0,.88,2.56,2.911,2.911,0,0,0,2.176.909,2.315,2.315,0,0,0,1.219-.328,3.682,3.682,0,0,0,.844-.666.089.089,0,0,1,.047.028.5.5,0,0,1,.065.094.291.291,0,0,1,.037.141.67.67,0,0,1-.112.337,3.859,3.859,0,0,1-1.06,1.087,2.793,2.793,0,0,1-1.678.507,3.542,3.542,0,0,1-2.7-1.116,3.9,3.9,0,0,1-1.05-2.784,4.545,4.545,0,0,1,1.191-3.131,3.39,3.39,0,0,1,2.5-1.332,3.18,3.18,0,0,1,1.378.281,2.116,2.116,0,0,1,.882.723,3.679,3.679,0,0,1,.421.824,2.257,2.257,0,0,1,.131.723c0,.574-.149.868-.45.881Q405.2,55,402.521,55Zm.093-.693h3.057a.382.382,0,0,0,.431-.432,2.121,2.121,0,0,0-.394-1.162,1.284,1.284,0,0,0-1.144-.6,1.527,1.527,0,0,0-1.181.543,2.954,2.954,0,0,0-.656,1.1C402.614,54.121,402.577,54.306,402.614,54.306Z"/><path d="M410.489,57.343a.948.948,0,0,1,.488.132,2.566,2.566,0,0,1,.337,1.312,3.784,3.784,0,0,1-.741,1.931,4.408,4.408,0,0,1-1.471,1.538c-.063,0-.125-.05-.188-.15a.507.507,0,0,1-.094-.243A2.559,2.559,0,0,0,410,59.781a1.31,1.31,0,0,0-.31-.722,1.37,1.37,0,0,1-.309-.8.856.856,0,0,1,.319-.618A1.1,1.1,0,0,1,410.489,57.343Z"/></g><path d="M404.471,21.593q3.124,0,3.125,1.807v5.908a5.276,5.276,0,0,0-6.25,0V23.4Q401.346,21.593,404.471,21.593Z"/><g class="a"><path d="M421.217,55v.132a3.527,3.527,0,0,0,.882,2.56,2.907,2.907,0,0,0,2.174.909,2.308,2.308,0,0,0,1.219-.328,3.66,3.66,0,0,0,.844-.666.08.08,0,0,1,.047.028.5.5,0,0,1,.065.094.272.272,0,0,1,.038.141.672.672,0,0,1-.113.337,3.841,3.841,0,0,1-1.059,1.087,2.79,2.79,0,0,1-1.678.507,3.542,3.542,0,0,1-2.7-1.116,3.9,3.9,0,0,1-1.05-2.784,4.544,4.544,0,0,1,1.19-3.131,3.391,3.391,0,0,1,2.5-1.332,3.184,3.184,0,0,1,1.378.281,2.1,2.1,0,0,1,.881.723,3.644,3.644,0,0,1,.422.824,2.233,2.233,0,0,1,.132.723q0,.861-.451.881Q423.9,55,421.217,55Zm.094-.693h3.056a.382.382,0,0,0,.432-.432,2.123,2.123,0,0,0-.395-1.162,1.28,1.28,0,0,0-1.143-.6,1.526,1.526,0,0,0-1.181.543,2.954,2.954,0,0,0-.656,1.1C421.311,54.121,421.273,54.306,421.311,54.306Z"/></g><path d="M423.167,21.593q3.125,0,3.125,1.807v5.908a5.276,5.276,0,0,0-6.25,0V23.4Q420.042,21.593,423.167,21.593Z"/><g class="a"><path d="M428.867,49.187a3.122,3.122,0,0,0-.094-.975c-.1-.224-.481-.338-1.143-.338-.013,0-.023-.04-.028-.121a1.42,1.42,0,0,1,0-.244c.005-.081.021-.122.046-.122a8.543,8.543,0,0,0,2.663-.75c.049,0,.1.035.14.1a.363.363,0,0,1,.067.2,5.166,5.166,0,0,0-.207,1.632v8.906a6.158,6.158,0,0,0,.093,1.388c.026.087.185.159.479.215a3.965,3.965,0,0,0,.7.084.513.513,0,0,1,.065.272.354.354,0,0,1-.065.272q-1.913-.093-2.006-.093-.057,0-1.988.093a.362.362,0,0,1-.066-.272.531.531,0,0,1,.066-.272,3.945,3.945,0,0,0,.7-.084q.441-.084.478-.215a6.074,6.074,0,0,0,.094-1.388Z"/><path d="M434.061,55v.132a3.526,3.526,0,0,0,.881,2.56,2.909,2.909,0,0,0,2.175.909,2.31,2.31,0,0,0,1.219-.328,3.682,3.682,0,0,0,.844-.666.083.083,0,0,1,.047.028.5.5,0,0,1,.065.094.281.281,0,0,1,.038.141.672.672,0,0,1-.113.337,3.855,3.855,0,0,1-1.059,1.087,2.793,2.793,0,0,1-1.679.507,3.543,3.543,0,0,1-2.7-1.116,3.9,3.9,0,0,1-1.05-2.784,4.545,4.545,0,0,1,1.191-3.131,3.391,3.391,0,0,1,2.5-1.332,3.184,3.184,0,0,1,1.378.281,2.112,2.112,0,0,1,.881.723,3.6,3.6,0,0,1,.421.824,2.233,2.233,0,0,1,.132.723q0,.861-.45.881Q436.743,55,434.061,55Zm.093-.693h3.057a.382.382,0,0,0,.432-.432,2.123,2.123,0,0,0-.395-1.162,1.283,1.283,0,0,0-1.144-.6,1.525,1.525,0,0,0-1.18.543,2.954,2.954,0,0,0-.656,1.1C434.154,54.121,434.117,54.306,434.154,54.306Zm3.45-6.919c.451,0,.675.182.675.544q0,.395-1.312,1.425a6.107,6.107,0,0,1-1.519,1.031c-.112,0-.169-.081-.169-.243a7.924,7.924,0,0,1,.685-1.06q.684-.984,1.135-1.547A.7.7,0,0,1,437.6,47.387Z"/></g><g class="a"><path d="M441.373,54.756q3.9-.206,4.52-.225c.086,0,.13.056.13.169a2.388,2.388,0,0,1-.244,1.012q-.375.019-4.518.206c-.087,0-.131-.068-.131-.206A2.306,2.306,0,0,1,441.373,54.756Z"/></g><path d="M436.011,21.593q3.124,0,3.125,1.807v5.908a5.276,5.276,0,0,0-6.25,0V23.4Q432.886,21.593,436.011,21.593Z"/><g class="a"><path d="M450.936,53.556v3.919a6.158,6.158,0,0,0,.093,1.388c.026.087.185.159.479.215a3.965,3.965,0,0,0,.7.084.513.513,0,0,1,.065.272.354.354,0,0,1-.065.272q-1.931-.093-2.006-.093t-1.988.093a.362.362,0,0,1-.066-.272.531.531,0,0,1,.066-.272,3.945,3.945,0,0,0,.7-.084q.441-.084.478-.215a6.074,6.074,0,0,0,.094-1.388V53.988a3.122,3.122,0,0,0-.094-.976c-.087-.225-.494-.337-1.218-.337a.408.408,0,0,1-.047-.225.42.42,0,0,1,.047-.263,8.391,8.391,0,0,0,2.681-.787c.05,0,.1.037.141.112a.4.4,0,0,1,.065.188,10.689,10.689,0,0,0-.131,1.237ZM449.408,49.2a.953.953,0,1,1,.665.271A.908.908,0,0,1,449.408,49.2Z"/></g><path d="M450.073,27.843q3.126,0,3.125,1.807v5.908a5.276,5.276,0,0,0-6.25,0V29.65Q446.948,27.843,450.073,27.843Z"/><g class="a"><path d="M456.261,51.456a6.751,6.751,0,0,1,1.041.1c.419.069.709.116.872.141a11.373,11.373,0,0,1,.224,2.062c0,.063-.062.094-.187.094a.477.477,0,0,1-.318-.094,3.229,3.229,0,0,0-.6-1.181,1.234,1.234,0,0,0-.975-.544,1.373,1.373,0,0,0-.994.329,1.138,1.138,0,0,0-.337.852,1.238,1.238,0,0,0,.075.442,2.348,2.348,0,0,0,.15.328,1.076,1.076,0,0,0,.281.29c.138.106.244.184.319.234s.21.129.4.234.328.185.4.235c.026.013.169.1.432.253l.515.309c.082.05.225.157.431.32a2.011,2.011,0,0,1,.422.412,3.086,3.086,0,0,1,.234.44,1.349,1.349,0,0,1,.122.554,2.341,2.341,0,0,1-.862,1.847,3.009,3.009,0,0,1-2.025.74,5.16,5.16,0,0,1-.722-.047,7.767,7.767,0,0,1-.778-.159c-.3-.075-.532-.125-.694-.151a5.2,5.2,0,0,1-.215-.937,6.687,6.687,0,0,1-.1-1.012.552.552,0,0,1,.338-.113.309.309,0,0,1,.169.038,2.79,2.79,0,0,0,.759,1.219,1.77,1.77,0,0,0,1.265.562,1.36,1.36,0,0,0,.976-.356,1.306,1.306,0,0,0,.375-.994,1.528,1.528,0,0,0-.112-.6,1.283,1.283,0,0,0-.395-.487,4.754,4.754,0,0,0-.5-.357c-.145-.087-.359-.209-.648-.365s-.5-.272-.637-.348a2.362,2.362,0,0,1-1.425-2.005,2,2,0,0,1,.815-1.651A3,3,0,0,1,456.261,51.456Z"/><path d="M464.286,51.418a3.837,3.837,0,0,1,2.916,1.154,4.086,4.086,0,0,1,1.1,2.934,4.318,4.318,0,0,1-1.135,3.047,3.707,3.707,0,0,1-2.841,1.228,3.852,3.852,0,0,1-2.925-1.162,4.128,4.128,0,0,1-1.106-2.963,4.233,4.233,0,0,1,1.145-3.028A3.758,3.758,0,0,1,464.286,51.418Zm-.206.619a1.765,1.765,0,0,0-1.641.938,4.6,4.6,0,0,0-.534,2.306,5.146,5.146,0,0,0,.712,2.691,2.143,2.143,0,0,0,1.894,1.19,1.76,1.76,0,0,0,1.64-.937,4.548,4.548,0,0,0,.536-2.288,5.216,5.216,0,0,0-.713-2.691A2.143,2.143,0,0,0,464.08,52.037Z"/><path d="M475.1,51.437a2,2,0,0,1,1.932.9,6.966,6.966,0,0,1,.487,3.075v2.063a6.136,6.136,0,0,0,.094,1.388q.037.131.479.215a3.945,3.945,0,0,0,.7.084.533.533,0,0,1,.065.272.358.358,0,0,1-.065.272q-1.932-.093-2.007-.093t-1.987.093a.353.353,0,0,1-.066-.272.521.521,0,0,1,.066-.272,3.975,3.975,0,0,0,.7-.084q.441-.084.478-.215a6.136,6.136,0,0,0,.094-1.388V55.6a5.389,5.389,0,0,0-.375-2.419,1.54,1.54,0,0,0-1.463-.656,2.164,2.164,0,0,0-1.125.431q-.656.432-.656.6v3.919a6.074,6.074,0,0,0,.094,1.388c.024.087.184.159.478.215a3.955,3.955,0,0,0,.7.084.531.531,0,0,1,.066.272.358.358,0,0,1-.066.272q-1.932-.093-2.007-.093t-1.987.093a.354.354,0,0,1-.065-.272.523.523,0,0,1,.065-.272,3.965,3.965,0,0,0,.7-.084c.294-.056.453-.128.479-.215a6.2,6.2,0,0,0,.094-1.388V54.062a3.563,3.563,0,0,0-.094-1.05q-.132-.338-1.219-.337a.417.417,0,0,1-.047-.225.413.413,0,0,1,.047-.263,8.391,8.391,0,0,0,2.681-.787c.05,0,.1.037.14.112a.4.4,0,0,1,.066.188,9.523,9.523,0,0,0-.113,1.069c0,.05.013.074.039.074s.03-.012.055-.037a5.443,5.443,0,0,1,1.154-.891A2.723,2.723,0,0,1,475.1,51.437Z"/><path d="M479.942,58.806a.96.96,0,0,1,.31-.713,1.028,1.028,0,0,1,.74-.3.99.99,0,0,1,.713.291.97.97,0,0,1,.3.722,1.028,1.028,0,0,1-.3.74.958.958,0,0,1-.713.31,1.018,1.018,0,0,1-.731-.31A.992.992,0,0,1,479.942,58.806Z"/></g><path d="M464.3,21.593q3.126,0,3.125,1.807v5.908a5.276,5.276,0,0,0-6.25,0V23.4Q461.17,21.593,464.3,21.593Z"/><path d="M470.513,19.212a1.5,1.5,0,0,1,1.093.43,1.421,1.421,0,0,1,.439,1.054,1.513,1.513,0,0,1-1.532,1.516,1.4,1.4,0,0,1-1.028-.447,1.466,1.466,0,0,1-.44-1.069,1.487,1.487,0,0,1,1.468-1.484Z"/><g class="a"><path class="b" d="M491.462,53.593a4.593,4.593,0,0,0,.075-.6q0-.47-.187-.469a.528.528,0,0,0-.235.075,1.517,1.517,0,0,0-.272.187c-.087.076-.181.163-.281.263s-.185.188-.253.262-.128.144-.178.207l-.094.094c-.025,0-.062-.047-.112-.141a.5.5,0,0,1-.075-.216,5.237,5.237,0,0,1,1.012-1.088,2.2,2.2,0,0,1,1.35-.674.634.634,0,0,1,.516.281,1.11,1.11,0,0,1,.215.693,6.187,6.187,0,0,1-.131.994l-.957,4.2a3.325,3.325,0,0,0-.075.6q0,.47.188.469a.529.529,0,0,0,.234-.075,1.53,1.53,0,0,0,.273-.188c.087-.074.18-.162.281-.262s.183-.187.253-.262.134-.144.2-.206l.074-.094c.026,0,.063.047.114.141a.522.522,0,0,1,.074.214,4.806,4.806,0,0,1-1.05,1.079,2.4,2.4,0,0,1-1.406.684.527.527,0,0,1-.469-.271,1.324,1.324,0,0,1-.169-.7,6.117,6.117,0,0,1,.132-.994Zm1.068-6.056a.616.616,0,0,1,.479.225.774.774,0,0,1,.2.525,1.175,1.175,0,0,1-.291.788.916.916,0,0,1-.722.337.544.544,0,0,1-.468-.234.949.949,0,0,1-.169-.572,1.1,1.1,0,0,1,.281-.75A.89.89,0,0,1,492.53,47.537Z"/><path class="b" d="M496.487,53.593a4.593,4.593,0,0,0,.075-.6q0-.47-.188-.469a.525.525,0,0,0-.234.075,1.482,1.482,0,0,0-.272.187c-.088.076-.181.163-.281.263s-.185.188-.253.262-.129.144-.179.207l-.093.094c-.025,0-.063-.047-.113-.141a.519.519,0,0,1-.075-.216,5.249,5.249,0,0,1,1.013-1.088,2.2,2.2,0,0,1,1.35-.674.636.636,0,0,1,.516.281,1.11,1.11,0,0,1,.215.693,6.187,6.187,0,0,1-.131.994l-1.031,5.344a7.7,7.7,0,0,1-1.331,3.169,6.875,6.875,0,0,1-1.294,1.284,5.883,5.883,0,0,1-1.313.8.45.45,0,0,1-.169-.375,4.8,4.8,0,0,0,1.651-1.716,8.206,8.206,0,0,0,1.012-2.727Zm1.275-6.056a.617.617,0,0,1,.478.225.774.774,0,0,1,.2.525,1.17,1.17,0,0,1-.291.788.914.914,0,0,1-.721.337.545.545,0,0,1-.469-.234.949.949,0,0,1-.169-.572,1.1,1.1,0,0,1,.281-.75A.892.892,0,0,1,497.762,47.537Z"/><path class="b" d="M499.111,59.031a1.24,1.24,0,0,1,.395-.9,1.2,1.2,0,0,1,.862-.393.771.771,0,0,1,.581.234.838.838,0,0,1,.225.609,1.315,1.315,0,0,1-.384.918,1.147,1.147,0,0,1-.853.413.772.772,0,0,1-.591-.252A.888.888,0,0,1,499.111,59.031Z"/></g><rect x="502.007" y="0.4" width="0.8" height="37.5"/><rect x="507.457" y="0.4" width="0.8" height="37.5"/><g class="a"><path d="M516.557,47.144a18.826,18.826,0,0,1,3.974.393q.431,2.587.432,2.775c.012.051-.028.1-.122.16a.561.561,0,0,1-.29.084.429.429,0,0,1-.226-.057q-.525-2.736-3.675-2.737a3.976,3.976,0,0,0-3.281,1.679,6.025,6.025,0,0,0-1.294,3.777,7.651,7.651,0,0,0,.516,2.832,5.121,5.121,0,0,0,1.659,2.2,4.262,4.262,0,0,0,2.7.891,3.6,3.6,0,0,0,2.476-.9,3.873,3.873,0,0,0,1.142-2.175.871.871,0,0,1,.6.149,8.593,8.593,0,0,1-.243,1.453,3.382,3.382,0,0,1-.413,1.247,8.225,8.225,0,0,1-4.032.844,6.038,6.038,0,0,1-4.491-1.8,5.978,5.978,0,0,1-1.771-4.349,6.386,6.386,0,0,1,1.809-4.576A6,6,0,0,1,516.557,47.144Z"/><path d="M527.713,51.437a2,2,0,0,1,1.932.9,6.969,6.969,0,0,1,.486,3.075v2.063a6.074,6.074,0,0,0,.094,1.388c.025.087.185.159.478.215a3.965,3.965,0,0,0,.7.084.529.529,0,0,1,.067.272.353.353,0,0,1-.067.272q-1.912-.093-2.006-.093-.055,0-1.988.093a.358.358,0,0,1-.064-.272.524.524,0,0,1,.064-.272,3.945,3.945,0,0,0,.7-.084c.295-.056.453-.128.479-.215a6.136,6.136,0,0,0,.094-1.388V55.6a5.372,5.372,0,0,0-.376-2.419,1.537,1.537,0,0,0-1.462-.656,2.158,2.158,0,0,0-1.125.431q-.657.432-.657.6v3.919a6.136,6.136,0,0,0,.094,1.388q.039.131.479.215a3.965,3.965,0,0,0,.7.084.531.531,0,0,1,.066.272.353.353,0,0,1-.066.272q-1.914-.093-2.006-.093-.055,0-1.988.093a.358.358,0,0,1-.065-.272.513.513,0,0,1,.065-.272,3.955,3.955,0,0,0,.7-.084c.295-.056.453-.128.478-.215a6.074,6.074,0,0,0,.094-1.388V49.187a3.122,3.122,0,0,0-.094-.975c-.1-.224-.48-.338-1.143-.338-.013,0-.023-.04-.029-.121a1.986,1.986,0,0,1,0-.244c.006-.081.022-.122.047-.122a8.522,8.522,0,0,0,2.662-.75c.051,0,.1.035.141.1a.353.353,0,0,1,.066.2,5.2,5.2,0,0,0-.207,1.632v4.237c0,.025.02.037.057.037.013,0,.031-.012.057-.037a5.449,5.449,0,0,1,1.152-.891A2.732,2.732,0,0,1,527.713,51.437Z"/><path d="M537.312,51.456a1.54,1.54,0,0,1,.685.16,1.041,1.041,0,0,1,.46.383,1.637,1.637,0,0,1,.074.507,1.086,1.086,0,0,1-.215.722.477.477,0,0,1-.628.206,1.5,1.5,0,0,1-.282-.169c-.112-.081-.176-.128-.187-.141a1.244,1.244,0,0,0-.694-.224,1.315,1.315,0,0,0-1.021.637,1.936,1.936,0,0,0-.479,1.05v2.888a6.136,6.136,0,0,0,.094,1.388c.025.087.246.159.666.215a7.792,7.792,0,0,0,.946.084.5.5,0,0,1,.066.272.358.358,0,0,1-.066.272q-1.911-.093-2.325-.093-.187,0-2.1.093a.353.353,0,0,1-.067-.272.529.529,0,0,1,.067-.272,3.975,3.975,0,0,0,.7-.084c.293-.056.453-.128.478-.215a6.136,6.136,0,0,0,.094-1.388V53.988a3.154,3.154,0,0,0-.094-.976q-.132-.338-1.218-.337a.408.408,0,0,1-.047-.225.4.4,0,0,1,.047-.263,8.392,8.392,0,0,0,2.68-.787c.05,0,.1.037.141.112a.393.393,0,0,1,.065.188,12.145,12.145,0,0,0-.131,1.725c0,.074.025.087.075.037a4.694,4.694,0,0,1,.975-1.349A1.84,1.84,0,0,1,537.312,51.456Z"/><path d="M542.206,53.556v3.919a6.074,6.074,0,0,0,.094,1.388c.024.087.184.159.478.215a3.975,3.975,0,0,0,.7.084.511.511,0,0,1,.066.272.358.358,0,0,1-.066.272q-1.932-.093-2.006-.093t-1.988.093a.362.362,0,0,1-.065-.272.523.523,0,0,1,.065-.272,3.965,3.965,0,0,0,.7-.084q.441-.084.479-.215a6.2,6.2,0,0,0,.094-1.388V53.988a3.186,3.186,0,0,0-.094-.976q-.132-.338-1.219-.337a.417.417,0,0,1-.047-.225.413.413,0,0,1,.047-.263,8.391,8.391,0,0,0,2.681-.787c.051,0,.1.037.14.112a.4.4,0,0,1,.067.188,10.768,10.768,0,0,0-.132,1.237ZM540.678,49.2a.954.954,0,1,1,.666.271A.9.9,0,0,1,540.678,49.2Z"/></g><path d="M541.344,9.093q3.124,0,3.125,1.807v5.908a5.276,5.276,0,0,0-6.25,0V10.9Q538.219,9.093,541.344,9.093Z"/><g class="a"><path d="M547.531,51.456a6.739,6.739,0,0,1,1.041.1c.419.069.709.116.872.141a11.364,11.364,0,0,1,.225,2.062c0,.063-.063.094-.188.094a.479.479,0,0,1-.318-.094,3.2,3.2,0,0,0-.6-1.181,1.234,1.234,0,0,0-.974-.544,1.37,1.37,0,0,0-.994.329,1.134,1.134,0,0,0-.337.852,1.238,1.238,0,0,0,.074.442,2.605,2.605,0,0,0,.15.328,1.083,1.083,0,0,0,.282.29c.137.106.244.184.318.234s.21.129.4.234.328.185.4.235q.038.02.431.253l.516.309q.121.075.431.32a2.036,2.036,0,0,1,.422.412,3.086,3.086,0,0,1,.234.44,1.349,1.349,0,0,1,.122.554,2.341,2.341,0,0,1-.862,1.847,3.011,3.011,0,0,1-2.026.74,5.146,5.146,0,0,1-.721-.047,7.78,7.78,0,0,1-.779-.159q-.45-.112-.693-.151a5.186,5.186,0,0,1-.216-.937,6.8,6.8,0,0,1-.1-1.012.548.548,0,0,1,.337-.113.306.306,0,0,1,.169.038,2.79,2.79,0,0,0,.759,1.219,1.772,1.772,0,0,0,1.266.562,1.359,1.359,0,0,0,.975-.356,1.306,1.306,0,0,0,.375-.994,1.528,1.528,0,0,0-.112-.6,1.28,1.28,0,0,0-.394-.487,4.861,4.861,0,0,0-.5-.357c-.144-.087-.359-.209-.647-.365l-.638-.348a2.362,2.362,0,0,1-1.425-2.005,2.005,2.005,0,0,1,.816-1.651A3,3,0,0,1,547.531,51.456Z"/><path d="M553.794,51.55h2.419c.062,0,.094.069.094.206a.79.79,0,0,1-.263.563h-2.25v4.912q0,1.538,1.237,1.538a2.066,2.066,0,0,0,1.219-.432.146.146,0,0,1,.057.131.4.4,0,0,1-.076.281,2.57,2.57,0,0,1-1.93,1.032q-1.952,0-1.95-2.025V52.319h-1.088c-.063,0-.094-.057-.094-.169q0-.112.487-.6h.7V50.369c.1-.113.243-.272.43-.479l.489-.534c.136-.15.211-.232.224-.243a.241.241,0,0,1,.112-.057.325.325,0,0,1,.132-.01c.037.007.056.023.056.047Z"/><path d="M558.706,55v.132a3.527,3.527,0,0,0,.882,2.56,2.908,2.908,0,0,0,2.175.909,2.306,2.306,0,0,0,1.218-.328,3.639,3.639,0,0,0,.844-.666.077.077,0,0,1,.047.028.5.5,0,0,1,.066.094.281.281,0,0,1,.038.141.665.665,0,0,1-.114.337,3.85,3.85,0,0,1-1.058,1.087,2.8,2.8,0,0,1-1.679.507,3.542,3.542,0,0,1-2.7-1.116,3.9,3.9,0,0,1-1.05-2.784,4.544,4.544,0,0,1,1.19-3.131,3.391,3.391,0,0,1,2.5-1.332,3.177,3.177,0,0,1,1.378.281,2.1,2.1,0,0,1,.881.723,3.644,3.644,0,0,1,.422.824,2.233,2.233,0,0,1,.132.723c0,.574-.151.868-.45.881Q561.387,55,558.706,55Zm.094-.693h3.056a.382.382,0,0,0,.432-.432,2.129,2.129,0,0,0-.394-1.162,1.283,1.283,0,0,0-1.144-.6,1.527,1.527,0,0,0-1.181.543,2.954,2.954,0,0,0-.656,1.1C558.8,54.121,558.763,54.306,558.8,54.306Z"/><path d="M566.675,57.343a.946.946,0,0,1,.488.132,2.566,2.566,0,0,1,.337,1.312,3.79,3.79,0,0,1-.74,1.931,4.418,4.418,0,0,1-1.472,1.538c-.063,0-.125-.05-.187-.15a.487.487,0,0,1-.094-.243,2.561,2.561,0,0,0,1.181-2.082,1.3,1.3,0,0,0-.31-.722,1.37,1.37,0,0,1-.309-.8.856.856,0,0,1,.319-.618A1.1,1.1,0,0,1,566.675,57.343Z"/></g><path d="M560.363,17.257q2.1,0,2.295-.049a.651.651,0,0,0,.537-.683h.586v6.1a.271.271,0,0,1-.244.293q-.488.05-3.027.049-2.247,0-2.735-.049a.216.216,0,0,1-.244-.244V17.55c0-.228.082-.342.244-.342h.147q.245.05,2.441.049Z"/><path d="M560.9,8.913a4.128,4.128,0,0,1,2.076.464,1.507,1.507,0,0,1,.8,1.392v6.006H563.2a2.15,2.15,0,0,0-.488-1.538,2.469,2.469,0,0,0-1.807-.513,4.845,4.845,0,0,0-2.832.781V10.769q0-1.856,2.832-1.856Z"/><path d="M575.544,8.552q.538-.048.293,1.27V29.743a5.576,5.576,0,0,1-2-.634,1.436,1.436,0,0,1-.732-1.221V21.15a3.118,3.118,0,0,0,.928.634,4.63,4.63,0,0,0,1.22.147V9.626q0-1.074.293-1.074Z"/><rect y="82.369" width="263.437" height="0.801"/><rect y="94.869" width="263.437" height="0.801"/><rect y="107.369" width="263.437" height="0.801"/><rect y="119.869" width="263.437" height="0.801"/><path d="M0,101.42V89.164a4.177,4.177,0,0,1,1.123-3.052,3.917,3.917,0,0,1,2.93-1.147,2.177,2.177,0,0,1,1.611.586,2.11,2.11,0,0,1,.586,1.562v6.739l-.391-.342A5.233,5.233,0,0,0,4.712,92.8a3.71,3.71,0,0,0-1.636-.366,2.538,2.538,0,0,0-1.88.83,2.768,2.768,0,0,0-.8,2A2.854,2.854,0,0,0,1.2,97.294a2.507,2.507,0,0,0,1.88.855,3.928,3.928,0,0,0,1.636-.342,4.715,4.715,0,0,0,1.147-.684l.391-.39v6.787a2.131,2.131,0,0,1-.586,1.538,2.128,2.128,0,0,1-1.611.61,3.872,3.872,0,0,1-2.93-1.172A4.258,4.258,0,0,1,0,101.42Z"/><g class="a"><path d="M12.837,133.845a1.817,1.817,0,0,1,1.426.75,2.766,2.766,0,0,1,.618,1.818v3.862q0,.882.581.882a1.231,1.231,0,0,0,.62-.244c.049,0,.074.05.074.15a.658.658,0,0,1-.094.357,3.576,3.576,0,0,1-.684.459,1.651,1.651,0,0,1-.722.253.951.951,0,0,1-.721-.375,1.8,1.8,0,0,1-.422-.844,6.605,6.605,0,0,1-1.069.76,2.706,2.706,0,0,1-1.237.5,2.144,2.144,0,0,1-1.566-.619,2.069,2.069,0,0,1-.628-1.537,1.615,1.615,0,0,1,.29-.957,1.4,1.4,0,0,1,.647-.543q3.188-1.144,3.281-1.182a.307.307,0,0,0,.188-.141.936.936,0,0,0,.038-.328v-.506a1.883,1.883,0,0,0-.479-1.228,1.438,1.438,0,0,0-1.134-.572.822.822,0,0,0-.694.291,2.091,2.091,0,0,0-.338.872q-.15.9-.881.9a.546.546,0,0,1-.459-.243.9.9,0,0,1-.178-.544.708.708,0,0,1,.131-.45,6.882,6.882,0,0,1,1.537-1.04A4.055,4.055,0,0,1,12.837,133.845Zm-1.012,7.312a2.363,2.363,0,0,0,1.041-.3c.393-.2.591-.356.591-.468v-2.551q-1.445.432-1.745.544a1.532,1.532,0,0,0-1.143,1.463,1.31,1.31,0,0,0,.366.919A1.172,1.172,0,0,0,11.825,141.157Z"/><path d="M22.962,136.019a2.366,2.366,0,0,0-.15-1.012q-.206-.375-1.05-.375a.653.653,0,0,1,0-.488,10.039,10.039,0,0,0,2.569-.375c.038,0,.081.06.131.178a.788.788,0,0,1,.076.273,3.4,3.4,0,0,0-.132,1.218v3.938a6.878,6.878,0,0,0,.132,1.425.329.329,0,0,0,.206.206,1.108,1.108,0,0,0,.356.093,3.622,3.622,0,0,0,.375.019l.169.02c.037.011.056.081.056.206a.577.577,0,0,1-.047.177c-.031.082-.066.122-.1.122q-.282.019-.628.076c-.232.037-.447.081-.647.13s-.391.1-.572.151-.328.094-.441.131l-.15.038c-.1,0-.15-.1-.15-.3v-.862l-.037-.094a4.075,4.075,0,0,1-1.21.853,3.3,3.3,0,0,1-1.453.384q-2.343,0-2.344-3.73v-2.4a2.37,2.37,0,0,0-.149-1.012q-.207-.375-1.05-.375a.408.408,0,0,1-.047-.225.418.418,0,0,1,.047-.263,10.046,10.046,0,0,0,2.569-.375c.037,0,.081.05.13.151a.578.578,0,0,1,.076.224,3.737,3.737,0,0,0-.132,1.294v2.756a4.188,4.188,0,0,0,.45,2.2,1.567,1.567,0,0,0,1.425.7,2.189,2.189,0,0,0,1.163-.346c.375-.232.562-.459.562-.685Z"/></g><path d="M17.187,103.963q3.126,0,3.125,1.807v5.908a4.248,4.248,0,0,0-3.125-1.025,4.252,4.252,0,0,0-3.125,1.025V105.77Q14.062,103.963,17.187,103.963Z"/><g class="a"><path d="M31.25,133.807a3.6,3.6,0,0,1,1.293.187c.063,0,.094-.131.094-.394v-2.043a3.118,3.118,0,0,0-.094-.975q-.15-.337-1.143-.338c-.013,0-.022-.04-.028-.121a1.42,1.42,0,0,1,0-.244c.006-.081.022-.122.046-.122a8.543,8.543,0,0,0,2.663-.75c.05,0,.1.035.141.1a.367.367,0,0,1,.066.2,5.163,5.163,0,0,0-.207,1.631v8.025a6.962,6.962,0,0,0,.131,1.838.437.437,0,0,0,.235.187,1.582,1.582,0,0,0,.356.1,2.323,2.323,0,0,0,.347.027l.169.02c.037.011.056.086.056.224a.506.506,0,0,1-.047.169c-.031.075-.066.112-.1.112-.187.013-.4.038-.628.076s-.447.081-.647.13-.391.1-.572.151-.322.094-.422.131l-.168.038c-.1,0-.151-.119-.151-.357v-.656c-.012-.088-.031-.125-.056-.112a4.253,4.253,0,0,1-1.087.712,3.192,3.192,0,0,1-1.407.413,2.964,2.964,0,0,1-2.306-1.163,4.237,4.237,0,0,1-.993-2.85,3.641,3.641,0,0,1,.768-2.2,5.406,5.406,0,0,1,1.8-1.594A4.055,4.055,0,0,1,31.25,133.807Zm-.6.788a1.918,1.918,0,0,0-1.659.927,3.806,3.806,0,0,0-.629,2.185,3.854,3.854,0,0,0,.7,2.344,2.278,2.278,0,0,0,1.941.956,2.5,2.5,0,0,0,1.116-.253c.343-.169.515-.334.515-.5v-4.743q0-.339-.609-.629A3.159,3.159,0,0,0,30.65,134.6Z"/><path d="M39.106,135.926v3.919a6.063,6.063,0,0,0,.094,1.387q.037.13.478.215a3.89,3.89,0,0,0,.7.085.531.531,0,0,1,.066.272.36.36,0,0,1-.066.272q-1.93-.093-2.006-.094t-1.988.094a.356.356,0,0,1-.065-.272.523.523,0,0,1,.065-.272,3.88,3.88,0,0,0,.7-.085c.294-.056.453-.128.479-.215a6.124,6.124,0,0,0,.094-1.387v-3.488a3.146,3.146,0,0,0-.094-.975q-.132-.337-1.219-.337a.425.425,0,0,1-.047-.226.408.408,0,0,1,.047-.262,8.39,8.39,0,0,0,2.681-.788c.05,0,.1.038.141.113a.4.4,0,0,1,.065.187,10.961,10.961,0,0,0-.131,1.238Zm-1.528-4.36a.95.95,0,1,1,.666.272A.9.9,0,0,1,37.578,131.566Z"/></g><path d="M38.244,97.713q3.124,0,3.125,1.807v5.908a4.252,4.252,0,0,0-3.125-1.025,4.248,4.248,0,0,0-3.125,1.025V99.52Q35.119,97.713,38.244,97.713Z"/><g class="a"><path d="M51.761,133.807a1.993,1.993,0,0,1,1.931.9,6.952,6.952,0,0,1,.487,3.075v2.063a6.063,6.063,0,0,0,.094,1.387c.025.087.185.159.478.215a3.889,3.889,0,0,0,.7.085.523.523,0,0,1,.065.272.365.365,0,0,1-.065.272q-1.932-.093-2.007-.094t-1.988.094a.365.365,0,0,1-.065-.272.523.523,0,0,1,.065-.272,3.889,3.889,0,0,0,.7-.085q.441-.084.478-.215a6.124,6.124,0,0,0,.094-1.387V137.97a5.386,5.386,0,0,0-.375-2.419,1.538,1.538,0,0,0-1.463-.657,2.161,2.161,0,0,0-1.125.432q-.657.431-.656.6v3.919a6.147,6.147,0,0,0,.093,1.387q.038.13.479.215a3.88,3.88,0,0,0,.7.085.531.531,0,0,1,.066.272.36.36,0,0,1-.066.272q-1.932-.093-2.006-.094t-1.988.094a.356.356,0,0,1-.065-.272.523.523,0,0,1,.065-.272,3.88,3.88,0,0,0,.7-.085c.294-.056.453-.128.479-.215a6.147,6.147,0,0,0,.093-1.387v-3.413a3.539,3.539,0,0,0-.093-1.05q-.132-.337-1.219-.337a.415.415,0,0,1-.047-.226.408.408,0,0,1,.047-.262,8.39,8.39,0,0,0,2.681-.788c.05,0,.1.038.141.113a.4.4,0,0,1,.065.187,9.236,9.236,0,0,0-.112,1.07c0,.049.012.074.037.074s.031-.012.056-.037a5.394,5.394,0,0,1,1.153-.891A2.729,2.729,0,0,1,51.761,133.807Z"/><path d="M60.461,133.788a3.838,3.838,0,0,1,2.915,1.153,4.088,4.088,0,0,1,1.1,2.935,4.323,4.323,0,0,1-1.134,3.047A3.707,3.707,0,0,1,60.5,142.15a3.848,3.848,0,0,1-2.925-1.162,4.123,4.123,0,0,1-1.106-2.963A4.23,4.23,0,0,1,57.611,135,3.758,3.758,0,0,1,60.461,133.788Zm-.207.619a1.763,1.763,0,0,0-1.64.938,4.593,4.593,0,0,0-.534,2.305,5.141,5.141,0,0,0,.712,2.692,2.141,2.141,0,0,0,1.894,1.19,1.762,1.762,0,0,0,1.64-.937,4.548,4.548,0,0,0,.535-2.288,5.2,5.2,0,0,0-.713-2.691A2.139,2.139,0,0,0,60.254,134.407Z"/><path d="M68.9,133.826a6.606,6.606,0,0,1,1.04.1q.628.1.873.14a11.466,11.466,0,0,1,.225,2.063c0,.062-.063.093-.188.093a.487.487,0,0,1-.319-.093,3.188,3.188,0,0,0-.6-1.181,1.236,1.236,0,0,0-.975-.544,1.373,1.373,0,0,0-.994.328,1.137,1.137,0,0,0-.337.853,1.233,1.233,0,0,0,.075.441,2.412,2.412,0,0,0,.15.328,1.078,1.078,0,0,0,.281.29c.138.107.244.185.319.235s.209.129.4.234.328.185.4.234q.037.02.432.253c.262.158.434.26.515.31s.225.156.431.319a2.036,2.036,0,0,1,.422.412,3.2,3.2,0,0,1,.235.441,1.346,1.346,0,0,1,.122.554,2.336,2.336,0,0,1-.863,1.846,3.009,3.009,0,0,1-2.025.74,5.168,5.168,0,0,1-.722-.046,7.8,7.8,0,0,1-.778-.16q-.45-.113-.694-.15a5.225,5.225,0,0,1-.215-.937,6.687,6.687,0,0,1-.1-1.012.55.55,0,0,1,.338-.113.3.3,0,0,1,.169.038,2.787,2.787,0,0,0,.759,1.218,1.77,1.77,0,0,0,1.266.563,1.357,1.357,0,0,0,.975-.357,1.3,1.3,0,0,0,.375-.994,1.506,1.506,0,0,0-.113-.6,1.28,1.28,0,0,0-.394-.488,4.993,4.993,0,0,0-.5-.356q-.216-.13-.647-.365l-.638-.348a2.362,2.362,0,0,1-1.425-2.006,2,2,0,0,1,.816-1.65A3,3,0,0,1,68.9,133.826Z"/><path d="M73.061,141.176a.961.961,0,0,1,.309-.713,1.03,1.03,0,0,1,.741-.3.989.989,0,0,1,.712.291.964.964,0,0,1,.3.722,1.024,1.024,0,0,1-.3.74.956.956,0,0,1-.712.309,1.018,1.018,0,0,1-.732-.309A1,1,0,0,1,73.061,141.176Z"/></g><path d="M60.47,91.463q3.124,0,3.125,1.807v5.908a4.25,4.25,0,0,0-3.125-1.025,4.25,4.25,0,0,0-3.125,1.025V93.27Q57.345,91.463,60.47,91.463Z"/><path d="M66.687,89.082a1.5,1.5,0,0,1,1.093.43,1.418,1.418,0,0,1,.44,1.054,1.514,1.514,0,0,1-1.533,1.516,1.4,1.4,0,0,1-1.027-.447,1.466,1.466,0,0,1-.44-1.069,1.487,1.487,0,0,1,1.467-1.484Z"/><g class="a"><path class="b" d="M83.071,135.963a4.582,4.582,0,0,0,.075-.6c0-.312-.062-.469-.187-.469a.525.525,0,0,0-.234.076,1.473,1.473,0,0,0-.273.187c-.087.075-.181.162-.281.263s-.185.187-.253.262-.128.144-.178.207l-.094.093c-.025,0-.062-.047-.112-.14a.5.5,0,0,1-.075-.216,5.171,5.171,0,0,1,1.013-1.088,2.2,2.2,0,0,1,1.349-.675.637.637,0,0,1,.516.281,1.113,1.113,0,0,1,.216.694,6.1,6.1,0,0,1-.132.994l-.956,4.2a3.227,3.227,0,0,0-.075.6q0,.468.187.468a.516.516,0,0,0,.235-.075,1.553,1.553,0,0,0,.272-.187c.087-.074.181-.162.281-.262s.184-.187.253-.263.134-.143.2-.206l.075-.093c.025,0,.062.046.113.14a.51.51,0,0,1,.074.215,4.763,4.763,0,0,1-1.05,1.078,2.4,2.4,0,0,1-1.406.685.527.527,0,0,1-.469-.272,1.321,1.321,0,0,1-.169-.7,6.117,6.117,0,0,1,.132-.994Zm1.069-6.056a.613.613,0,0,1,.478.225.774.774,0,0,1,.2.525,1.166,1.166,0,0,1-.291.787.912.912,0,0,1-.721.338.545.545,0,0,1-.469-.234.959.959,0,0,1-.169-.573,1.1,1.1,0,0,1,.281-.75A.894.894,0,0,1,84.14,129.907Z"/><path class="b" d="M88.1,135.963a4.7,4.7,0,0,0,.074-.6c0-.312-.063-.469-.188-.469a.533.533,0,0,0-.234.076,1.4,1.4,0,0,0-.271.187c-.088.075-.182.162-.282.263s-.184.187-.253.262-.129.144-.178.207l-.094.093c-.025,0-.063-.047-.112-.14a.524.524,0,0,1-.076-.216,5.2,5.2,0,0,1,1.013-1.088,2.208,2.208,0,0,1,1.351-.675.636.636,0,0,1,.515.281,1.106,1.106,0,0,1,.215.694,6.187,6.187,0,0,1-.131.994l-1.031,5.344a7.7,7.7,0,0,1-1.331,3.169,6.875,6.875,0,0,1-1.294,1.284,5.918,5.918,0,0,1-1.312.8.447.447,0,0,1-.169-.375,4.805,4.805,0,0,0,1.65-1.716,8.212,8.212,0,0,0,1.013-2.728Zm1.274-6.056a.615.615,0,0,1,.479.225.778.778,0,0,1,.2.525,1.17,1.17,0,0,1-.29.787.913.913,0,0,1-.722.338.547.547,0,0,1-.469-.234.952.952,0,0,1-.169-.573,1.1,1.1,0,0,1,.282-.75A.892.892,0,0,1,89.371,129.907Z"/><path class="b" d="M90.721,141.4a1.241,1.241,0,0,1,.394-.9,1.2,1.2,0,0,1,.863-.394.769.769,0,0,1,.581.235.841.841,0,0,1,.224.609,1.315,1.315,0,0,1-.384.918,1.149,1.149,0,0,1-.853.413.774.774,0,0,1-.591-.253A.891.891,0,0,1,90.721,141.4Z"/></g><rect x="95.145" y="82.77" width="0.8" height="37.5"/><rect x="100.595" y="82.77" width="0.8" height="37.5"/><g class="a"><path d="M106.657,129.514a18.77,18.77,0,0,1,3.975.393q.43,2.588.431,2.775c.013.05-.028.1-.122.16a.567.567,0,0,1-.29.084.423.423,0,0,1-.225-.057q-.525-2.736-3.676-2.737a3.978,3.978,0,0,0-3.281,1.678,6.033,6.033,0,0,0-1.293,3.778,7.674,7.674,0,0,0,.515,2.832,5.129,5.129,0,0,0,1.66,2.2,4.262,4.262,0,0,0,2.7.891,3.593,3.593,0,0,0,2.475-.9,3.877,3.877,0,0,0,1.143-2.175.877.877,0,0,1,.6.15,8.648,8.648,0,0,1-.244,1.453,3.378,3.378,0,0,1-.413,1.247,8.229,8.229,0,0,1-4.031.844,6.036,6.036,0,0,1-4.491-1.8,5.975,5.975,0,0,1-1.772-4.35,6.38,6.38,0,0,1,1.81-4.575A6,6,0,0,1,106.657,129.514Z"/><path d="M117.813,133.807a2,2,0,0,1,1.932.9,6.966,6.966,0,0,1,.487,3.075v2.063a6.063,6.063,0,0,0,.094,1.387q.038.13.478.215a3.89,3.89,0,0,0,.7.085.531.531,0,0,1,.066.272.36.36,0,0,1-.066.272q-1.913-.093-2.006-.094-.057,0-1.988.094a.356.356,0,0,1-.065-.272.523.523,0,0,1,.065-.272,3.88,3.88,0,0,0,.7-.085c.294-.056.453-.128.479-.215a6.124,6.124,0,0,0,.094-1.387V137.97a5.386,5.386,0,0,0-.375-2.419,1.538,1.538,0,0,0-1.463-.657,2.161,2.161,0,0,0-1.125.432q-.657.431-.657.6v3.919a6.124,6.124,0,0,0,.094,1.387q.037.13.479.215a3.88,3.88,0,0,0,.7.085.523.523,0,0,1,.065.272.356.356,0,0,1-.065.272q-1.914-.093-2.007-.094-.056,0-1.987.094a.36.36,0,0,1-.066-.272.531.531,0,0,1,.066-.272,3.89,3.89,0,0,0,.7-.085q.441-.084.478-.215a6.124,6.124,0,0,0,.094-1.387v-8.288a3.15,3.15,0,0,0-.094-.975q-.15-.337-1.144-.338c-.012,0-.022-.04-.028-.121a1.656,1.656,0,0,1,0-.244c.006-.081.022-.122.047-.122a8.53,8.53,0,0,0,2.662-.75c.05,0,.1.035.141.1a.367.367,0,0,1,.066.2,5.163,5.163,0,0,0-.207,1.631v4.238c0,.025.019.037.057.037.012,0,.031-.012.056-.037a5.394,5.394,0,0,1,1.153-.891A2.729,2.729,0,0,1,117.813,133.807Z"/><path d="M127.413,133.826a1.556,1.556,0,0,1,.685.159,1.046,1.046,0,0,1,.459.384,1.6,1.6,0,0,1,.075.507,1.088,1.088,0,0,1-.215.722.481.481,0,0,1-.629.206,1.518,1.518,0,0,1-.281-.169c-.112-.081-.175-.128-.188-.141a1.243,1.243,0,0,0-.694-.225,1.316,1.316,0,0,0-1.021.638,1.936,1.936,0,0,0-.479,1.05v2.888a6.124,6.124,0,0,0,.094,1.387q.038.13.666.215a7.648,7.648,0,0,0,.947.085.513.513,0,0,1,.065.272.356.356,0,0,1-.065.272q-1.912-.093-2.325-.094-.187,0-2.1.094a.36.36,0,0,1-.066-.272.531.531,0,0,1,.066-.272,3.89,3.89,0,0,0,.7-.085q.441-.084.478-.215a6.124,6.124,0,0,0,.094-1.387v-3.488a3.146,3.146,0,0,0-.094-.975q-.132-.337-1.218-.337a.415.415,0,0,1-.047-.226.408.408,0,0,1,.047-.262,8.39,8.39,0,0,0,2.681-.788c.05,0,.1.038.14.113a.393.393,0,0,1,.066.187,12.177,12.177,0,0,0-.132,1.726c0,.074.025.087.076.037a4.711,4.711,0,0,1,.975-1.35A1.838,1.838,0,0,1,127.413,133.826Z"/><path d="M132.307,135.926v3.919a6.147,6.147,0,0,0,.093,1.387q.037.13.479.215a3.88,3.88,0,0,0,.7.085.523.523,0,0,1,.065.272.356.356,0,0,1-.065.272q-1.932-.093-2.006-.094t-1.988.094a.36.36,0,0,1-.066-.272.531.531,0,0,1,.066-.272,3.88,3.88,0,0,0,.7-.085c.294-.056.453-.128.479-.215a6.147,6.147,0,0,0,.093-1.387v-3.488a3.156,3.156,0,0,0-.093-.975q-.132-.337-1.219-.337a.415.415,0,0,1-.047-.226.408.408,0,0,1,.047-.262,8.39,8.39,0,0,0,2.681-.788c.05,0,.1.038.141.113a.4.4,0,0,1,.065.187,10.961,10.961,0,0,0-.131,1.238Zm-1.528-4.36a.95.95,0,1,1,.665.272A.9.9,0,0,1,130.779,131.566Z"/></g><path d="M131.444,91.463q3.126,0,3.125,1.807v5.908a5.276,5.276,0,0,0-6.25,0V93.27Q128.319,91.463,131.444,91.463Z"/><g class="a"><path d="M137.632,133.826a6.617,6.617,0,0,1,1.04.1q.629.1.872.14a11.367,11.367,0,0,1,.226,2.063c0,.062-.063.093-.188.093a.487.487,0,0,1-.319-.093,3.2,3.2,0,0,0-.6-1.181,1.237,1.237,0,0,0-.975-.544,1.37,1.37,0,0,0-.994.328,1.137,1.137,0,0,0-.337.853,1.233,1.233,0,0,0,.075.441,2.3,2.3,0,0,0,.15.328,1.078,1.078,0,0,0,.281.29c.137.107.244.185.319.235s.209.129.4.234.328.185.4.234q.038.02.431.253c.263.158.435.26.516.31s.225.156.431.319a2.036,2.036,0,0,1,.422.412,3.1,3.1,0,0,1,.234.441,1.331,1.331,0,0,1,.123.554,2.339,2.339,0,0,1-.863,1.846,3.009,3.009,0,0,1-2.025.74,5.158,5.158,0,0,1-.722-.046,7.8,7.8,0,0,1-.778-.16q-.45-.113-.694-.15a5.225,5.225,0,0,1-.215-.937,6.687,6.687,0,0,1-.1-1.012.55.55,0,0,1,.338-.113.294.294,0,0,1,.168.038,2.781,2.781,0,0,0,.76,1.218,1.769,1.769,0,0,0,1.265.563,1.356,1.356,0,0,0,.975-.357,1.3,1.3,0,0,0,.375-.994,1.506,1.506,0,0,0-.112-.6,1.28,1.28,0,0,0-.394-.488,4.993,4.993,0,0,0-.5-.356q-.216-.13-.647-.365l-.638-.348a2.362,2.362,0,0,1-1.425-2.006,2,2,0,0,1,.816-1.65A3,3,0,0,1,137.632,133.826Z"/><path d="M143.9,133.92h2.418c.062,0,.094.068.094.206a.789.789,0,0,1-.262.562H143.9V139.6q0,1.539,1.237,1.539a2.071,2.071,0,0,0,1.219-.432.146.146,0,0,1,.056.131.4.4,0,0,1-.075.281,2.571,2.571,0,0,1-1.931,1.031q-1.95,0-1.95-2.024v-5.438h-1.088c-.062,0-.093-.056-.093-.169,0-.075.162-.274.487-.6h.694v-1.182c.1-.112.243-.271.431-.478l.488-.535c.137-.149.212-.231.225-.243a.231.231,0,0,1,.112-.056.322.322,0,0,1,.131-.01c.038.007.057.022.057.047Z"/><path d="M148.807,137.369v.132a3.528,3.528,0,0,0,.881,2.559,2.9,2.9,0,0,0,2.175.91,2.313,2.313,0,0,0,1.219-.329,3.607,3.607,0,0,0,.844-.666.08.08,0,0,1,.047.029.471.471,0,0,1,.065.094.275.275,0,0,1,.038.14.672.672,0,0,1-.113.338,3.841,3.841,0,0,1-1.059,1.087,2.8,2.8,0,0,1-1.678.507,3.544,3.544,0,0,1-2.7-1.116,3.905,3.905,0,0,1-1.049-2.785,4.54,4.54,0,0,1,1.19-3.13,3.39,3.39,0,0,1,2.5-1.332,3.163,3.163,0,0,1,1.378.281,2.1,2.1,0,0,1,.882.722,3.691,3.691,0,0,1,.422.825,2.252,2.252,0,0,1,.131.722q0,.862-.45.881Q151.488,137.37,148.807,137.369Zm.093-.693h3.057a.382.382,0,0,0,.431-.432,2.118,2.118,0,0,0-.394-1.162,1.282,1.282,0,0,0-1.143-.6,1.531,1.531,0,0,0-1.182.543,2.965,2.965,0,0,0-.656,1.1C148.9,136.491,148.863,136.676,148.9,136.676Z"/><path d="M156.775,139.713a.946.946,0,0,1,.488.132,2.564,2.564,0,0,1,.338,1.312,3.784,3.784,0,0,1-.741,1.931,4.436,4.436,0,0,1-1.472,1.538c-.063,0-.125-.05-.187-.151a.49.49,0,0,1-.094-.243,2.557,2.557,0,0,0,1.181-2.082,1.308,1.308,0,0,0-.309-.721,1.368,1.368,0,0,1-.31-.8.856.856,0,0,1,.319-.618A1.1,1.1,0,0,1,156.775,139.713Z"/></g><path d="M150.757,97.713q3.125,0,3.125,1.807v5.908a5.276,5.276,0,0,0-6.25,0V99.52Q147.632,97.713,150.757,97.713Z"/><g class="a"><path d="M165.994,137.369v.132a3.528,3.528,0,0,0,.881,2.559,2.909,2.909,0,0,0,2.176.91,2.316,2.316,0,0,0,1.219-.329,3.6,3.6,0,0,0,.843-.666.08.08,0,0,1,.047.029.466.466,0,0,1,.066.094.284.284,0,0,1,.037.14.663.663,0,0,1-.113.338,3.841,3.841,0,0,1-1.059,1.087,2.79,2.79,0,0,1-1.678.507,3.542,3.542,0,0,1-2.7-1.116,3.906,3.906,0,0,1-1.05-2.785,4.541,4.541,0,0,1,1.191-3.13,3.388,3.388,0,0,1,2.5-1.332,3.166,3.166,0,0,1,1.378.281,2.1,2.1,0,0,1,.881.722,3.649,3.649,0,0,1,.422.825,2.252,2.252,0,0,1,.131.722c0,.575-.149.868-.45.881Q168.676,137.37,165.994,137.369Zm.094-.693h3.057a.382.382,0,0,0,.431-.432,2.126,2.126,0,0,0-.394-1.162,1.285,1.285,0,0,0-1.144-.6,1.531,1.531,0,0,0-1.181.543,2.965,2.965,0,0,0-.656,1.1C166.088,136.491,166.051,136.676,166.088,136.676Z"/><path d="M174.282,134.051q.861,0,1.894-.094a.635.635,0,0,1-.038.544q-.75,0-.75.318a.5.5,0,0,0,.094.226l1.237,1.969c.1-.164.279-.422.535-.779s.453-.647.59-.872a1.128,1.128,0,0,0,.207-.506.248.248,0,0,0-.151-.216.843.843,0,0,0-.318-.1,3.555,3.555,0,0,0-.375-.019L177,134.5c-.024-.013-.037-.1-.037-.253a.684.684,0,0,1,.037-.291c.188.013.4.025.629.037s.443.025.637.038.4.019.629.019a10.787,10.787,0,0,0,1.5-.094,1.417,1.417,0,0,1,.009.309c-.007.157-.016.235-.029.235q-1.18.056-1.443.412l-.722,1q-.479.666-.778,1.088c-.2.281-.326.453-.375.515l2.25,3.338a1.636,1.636,0,0,0,1.443.675c.013,0,.022.04.029.122a1.207,1.207,0,0,1-.009.253.74.74,0,0,1-.038.169l-1.763-.094q-.055,0-2.081.094a.859.859,0,0,1-.028-.319c.006-.15.022-.225.047-.225.525-.038.787-.15.787-.338a.288.288,0,0,0-.037-.112q-.975-1.594-1.481-2.344-.094.151-.572.854t-.778,1.172a.685.685,0,0,0-.113.355q0,.339.937.413h.094c.013,0,.022.037.028.112a1.523,1.523,0,0,1,0,.253.315.315,0,0,1-.046.179c-.176-.013-.372-.025-.591-.038s-.419-.024-.6-.037-.378-.019-.591-.019-.406.006-.581.019-.375.024-.6.037-.419.025-.581.038a.7.7,0,0,1-.019-.291.788.788,0,0,1,.056-.253c.025,0,.1-.01.225-.028l.253-.037c.044-.007.122-.023.235-.047a2,2,0,0,0,.244-.067l.224-.084a.878.878,0,0,0,.235-.122c.056-.044.118-.093.187-.149a.878.878,0,0,0,.178-.2q1.745-2.512,1.838-2.644l-2.175-3.244q-.263-.411-1.256-.412c-.013,0-.022-.038-.028-.112a1.027,1.027,0,0,1,.009-.245,1.093,1.093,0,0,1,.038-.187Q173.457,134.05,174.282,134.051Z"/></g><path d="M167.944,91.463q3.126,0,3.125,1.807v5.908a5.276,5.276,0,0,0-6.25,0V93.27Q164.819,91.463,167.944,91.463Z"/><g class="a"><path d="M185.419,133.845a1.814,1.814,0,0,1,1.425.75,2.761,2.761,0,0,1,.619,1.818v3.862q0,.882.581.882a1.225,1.225,0,0,0,.619-.244q.075,0,.075.15a.658.658,0,0,1-.094.357,3.642,3.642,0,0,1-.684.459,1.655,1.655,0,0,1-.722.253.953.953,0,0,1-.722-.375,1.806,1.806,0,0,1-.422-.844,6.558,6.558,0,0,1-1.069.76,2.7,2.7,0,0,1-1.237.5,2.145,2.145,0,0,1-1.566-.619,2.069,2.069,0,0,1-.628-1.537,1.616,1.616,0,0,1,.291-.957,1.4,1.4,0,0,1,.647-.543q3.188-1.144,3.281-1.182a.3.3,0,0,0,.187-.141.936.936,0,0,0,.038-.328v-.506a1.887,1.887,0,0,0-.478-1.228,1.439,1.439,0,0,0-1.135-.572.824.824,0,0,0-.694.291,2.091,2.091,0,0,0-.337.872q-.15.9-.881.9a.544.544,0,0,1-.459-.243.9.9,0,0,1-.179-.544.709.709,0,0,1,.132-.45,6.882,6.882,0,0,1,1.537-1.04A4.055,4.055,0,0,1,185.419,133.845Zm-1.012,7.312a2.355,2.355,0,0,0,1.04-.3q.591-.3.591-.468v-2.551q-1.445.432-1.744.544a1.533,1.533,0,0,0-1.144,1.463,1.31,1.31,0,0,0,.366.919A1.175,1.175,0,0,0,184.407,141.157Zm1.631-11.4q.675,0,.675.544,0,.393-1.313,1.424a6.121,6.121,0,0,1-1.518,1.032c-.113,0-.169-.081-.169-.243a7.769,7.769,0,0,1,.684-1.06q.686-.984,1.135-1.547A.7.7,0,0,1,186.038,129.757Z"/><path d="M195.544,136.019a2.366,2.366,0,0,0-.15-1.012q-.207-.375-1.05-.375a.417.417,0,0,1-.047-.225.425.425,0,0,1,.047-.263,10.046,10.046,0,0,0,2.569-.375c.037,0,.081.06.131.178a.782.782,0,0,1,.075.273,3.4,3.4,0,0,0-.131,1.218v3.938a6.883,6.883,0,0,0,.131,1.425.334.334,0,0,0,.206.206,1.114,1.114,0,0,0,.357.093,3.594,3.594,0,0,0,.375.019l.168.02c.038.011.056.081.056.206a.549.549,0,0,1-.047.177c-.031.082-.065.122-.1.122-.187.013-.4.038-.628.076s-.447.081-.647.13-.39.1-.571.151-.328.094-.441.131l-.15.038c-.1,0-.15-.1-.15-.3v-.862l-.038-.094a4.069,4.069,0,0,1-1.209.853,3.3,3.3,0,0,1-1.453.384q-2.344,0-2.344-3.73v-2.4a2.366,2.366,0,0,0-.15-1.012c-.138-.25-.487-.375-1.05-.375a.417.417,0,0,1-.047-.225.425.425,0,0,1,.047-.263,10.046,10.046,0,0,0,2.569-.375c.037,0,.081.05.131.151a.572.572,0,0,1,.075.224,3.773,3.773,0,0,0-.131,1.294v2.756a4.188,4.188,0,0,0,.45,2.2,1.567,1.567,0,0,0,1.425.7,2.186,2.186,0,0,0,1.162-.346c.375-.232.563-.459.563-.685Z"/></g><path d="M189.769,103.963q3.126,0,3.125,1.807v5.908a5.276,5.276,0,0,0-6.25,0V105.77Q186.644,103.963,189.769,103.963Z"/><g class="a"><path d="M203.832,133.807a3.6,3.6,0,0,1,1.293.187c.063,0,.094-.131.094-.394v-2.043a3.118,3.118,0,0,0-.094-.975c-.1-.225-.48-.338-1.143-.338-.013,0-.022-.04-.028-.121a1.42,1.42,0,0,1,0-.244c.006-.081.022-.122.046-.122a8.543,8.543,0,0,0,2.663-.75c.05,0,.1.035.141.1a.367.367,0,0,1,.066.2,5.163,5.163,0,0,0-.207,1.631v8.025a6.962,6.962,0,0,0,.131,1.838.437.437,0,0,0,.235.187,1.582,1.582,0,0,0,.356.1,2.323,2.323,0,0,0,.347.027l.169.02c.037.011.056.086.056.224a.506.506,0,0,1-.047.169c-.031.075-.066.112-.1.112-.187.013-.4.038-.628.076s-.447.081-.647.13-.391.1-.572.151-.322.094-.422.131l-.168.038c-.1,0-.151-.119-.151-.357v-.656c-.012-.088-.031-.125-.056-.112a4.253,4.253,0,0,1-1.087.712,3.192,3.192,0,0,1-1.407.413,2.964,2.964,0,0,1-2.306-1.163,4.237,4.237,0,0,1-.993-2.85,3.641,3.641,0,0,1,.768-2.2,5.406,5.406,0,0,1,1.8-1.594A4.055,4.055,0,0,1,203.832,133.807Zm-.6.788a1.918,1.918,0,0,0-1.659.927,3.806,3.806,0,0,0-.629,2.185,3.854,3.854,0,0,0,.7,2.344,2.278,2.278,0,0,0,1.941.956,2.5,2.5,0,0,0,1.116-.253c.343-.169.515-.334.515-.5v-4.743q0-.339-.609-.629A3.159,3.159,0,0,0,203.232,134.6Z"/><path d="M211.688,135.926v3.919a6.063,6.063,0,0,0,.094,1.387q.037.13.478.215a3.89,3.89,0,0,0,.7.085.531.531,0,0,1,.066.272.36.36,0,0,1-.066.272q-1.931-.093-2.006-.094t-1.988.094a.356.356,0,0,1-.065-.272.523.523,0,0,1,.065-.272,3.87,3.87,0,0,0,.7-.085c.294-.056.453-.128.479-.215a6.124,6.124,0,0,0,.094-1.387v-3.488a3.146,3.146,0,0,0-.094-.975q-.132-.337-1.219-.337a.425.425,0,0,1-.047-.226.415.415,0,0,1,.047-.262,8.39,8.39,0,0,0,2.681-.788c.05,0,.1.038.141.113a.4.4,0,0,1,.065.187,10.961,10.961,0,0,0-.131,1.238Zm-1.528-4.36a.95.95,0,1,1,.666.272A.9.9,0,0,1,210.16,131.566Z"/></g><path d="M210.826,97.713q3.124,0,3.125,1.807v5.908a5.276,5.276,0,0,0-6.25,0V99.52Q207.7,97.713,210.826,97.713Z"/><g class="a"><path d="M224.342,133.807a1.992,1.992,0,0,1,1.931.9,6.949,6.949,0,0,1,.488,3.075v2.063a6.147,6.147,0,0,0,.093,1.387q.037.13.479.215a3.88,3.88,0,0,0,.7.085.531.531,0,0,1,.066.272.36.36,0,0,1-.066.272q-1.93-.093-2.006-.094t-1.988.094a.356.356,0,0,1-.065-.272.523.523,0,0,1,.065-.272,3.88,3.88,0,0,0,.7-.085c.294-.056.453-.128.479-.215a6.147,6.147,0,0,0,.093-1.387V137.97a5.372,5.372,0,0,0-.375-2.419,1.536,1.536,0,0,0-1.463-.657,2.167,2.167,0,0,0-1.125.432q-.656.431-.656.6v3.919a6.063,6.063,0,0,0,.094,1.387q.037.13.479.215a3.87,3.87,0,0,0,.7.085.523.523,0,0,1,.065.272.365.365,0,0,1-.065.272q-1.932-.093-2.007-.094t-1.988.094a.365.365,0,0,1-.065-.272.523.523,0,0,1,.065-.272,3.889,3.889,0,0,0,.7-.085q.441-.084.478-.215a6.124,6.124,0,0,0,.094-1.387v-3.413a3.527,3.527,0,0,0-.094-1.05q-.132-.337-1.219-.337a.667.667,0,0,1,0-.488,8.4,8.4,0,0,0,2.682-.788c.049,0,.1.038.14.113a.393.393,0,0,1,.066.187,9.313,9.313,0,0,0-.113,1.07c0,.049.012.074.038.074s.031-.012.056-.037a5.368,5.368,0,0,1,1.153-.891A2.726,2.726,0,0,1,224.342,133.807Z"/><path d="M233.042,133.788a3.84,3.84,0,0,1,2.916,1.153,4.088,4.088,0,0,1,1.1,2.935,4.319,4.319,0,0,1-1.135,3.047,3.706,3.706,0,0,1-2.84,1.227,3.845,3.845,0,0,1-2.925-1.162,4.123,4.123,0,0,1-1.107-2.963A4.234,4.234,0,0,1,230.192,135,3.761,3.761,0,0,1,233.042,133.788Zm-.206.619a1.765,1.765,0,0,0-1.641.938,4.593,4.593,0,0,0-.534,2.305,5.132,5.132,0,0,0,.713,2.692,2.14,2.14,0,0,0,1.893,1.19,1.763,1.763,0,0,0,1.641-.937,4.558,4.558,0,0,0,.534-2.288,5.2,5.2,0,0,0-.712-2.691A2.14,2.14,0,0,0,232.836,134.407Z"/><path d="M241.479,133.826a6.628,6.628,0,0,1,1.041.1c.419.069.709.116.872.14a11.287,11.287,0,0,1,.225,2.063c0,.062-.063.093-.187.093a.487.487,0,0,1-.319-.093,3.219,3.219,0,0,0-.6-1.181,1.237,1.237,0,0,0-.975-.544,1.37,1.37,0,0,0-.994.328,1.137,1.137,0,0,0-.337.853,1.233,1.233,0,0,0,.074.441,2.29,2.29,0,0,0,.151.328,1.047,1.047,0,0,0,.281.29c.137.107.244.185.318.235s.21.129.4.234.328.185.4.234c.025.013.168.1.431.253l.516.31q.122.075.431.319a2.036,2.036,0,0,1,.422.412,3.1,3.1,0,0,1,.234.441,1.346,1.346,0,0,1,.122.554,2.336,2.336,0,0,1-.863,1.846,3.009,3.009,0,0,1-2.025.74,5.153,5.153,0,0,1-.721-.046,7.816,7.816,0,0,1-.779-.16c-.3-.075-.531-.125-.693-.15a5.3,5.3,0,0,1-.216-.937,6.662,6.662,0,0,1-.1-1.012.548.548,0,0,1,.338-.113.3.3,0,0,1,.168.038,2.787,2.787,0,0,0,.759,1.218,1.773,1.773,0,0,0,1.266.563,1.356,1.356,0,0,0,.975-.357,1.3,1.3,0,0,0,.375-.994,1.506,1.506,0,0,0-.112-.6,1.29,1.29,0,0,0-.394-.488,4.993,4.993,0,0,0-.5-.356c-.144-.087-.359-.209-.647-.365l-.637-.348a2.362,2.362,0,0,1-1.425-2.006,2,2,0,0,1,.815-1.65A3,3,0,0,1,241.479,133.826Z"/><path d="M245.642,141.176a.958.958,0,0,1,.31-.713,1.028,1.028,0,0,1,.74-.3.99.99,0,0,1,.713.291.968.968,0,0,1,.3.722,1.028,1.028,0,0,1-.3.74.957.957,0,0,1-.713.309,1.016,1.016,0,0,1-.731-.309A.992.992,0,0,1,245.642,141.176Z"/></g><path d="M233.052,91.463q3.124,0,3.125,1.807v5.908a5.276,5.276,0,0,0-6.25,0V93.27Q229.927,91.463,233.052,91.463Z"/><path d="M239.269,89.082a1.5,1.5,0,0,1,1.093.43,1.418,1.418,0,0,1,.44,1.054,1.514,1.514,0,0,1-1.533,1.516,1.4,1.4,0,0,1-1.028-.447,1.469,1.469,0,0,1-.439-1.069,1.485,1.485,0,0,1,1.467-1.484Z"/><g class="a"><path class="b" d="M255.653,135.963a4.582,4.582,0,0,0,.075-.6c0-.312-.062-.469-.187-.469a.532.532,0,0,0-.235.076,1.467,1.467,0,0,0-.272.187c-.087.075-.181.162-.281.263s-.185.187-.253.262-.128.144-.178.207l-.094.093c-.025,0-.062-.047-.112-.14a.5.5,0,0,1-.075-.216,5.188,5.188,0,0,1,1.012-1.088,2.206,2.206,0,0,1,1.35-.675.634.634,0,0,1,.515.281,1.107,1.107,0,0,1,.216.694,6.187,6.187,0,0,1-.131.994l-.956,4.2a3.227,3.227,0,0,0-.075.6q0,.468.187.468a.516.516,0,0,0,.235-.075,1.553,1.553,0,0,0,.272-.187c.087-.074.181-.162.281-.262s.184-.187.253-.263.134-.143.2-.206l.075-.093c.025,0,.062.046.112.14a.516.516,0,0,1,.075.215,4.786,4.786,0,0,1-1.05,1.078,2.4,2.4,0,0,1-1.406.685.527.527,0,0,1-.469-.272,1.321,1.321,0,0,1-.169-.7,6.117,6.117,0,0,1,.132-.994Zm1.069-6.056a.613.613,0,0,1,.478.225.774.774,0,0,1,.2.525,1.166,1.166,0,0,1-.291.787.912.912,0,0,1-.722.338.544.544,0,0,1-.468-.234.952.952,0,0,1-.169-.573,1.1,1.1,0,0,1,.281-.75A.893.893,0,0,1,256.722,129.907Z"/><path class="b" d="M260.678,135.963a4.582,4.582,0,0,0,.075-.6c0-.312-.063-.469-.188-.469a.533.533,0,0,0-.234.076,1.4,1.4,0,0,0-.271.187c-.088.075-.182.162-.282.263s-.184.187-.253.262-.129.144-.178.207l-.094.093c-.025,0-.063-.047-.112-.14a.509.509,0,0,1-.076-.216,5.2,5.2,0,0,1,1.013-1.088,2.206,2.206,0,0,1,1.35-.675.637.637,0,0,1,.516.281,1.112,1.112,0,0,1,.215.694,6.187,6.187,0,0,1-.131.994L261,141.176a7.711,7.711,0,0,1-1.331,3.169,6.875,6.875,0,0,1-1.294,1.284,5.918,5.918,0,0,1-1.312.8.447.447,0,0,1-.169-.375,4.805,4.805,0,0,0,1.65-1.716,8.19,8.19,0,0,0,1.012-2.728Zm1.275-6.056a.611.611,0,0,1,.478.225.774.774,0,0,1,.2.525,1.166,1.166,0,0,1-.291.787.91.91,0,0,1-.721.338.545.545,0,0,1-.469-.234.952.952,0,0,1-.169-.573,1.1,1.1,0,0,1,.281-.75A.894.894,0,0,1,261.953,129.907Z"/><path class="b" d="M263.3,141.4a1.237,1.237,0,0,1,.394-.9,1.2,1.2,0,0,1,.862-.394.768.768,0,0,1,.581.235.838.838,0,0,1,.225.609,1.315,1.315,0,0,1-.384.918,1.149,1.149,0,0,1-.853.413.773.773,0,0,1-.591-.253A.891.891,0,0,1,263.3,141.4Z"/></g><rect x="257.187" y="82.77" width="0.8" height="37.5"/><rect x="262.637" y="82.77" width="0.8" height="37.5"/></svg>